<svg width="80" height="80" viewBox="0 0 80 80" fill="none" xmlns="http://www.w3.org/2000/svg">
<g clip-path="url(#clip0)">
<path d="M35.0949 77.5326C26.4132 77.5326 18.2799 74.1513 12.157 68.0284C5.94276 61.8142 2.56148 53.6808 2.56148 44.9992C2.56148 36.3175 5.94276 28.1841 12.0656 22.0613C18.1885 15.9384 26.3218 12.5571 35.0035 12.5571C43.0455 12.5571 50.7219 15.4815 56.662 20.8733L57.3931 21.513L49.7167 29.1894L49.077 28.6411C45.1474 25.2598 40.2125 23.4321 35.0949 23.4321C29.3376 23.4321 23.9458 25.7167 19.8334 29.7377C15.7211 33.8501 13.5278 39.2418 13.5278 44.9992C13.5278 50.7565 15.8125 56.1483 19.8334 60.2606C23.9458 64.373 29.3376 66.5663 35.0949 66.5663C40.8522 66.5663 46.244 64.2816 50.3564 60.2606C54.4687 56.1483 56.662 50.7565 56.662 44.9992C56.662 39.8815 54.8343 34.8553 51.453 31.0171L50.9047 30.3774L58.5811 22.701L59.2208 23.4321C64.5212 29.3722 67.5369 37.0486 67.5369 45.0906C67.5369 53.7722 64.1556 61.9056 58.0328 68.0284C51.9099 74.1513 43.7766 77.5326 35.0949 77.5326Z" fill="#27AFE6"/>
<path d="M35.095 52.4928C32.0792 52.4928 29.429 50.7565 28.241 47.9235C27.053 45.0906 27.6927 41.9835 29.7946 39.7902C31.1654 38.4194 33.0845 37.5969 35.095 37.5969C36.3744 37.5969 37.6538 37.9625 38.7504 38.5108L39.7557 39.0591L34.4553 44.3595C34.0897 44.725 34.0897 45.182 34.4553 45.5475C34.638 45.7303 34.8208 45.8217 35.0036 45.8217C35.1864 45.8217 35.4605 45.7303 35.6433 45.5475L40.9437 40.2471L41.5834 41.2524C42.8628 43.537 42.8628 46.37 41.492 48.6546C40.1212 51.1221 37.7452 52.4928 35.095 52.4928Z" fill="#27AFE6"/>
<path d="M3.47534 44.9992C3.47534 53.6809 7.0394 61.6315 12.7053 67.2974C18.4626 73.0547 26.3218 76.6188 35.0949 76.6188C43.7766 76.6188 51.7272 73.0548 57.3931 67.3888C63.1504 61.6315 66.6231 53.7723 66.6231 45.0906C66.6231 37.0487 63.6073 29.6464 58.5811 24.0718L52.1841 30.4689C55.5654 34.3985 57.5759 39.5161 57.5759 45.0906C57.5759 51.3049 55.0171 56.9708 50.9961 60.9918C46.8837 65.0128 41.3092 67.4802 35.0949 67.4802C28.8807 67.4802 23.2147 64.9214 19.1937 60.9004C15.0814 56.8794 12.6139 51.2135 12.6139 44.9992C12.6139 38.785 15.1728 33.1191 19.1937 29.0981C23.3061 24.9857 28.8807 22.5183 35.0949 22.5183C40.6694 22.5183 45.7871 24.5288 49.7167 27.9101L56.1137 21.513C50.5391 16.4868 43.1369 13.4711 35.0949 13.4711C26.4132 13.4711 18.4626 17.0351 12.7967 22.7011C7.0394 28.367 3.47534 36.3176 3.47534 44.9992Z" fill="#27AFE6"/>
<path d="M16.0868 44.9993C16.0868 50.2083 18.1887 54.9604 21.6614 58.4331C25.1341 61.9058 29.8861 64.0076 35.0951 64.0076C40.3041 64.0076 45.0562 61.9058 48.5289 58.4331C52.0015 54.9604 54.1034 50.2083 54.1034 44.9993C54.1034 40.43 52.4585 36.1349 49.7169 32.845L43.3199 39.242C45.8787 42.9888 45.9701 48.2892 42.2232 52.0361C35.9176 58.3417 25.1341 53.8638 25.1341 44.908C25.1341 42.1664 26.2307 39.6076 28.0584 37.7798C29.8861 35.9521 32.3535 34.8555 35.1865 34.8555C37.3798 34.8555 39.3903 35.4952 40.9438 36.6832L47.3408 30.2862C44.051 27.5446 39.8472 25.8997 35.1865 25.8997C29.9775 25.8997 25.2254 28.0015 21.7528 31.4742C18.1887 35.0383 16.0868 39.7903 16.0868 44.9993Z" fill="white"/>
<path d="M30.4344 40.43C26.3221 44.5424 29.2464 51.5791 35.0037 51.5791C40.2127 51.5791 43.0457 46.0045 40.6697 41.8922L36.1918 46.3701C35.552 47.0098 34.364 47.0098 33.7243 46.3701C33.0846 45.7304 33.0846 44.5424 33.7243 43.9027L38.2022 39.4247C35.8262 37.9626 32.5363 38.3281 30.4344 40.43Z" fill="#B73A46"/>
<path d="M64.3385 15.7555L71.7408 16.1211L75.4876 9.63268L72.3805 9.17575C71.6494 9.08436 71.0097 8.44466 70.8269 7.71357L70.37 4.60645L63.8816 8.35327L64.3385 15.7555Z" fill="white"/>
<path d="M78.5948 6.52563L74.2083 5.88593L73.5686 1.4994C73.5686 1.31663 73.4772 1.04247 73.3858 0.859699C72.9289 0.0372245 71.8322 -0.236933 71.0098 0.219997L61.3228 5.88593C60.7745 6.16009 60.409 6.79979 60.409 7.53088L60.9573 16.7609L58.5813 19.0455C52.367 13.3796 44.1423 9.90691 35.0951 9.90691C25.4081 9.90691 16.6351 13.8365 10.2381 20.2335C3.84104 26.6306 0.00282288 35.3122 0.00282288 44.9991C0.00282288 54.6861 3.93242 63.4591 10.2381 69.7648C16.5437 76.0704 25.3167 80 35.0037 80C44.6906 80 53.4636 76.0704 59.7693 69.7648C66.2577 63.4591 70.1873 54.6861 70.1873 44.9991C70.1873 35.9519 66.7146 27.7272 61.0487 21.5129L63.3333 19.2283L72.4719 19.6852C73.1116 19.7766 73.7513 19.4111 74.1169 18.8627L79.6914 9.26721C79.7828 9.08444 79.8742 8.81028 79.9656 8.53612C80.1484 7.62226 79.5087 6.7084 78.5948 6.52563ZM66.6232 44.9991C66.6232 53.6808 63.0592 61.6314 57.3932 67.2973C51.6359 73.0546 43.7767 76.5273 35.0951 76.5273C26.4134 76.5273 18.4628 72.9633 12.7969 67.2973C7.03955 61.6314 3.47549 53.7722 3.47549 44.9991C3.47549 36.3175 7.03955 28.3669 12.7055 22.701C18.4628 16.9436 26.322 13.471 35.0037 13.471C43.0456 13.471 50.4479 16.5781 56.0224 21.5129L49.534 28.0013C45.6044 24.6201 40.5782 22.5182 35.0037 22.5182C28.7894 22.5182 23.1235 25.077 19.1025 29.098C15.0815 33.2103 12.6141 38.7849 12.6141 44.9991C12.6141 51.2134 15.1729 56.8793 19.1939 60.9003C23.3063 65.0127 28.8808 67.4801 35.0951 67.4801C41.3093 67.4801 46.9752 64.9213 50.9962 60.9003C55.1086 56.7879 57.576 51.2134 57.576 44.9991C57.576 39.4246 55.4741 34.3984 52.0928 30.4688L58.5813 23.9804C63.6075 29.5549 66.6232 36.9572 66.6232 44.9991ZM41.5835 44.9991C41.5835 46.8269 40.8524 48.4718 39.6644 49.5684L39.573 49.6598C38.3849 50.7565 36.8314 51.4876 35.0037 51.4876C33.1759 51.4876 31.531 50.7565 30.4344 49.5684C29.2463 48.3804 28.5153 46.7355 28.5153 44.9991C28.5153 43.1714 29.2463 41.5265 30.4344 40.4298C31.6224 39.2418 33.2673 38.5107 35.0037 38.5107C36.1917 38.5107 37.1969 38.8763 38.1108 39.4246L33.7243 43.8111C33.0846 44.4508 33.0846 45.6388 33.7243 46.2785C34.364 46.9183 35.552 46.9183 36.1917 46.2785L40.5782 41.892C41.2179 42.8059 41.5835 43.9025 41.5835 44.9991ZM40.761 36.7744C39.116 35.6778 37.1969 34.9467 35.0037 34.9467C32.2621 34.9467 29.7033 36.0433 27.8756 37.871C26.0478 39.6988 24.9512 42.1662 24.9512 44.9991C24.9512 47.7407 26.0478 50.2995 27.8756 52.1273C29.7033 53.955 32.1707 55.0516 35.0037 55.0516C37.7452 55.0516 40.2127 53.955 41.949 52.2186L42.0404 52.1273C43.8681 50.2995 44.9647 47.8321 44.9647 44.9991C44.9647 42.8973 44.325 40.8868 43.137 39.2418L49.4427 32.9362C52.1842 36.2261 53.9206 40.4298 53.9206 44.9991C53.9206 50.2081 51.8187 54.9602 48.346 58.4329C44.8734 61.9056 40.1213 64.0074 34.9123 64.0074C29.7033 64.0074 24.9512 61.9056 21.4785 58.4329C18.0059 54.9602 15.904 50.2081 15.904 44.9991C15.904 39.7901 18.0059 35.0381 21.4785 31.5654C24.9512 28.0927 29.7033 25.9909 34.9123 25.9909C39.4816 25.9909 43.6853 27.7272 46.9752 30.4688L40.761 36.7744ZM71.7408 16.1212L64.3386 15.7556L63.973 8.35335L70.4614 4.60653L70.9184 7.71365C71.0098 8.53612 71.6495 9.08444 72.4719 9.17583L75.5791 9.63276L71.7408 16.1212Z" fill="#231F20"/>
</g>
<defs>
<clipPath id="clip0">
<rect width="80" height="80" fill="white"/>
</clipPath>
</defs>
</svg>
