<svg width="80" height="80" viewBox="0 0 80 80" fill="none" xmlns="http://www.w3.org/2000/svg">
<g clip-path="url(#clip0)">
<path d="M75.3634 40.8061C75.3634 52.4612 69.7311 62.8008 61.0405 69.2541L48.5835 73.5792L46.1533 72.5605L8.28376 56.6926C6.8147 53.7737 5.73955 50.6251 5.12376 47.3126L13.2675 25.2226L36.0827 7.58296L37.5111 6.47827L45.4281 5.81421C49.11 6.38608 52.6045 7.52515 55.8175 9.13936L75.2416 39.3389L75.3525 40.3233L75.3619 40.6545C75.3619 40.703 75.3634 40.7545 75.3634 40.8061Z" fill="#3DC1EC"/>
<path d="M75.3633 40.8061C75.3633 52.4612 69.7309 62.8008 61.0403 69.2541L48.5833 73.5792L46.1531 72.5605C59.7197 68.3791 69.5794 55.7426 69.5794 40.8061C69.5794 22.4569 54.7016 7.5814 36.3497 7.5814C36.2606 7.5814 36.1716 7.5814 36.0825 7.58296L37.5109 6.47827L45.428 5.81421C49.1098 6.38608 52.6044 7.52515 55.8173 9.13936L75.2414 39.3389L75.3523 40.3233L75.3617 40.6545C75.3617 40.703 75.3633 40.7545 75.3633 40.8061Z" fill="#68A6DC"/>
<path d="M45.4282 5.81412C44.0341 6.57975 42.8402 7.31725 41.8213 8.02975C31.9507 14.9176 38.2879 19.424 35.7405 24.2788C32.5618 30.3354 20.2518 26.5101 17.2449 28.8602C13.2332 31.9947 17.2449 44.8358 5.12395 47.3126C4.73176 45.203 4.52692 43.028 4.52692 40.806C4.52692 29.8743 9.48098 20.099 17.2668 13.6033C23.41 8.47662 31.3163 5.39209 39.9444 5.39209C41.8086 5.39225 43.6402 5.536 45.4282 5.81412Z" fill="white"/>
<path d="M46.282 50.2973C45.1662 52.8502 37.1067 52.2673 35.1364 50.2973C33.1661 48.3273 32.5622 40.2194 35.1364 39.1534C38.777 37.6455 47.8598 46.6869 46.282 50.2973Z" fill="#B73A46"/>
<path d="M61.0404 69.2542C55.1487 73.6293 47.8488 76.2185 39.9443 76.2185C31.324 76.2185 23.424 73.1402 17.2838 68.0213C13.5582 64.9181 10.4826 61.0632 8.28366 56.6927C22.2379 56.6927 13.6127 47.3127 20.0827 47.3127C28.728 47.3127 27.6123 61.346 32.3351 63.7837C37.0001 66.1932 40.4851 61.146 47.1176 61.146C52.156 61.146 52.2107 65.5368 55.6473 67.8573C56.8802 68.6885 58.5493 69.2542 61.0404 69.2542Z" fill="white"/>
<path d="M75.3618 40.6545C75.2727 37.8325 72.6613 39.0483 69.531 39.003C67.2337 38.9702 64.6566 38.2561 62.5923 34.77C57.7335 26.5635 46.1188 32.6542 46.1188 22.5196C46.1188 16.885 53.478 21.5024 55.3752 13.563C55.6565 12.388 55.8176 10.9378 55.8176 9.1394C67.3666 14.9364 75.3055 26.865 75.3618 40.6545Z" fill="#D0EDF5"/>
<path d="M36.3497 7.5814C29.2485 7.5814 22.666 9.80968 17.2664 13.6036C23.4097 8.47687 31.316 5.39233 39.9441 5.39233C41.8085 5.39233 43.6401 5.53608 45.4279 5.81421C44.0338 6.57983 42.8399 7.31733 41.821 8.02983C40.041 7.73452 38.2141 7.5814 36.3497 7.5814Z" fill="#9CCC4B"/>
<path d="M55.6472 67.8574C56.8802 68.6887 58.5492 69.2543 61.0403 69.2543C55.1486 73.6295 47.8488 76.2187 39.9442 76.2187C31.3239 76.2187 23.4239 73.1404 17.2838 68.0215C22.68 71.8091 29.2547 74.031 36.3498 74.031C43.5448 74.031 50.207 71.7435 55.6472 67.8574Z" fill="#9CCC4B"/>
<path d="M75.3616 40.6545C75.2725 37.8325 72.6611 39.0483 69.5308 39.003C68.9682 28.4744 63.5016 19.2475 55.375 13.563C55.6563 12.388 55.8174 10.9378 55.8174 9.1394C67.3665 14.9364 75.3054 26.865 75.3616 40.6545Z" fill="#A6DFF5"/>
<path d="M28.513 12.3834C28.513 14.3489 26.9177 15.944 24.9519 15.944H6.02647C3.34538 15.944 1.17241 13.77 1.17241 11.0892C1.17241 8.4098 3.34538 6.23574 6.02647 6.23574C7.1435 6.23574 8.17257 6.61324 8.99288 7.24762C9.61163 3.79355 12.6321 1.1709 16.2641 1.1709C17.9177 1.1709 19.4463 1.71449 20.6782 2.63262C22.4821 3.97934 23.6516 6.13215 23.6516 8.55746C23.6516 8.73059 23.646 8.90371 23.6346 9.07402C24.0419 8.9123 24.4862 8.82277 24.9518 8.82277C26.9177 8.82293 28.513 10.4165 28.513 12.3834Z" fill="#E6F8FC"/>
<path d="M28.513 12.3834C28.513 14.3488 26.9177 15.944 24.9519 15.944H6.02647C3.34538 15.944 1.17241 13.7699 1.17241 11.0891C1.17241 12.4216 2.82022 13.6223 4.15163 13.6223H14.6816C18.609 13.584 21.7798 10.388 21.7798 6.45288C21.7798 5.04788 21.3766 3.73804 20.6783 2.63257C22.4823 3.97929 23.6518 6.1321 23.6518 8.55741C23.6518 8.73054 23.6462 8.90366 23.6348 9.07398C24.0421 8.91226 24.4863 8.82272 24.9519 8.82272C26.9177 8.82288 28.513 10.4165 28.513 12.3834Z" fill="#D0EDF5"/>
<path d="M78.8282 57.5477C78.8282 59.1182 77.5536 60.3925 75.9829 60.3925H60.8618C58.7197 60.3925 56.9834 58.6555 56.9834 56.5136C56.9834 54.3729 58.7197 52.6358 60.8618 52.6358C61.7543 52.6358 62.5765 52.9374 63.232 53.4443C63.7264 50.6844 66.1396 48.5891 69.0415 48.5891C70.3626 48.5891 71.584 49.0233 72.5684 49.7569C74.0098 50.833 74.9442 52.553 74.9442 54.4908C74.9442 54.6291 74.9397 54.7675 74.9306 54.9035C75.2561 54.7743 75.6111 54.7029 75.9829 54.7029C77.5537 54.7029 78.8282 55.9761 78.8282 57.5477Z" fill="#E6F8FC"/>
<path d="M78.8282 57.5476C78.8282 59.1181 77.5536 60.3925 75.9829 60.3925H60.8618C58.7197 60.3925 56.9834 58.6554 56.9834 56.5136C56.9834 57.5782 58.3 58.5375 59.3637 58.5375H67.777C70.9148 58.5068 73.4482 55.9534 73.4482 52.8092C73.4482 51.6867 73.1262 50.6401 72.5682 49.7568C74.0097 50.8329 74.944 52.5529 74.944 54.4907C74.944 54.629 74.9395 54.7675 74.9304 54.9034C75.2559 54.7742 75.6109 54.7028 75.9828 54.7028C77.5537 54.7028 78.8282 55.9761 78.8282 57.5476Z" fill="#D0EDF5"/>
<path d="M66.4714 66.0119C66.9173 65.543 66.8987 64.8011 66.4298 64.355C65.9607 63.9091 65.219 63.9277 64.7729 64.3966C63.494 65.7415 62.1231 66.9702 60.667 68.0785C56.4826 67.9704 55.1445 66.0611 53.7303 64.0432C52.3937 62.136 50.8789 59.9744 47.1189 59.9744C43.9215 59.9744 41.4557 61.0347 39.2803 61.9702C36.7759 63.0471 34.9667 63.8252 32.8717 62.744C31.3959 61.9822 30.5073 59.3274 29.5667 56.5168C28.0195 51.8943 26.094 46.1415 20.0795 46.1415C16.3904 46.1415 16.1411 48.8096 15.9761 50.5752C15.7464 53.0327 15.529 55.3583 8.99262 55.514C7.88168 53.1818 7.04059 50.7277 6.48559 48.1904C14.095 46.0913 15.2396 39.7782 16.0859 35.1111C16.5056 32.7971 16.9018 30.6115 17.9621 29.7829C18.7339 29.1799 21.1439 29.1572 22.1729 29.1475C22.8201 29.1415 23.3398 28.6119 23.3337 27.9647C23.3276 27.3213 22.8042 26.8038 22.1621 26.8038C22.1584 26.8038 22.1546 26.8038 22.1509 26.8038C19.537 26.8283 17.6832 27.0263 16.5192 27.936C14.7551 29.3144 14.2814 31.9269 13.7798 34.693C12.9775 39.1179 12.0745 44.0985 6.06184 45.8727C5.81652 44.2097 5.69168 42.5171 5.69168 40.8054C5.69168 33.8144 7.78481 27.0913 11.7446 21.3625C12.1126 20.8302 11.9793 20.1002 11.447 19.7322C10.9146 19.3641 10.1846 19.4974 9.81668 20.0299C5.58481 26.1521 3.34793 33.3361 3.34793 40.8054C3.34793 50.578 7.15481 59.7658 14.0671 66.6761C20.9795 73.5863 30.1698 77.3919 39.9453 77.3919C45.0484 77.3919 49.9868 76.3618 54.6236 74.33C59.1017 72.368 63.0879 69.5693 66.4714 66.0119ZM39.9453 75.0483C30.7957 75.0483 22.1939 71.4865 15.7242 65.0188C13.5403 62.8355 11.6875 60.4093 10.1912 57.8011C13.1779 57.586 15.2728 56.834 16.5653 55.5197C18.0046 54.0561 18.1737 52.2471 18.3096 50.7933C18.4912 48.851 18.5729 48.4854 20.0795 48.4854C24.1059 48.4854 25.57 51.9599 27.3442 57.2608C28.4403 60.5355 29.4754 63.6286 31.7968 64.8268C34.8751 66.4157 37.4645 65.3022 40.2062 64.1235C42.2701 63.236 44.4042 62.3183 47.119 62.3183C49.6595 62.3183 50.562 63.6061 51.8111 65.3885C53.0364 67.1369 54.495 69.2182 57.7748 70.0535C56.4662 70.8513 55.1009 71.5624 53.6829 72.1838C49.3446 74.0844 44.7226 75.0483 39.9453 75.0483Z" fill="#231F20"/>
<path d="M31.0306 7.73386C33.922 6.95683 36.9214 6.56292 39.9453 6.56292C40.5695 6.56292 41.1926 6.57995 41.814 6.61386C38.7914 8.6087 36.852 10.5703 35.8048 12.6646C34.5581 15.1582 34.8253 17.3668 35.0611 19.3153C35.2583 20.9448 35.4286 22.3521 34.7033 23.7335C33.7514 25.5464 31.6572 26.4676 27.9131 26.7203C27.2673 26.7639 26.7792 27.3226 26.8228 27.9684C26.8645 28.5873 27.3795 29.0615 27.9909 29.0615C28.0173 29.0615 28.044 29.0606 28.0709 29.0587C30.9564 28.864 34.9984 28.2129 36.7784 24.8231C37.8431 22.7951 37.6117 20.8829 37.3879 19.0337C37.1728 17.2556 36.9695 15.576 37.9012 13.7126C38.9958 11.5235 41.5286 9.33776 45.6387 7.03761C48.7558 7.56105 51.7872 8.5123 54.6398 9.8662C54.4656 16.5743 51.8503 17.2371 49.3184 17.8789C47.3717 18.3723 44.9487 18.9862 44.9487 22.519C44.9487 28.9726 49.3384 29.8956 53.2114 30.7098C56.3672 31.3734 59.6304 32.0595 61.5894 35.3671C64.7522 40.7076 69.2356 40.2929 71.9142 40.0451C72.6808 39.974 73.8392 39.867 74.0636 40.0715C74.064 40.072 74.1201 40.0884 74.1925 40.136C74.1967 40.3589 74.1989 40.5821 74.1989 40.8056C74.1989 42.3223 74.0987 43.8478 73.9014 45.3398C73.8165 45.9814 74.2678 46.5704 74.9093 46.6553C74.9615 46.6621 75.0134 46.6656 75.0645 46.6656C75.6434 46.6656 76.1469 46.2367 76.2248 45.6473C76.4358 44.0537 76.5426 42.4246 76.5426 40.8056C76.5426 36.0939 75.6592 31.5067 73.9169 27.1718C73.6756 26.5714 72.9931 26.2804 72.3925 26.5215C71.792 26.7629 71.5008 27.4454 71.7422 28.0459C72.9815 31.1295 73.7564 34.3503 74.0565 37.6556C73.3351 37.56 72.5294 37.6345 71.6981 37.7114C69.0333 37.9581 66.0128 38.2373 63.6058 34.1729C61.1215 29.9781 57.0028 29.1121 53.6934 28.4164C49.4872 27.532 47.2923 26.8679 47.2923 22.519C47.2923 20.8829 47.8745 20.6626 49.894 20.1507C52.5109 19.4876 56.3664 18.5106 56.9243 11.059C57.0093 11.1076 57.0942 11.1565 57.1789 11.2059C62.2353 14.1546 66.482 18.3768 69.4595 23.416C69.6783 23.7862 70.0686 23.992 70.4695 23.992C70.6722 23.992 70.8775 23.9395 71.0647 23.8289C71.6219 23.4996 71.8067 22.781 71.4775 22.2239C68.297 16.8412 63.7609 12.3312 58.3597 9.18151C52.7931 5.93526 46.4256 4.21948 39.9453 4.21948C36.7161 4.21948 33.5122 4.64042 30.4223 5.47073C29.7973 5.6387 29.4267 6.28151 29.5947 6.90651C29.7626 7.53136 30.4053 7.90151 31.0306 7.73386Z" fill="#231F20"/>
<path d="M76.0518 53.5319C75.5823 50.0839 72.6178 47.4185 69.0423 47.4185C66.1431 47.4185 63.6028 49.166 62.5204 51.7419C61.9936 51.5591 61.4358 51.465 60.8622 51.465C58.0773 51.465 55.8117 53.7302 55.8117 56.5144C55.8117 59.2986 58.0773 61.5638 60.8622 61.5638H66.7936C67.4408 61.5638 67.9654 61.0391 67.9654 60.3919C67.9654 59.7447 67.4408 59.22 66.7936 59.22H60.8622C59.3697 59.22 58.1554 58.0063 58.1554 56.5144C58.1554 55.0225 59.3697 53.8088 60.8622 53.8088C61.4672 53.8088 62.0389 54.0036 62.5156 54.372C62.8398 54.6227 63.2714 54.6856 63.6536 54.5383C64.0359 54.391 64.3136 54.0546 64.3858 53.6513C64.7892 51.3978 66.7475 49.7622 69.0423 49.7622C71.6508 49.7622 73.7729 51.8836 73.7729 54.4911C73.7729 54.601 73.769 54.7127 73.7614 54.8233C73.7336 55.2252 73.9142 55.6133 74.2397 55.8508C74.5651 56.0883 74.9895 56.1421 75.3642 55.993C75.5606 55.9147 75.7689 55.875 75.9831 55.875C76.9058 55.875 77.6564 56.6253 77.6564 57.5475C77.6564 58.4697 76.9058 59.22 75.9831 59.22H72.1968C71.5497 59.22 71.025 59.7447 71.025 60.3919C71.025 61.0391 71.5497 61.5638 72.1968 61.5638H75.9831C78.1981 61.5638 80.0001 59.7621 80.0001 57.5475C80.0001 55.3558 78.2353 53.5686 76.0518 53.5319Z" fill="#231F20"/>
<path d="M6.02641 17.1144H9.90859C10.5558 17.1144 11.0805 16.5897 11.0805 15.9425C11.0805 15.2953 10.5558 14.7706 9.90859 14.7706H6.02641C3.99578 14.7706 2.34375 13.1192 2.34375 11.0895C2.34375 9.05984 3.99578 7.40828 6.02641 7.40828C6.84922 7.40828 7.62719 7.67344 8.27625 8.175C8.60031 8.42547 9.03156 8.48859 9.41422 8.34109C9.79656 8.19375 10.0741 7.8575 10.1464 7.45406C10.6764 4.49297 13.2494 2.34375 16.2645 2.34375C19.6919 2.34375 22.4803 5.13109 22.4803 8.55719C22.4803 8.70078 22.4752 8.84766 22.4652 8.99344C22.4373 9.39531 22.618 9.78344 22.9434 10.0209C23.2689 10.2584 23.6934 10.3122 24.068 10.163C24.3486 10.0512 24.6459 9.99453 24.9517 9.99453C26.2691 9.99453 27.3409 11.0658 27.3409 12.3827C27.3409 13.6995 26.2692 14.7706 24.9517 14.7706H15.3523C14.7052 14.7706 14.1805 15.2953 14.1805 15.9425C14.1805 16.5897 14.7052 17.1144 15.3523 17.1144H24.9516C27.5613 17.1144 29.6845 14.9917 29.6845 12.3827C29.6845 9.77344 27.5614 7.65078 24.9516 7.65078C24.8931 7.65078 24.8348 7.65188 24.7767 7.65391C24.3239 3.35844 20.6792 0 16.2645 0C12.6589 0 9.51219 2.23344 8.26828 5.49359C7.56328 5.21063 6.80703 5.06453 6.02625 5.06453C2.70344 5.06453 0 7.76734 0 11.0895C0 14.4117 2.70344 17.1144 6.02641 17.1144Z" fill="#231F20"/>
<path d="M6.30672 77.6562H1.17188C0.524687 77.6562 0 78.1809 0 78.8281C0 79.4753 0.524687 80 1.17188 80H6.30672C6.95391 80 7.47859 79.4753 7.47859 78.8281C7.47859 78.1809 6.95391 77.6562 6.30672 77.6562Z" fill="#231F20"/>
<path d="M22.4067 77.6562H11.801C11.1539 77.6562 10.6292 78.1809 10.6292 78.8281C10.6292 79.4753 11.1539 80 11.801 80H22.4067C23.0539 80 23.5785 79.4753 23.5785 78.8281C23.5785 78.1809 23.0539 77.6562 22.4067 77.6562Z" fill="#231F20"/>
<path d="M14.1223 74.9995C14.7695 74.9995 15.2942 74.4748 15.2942 73.8276C15.2942 73.1804 14.7695 72.6558 14.1223 72.6558H4.29828C3.65109 72.6558 3.1264 73.1804 3.1264 73.8276C3.1264 74.4748 3.65109 74.9995 4.29828 74.9995H14.1223Z" fill="#231F20"/>
<path d="M64.8486 77.6562H55.0244C54.3772 77.6562 53.8525 78.1809 53.8525 78.8281C53.8525 79.4753 54.3772 80 55.0244 80H64.8486C65.4958 80 66.0204 79.4753 66.0204 78.8281C66.0204 78.1809 65.4958 77.6562 64.8486 77.6562Z" fill="#231F20"/>
<path d="M78.8279 72.6558H64.3145C63.6673 72.6558 63.1426 73.1804 63.1426 73.8276C63.1426 74.4748 63.6673 74.9995 64.3145 74.9995H78.8279C79.4751 74.9995 79.9998 74.4748 79.9998 73.8276C79.9998 73.1804 79.4751 72.6558 78.8279 72.6558Z" fill="#231F20"/>
<path d="M57.5931 2.34375H62.728C63.3752 2.34375 63.8998 1.81906 63.8998 1.17188C63.8998 0.524687 63.3752 0 62.728 0H57.5931C56.9459 0 56.4212 0.524687 56.4212 1.17188C56.4212 1.81906 56.9459 2.34375 57.5931 2.34375Z" fill="#231F20"/>
<path d="M68.2225 2.34375H78.8281C79.4753 2.34375 80 1.81906 80 1.17188C80 0.524687 79.4753 0 78.8281 0H68.2225C67.5753 0 67.0506 0.524687 67.0506 1.17188C67.0506 1.81906 67.5751 2.34375 68.2225 2.34375Z" fill="#231F20"/>
<path d="M62.2828 5.00024C61.6356 5.00024 61.1109 5.52493 61.1109 6.17212C61.1109 6.81931 61.6356 7.34399 62.2828 7.34399H72.107C72.7542 7.34399 73.2789 6.81931 73.2789 6.17212C73.2789 5.52493 72.7542 5.00024 72.107 5.00024H62.2828Z" fill="#231F20"/>
<path d="M39.2693 38.76C37.4485 37.7982 35.9069 37.5665 34.688 38.0713C33.9219 38.3885 32.916 39.2335 32.4737 41.4572C31.8724 44.48 32.5427 49.3625 34.3079 51.1272C35.6493 52.4683 38.7313 53.1725 41.4788 53.1725C42.3288 53.1725 43.1473 53.105 43.8716 52.9682C46.146 52.5385 47.0227 51.5344 47.3579 50.7677C48.4399 48.2924 46.1596 44.6921 43.6648 42.1482C42.2655 40.7216 40.7046 39.5183 39.2693 38.76ZM45.2104 49.8289C45.1002 50.0808 44.5696 50.451 43.4365 50.665C40.7176 51.1785 36.9226 50.4269 35.9649 49.4696C34.8282 48.3333 34.3212 44.1829 34.7724 41.9143C34.9871 40.8354 35.3441 40.3361 35.5848 40.2366C35.7174 40.1818 35.8777 40.1544 36.0624 40.1544C37.3013 40.1544 39.6338 41.385 41.9915 43.7891C44.6237 46.4733 45.6144 48.9044 45.2104 49.8289Z" fill="#231F20"/>
</g>
<defs>
<clipPath id="clip0">
<rect width="80" height="80" fill="white"/>
</clipPath>
</defs>
</svg>
