<svg width="30" height="31" viewBox="0 0 30 31" fill="none" xmlns="http://www.w3.org/2000/svg">
<g clip-path="url(#clip0)">
<path d="M29.6563 14.1822C29.6559 14.1819 29.6556 14.1814 29.6552 14.1811L23.532 8.08734C23.0732 7.63084 22.3312 7.63253 21.8746 8.09132C21.4181 8.55005 21.4198 9.29203 21.8786 9.74859L25.9897 13.8398L1.17188 13.8398C0.524648 13.8398 0 14.3645 0 15.0117C0 15.6589 0.524648 16.1836 1.17188 16.1836L25.9897 16.1836L21.8786 20.2748C21.4199 20.7314 21.4181 21.4734 21.8747 21.9321C22.3313 22.391 23.0733 22.3925 23.532 21.9361L29.6553 15.8423C29.6556 15.842 29.6559 15.8416 29.6563 15.8412C30.1153 15.3831 30.1138 14.6388 29.6563 14.1822Z" fill="white"/>
</g>
<defs>
<clipPath id="clip0">
<rect width="30" height="30" fill="white" transform="translate(0 0.0117188)"/>
</clipPath>
</defs>
</svg>
