<svg width="20" height="40" viewBox="0 0 20 40" fill="none" xmlns="http://www.w3.org/2000/svg">
<path d="M11.106 39.5412C11.1065 39.5408 11.107 39.5404 11.1075 39.5398L19.2325 31.3755C19.8412 30.7638 19.8389 29.7745 19.2272 29.1657C18.6156 28.5569 17.6263 28.5593 17.0175 29.1709L11.5625 34.6525L11.5625 1.56201C11.5625 0.699043 10.863 -0.000488667 10 -0.000488705C9.13704 -0.000488742 8.43751 0.699043 8.43751 1.56201L8.4375 34.6524L2.9825 29.171C2.37376 28.5594 1.38446 28.557 0.772816 29.1658C0.161021 29.7746 0.158911 30.764 0.767504 31.3755L8.8925 39.5399C8.89297 39.5404 8.89352 39.5408 8.89399 39.5413C9.50477 40.1533 10.4973 40.1513 11.106 39.5412Z" fill="white"/>
</svg>
