<svg width="60" height="58" viewBox="0 0 60 58" fill="none" xmlns="http://www.w3.org/2000/svg">
<path d="M38.2677 2.93701H21.0236V4.16064H38.2677V2.93701Z" fill="#4185BD"/>
<path d="M34.9606 43.561H25.0394V35.485L2.83466 24.2277V55.0631H57.1654V24.2277L34.9606 35.485V43.561Z" fill="white"/>
<path d="M2.83466 12.2363V21.0465L25.0394 32.3038V29.6119H34.9606V32.3038L57.1654 21.0465V12.2363H41.1024H18.189H2.83466Z" fill="#B73A46"/>
<path d="M31.4174 37.4429V34.0167H28.5827V37.4429V38.9112H31.4174V37.4429Z" fill="#231F20"/>
<path d="M41.1024 0H18.189V9.29958H0V58H60V9.29958H41.1024V0ZM21.0236 2.93671H38.2677V4.16034H21.0236V2.93671ZM57.1654 55.0633H2.83465V24.2278L25.0394 35.4852V43.3165H35.1968V35.4852L57.4016 24.2278V55.0633H57.1654ZM27.874 33.7722V32.5485H32.3622V33.7722V36.9536V40.3797H27.874V36.9536V33.7722ZM57.1654 12.2363V20.8017L34.9606 32.0591V29.3671H24.8032V32.0591L2.83465 21.0464V12.2363H18.189H41.1024H57.1654ZM21.0236 9.29958V7.09705H38.2677V9.29958H21.0236Z" fill="#231F20"/>
</svg>
