<svg width="370" height="370" viewBox="0 0 370 370" fill="none" xmlns="http://www.w3.org/2000/svg">
<path d="M370 185C370 209.295 365.215 233.351 355.918 255.796C346.621 278.242 332.994 298.636 315.815 315.815C298.636 332.994 278.242 346.621 255.796 355.918C233.351 365.215 209.295 370 185 370V351.5C206.865 351.5 228.516 347.193 248.717 338.826C268.917 330.459 287.272 318.194 302.733 302.733C318.194 287.272 330.459 268.918 338.826 248.717C347.193 228.516 351.5 206.865 351.5 185H370Z" fill="#B73A46"/>
<path d="M185 370C152.801 370 121.159 361.596 93.2034 345.619C65.2477 329.642 41.9461 306.645 25.6026 278.901C9.25906 251.158 0.439532 219.63 0.0160042 187.433C-0.407524 155.237 7.57962 123.487 23.1877 95.324L39.369 104.292C25.3217 129.639 18.1332 158.213 18.5144 187.19C18.8956 216.167 26.8332 244.542 41.5423 269.511C56.2515 294.48 77.2229 315.177 102.383 329.557C127.543 343.936 156.021 351.5 185 351.5L185 370Z" fill="white"/>
<path d="M21.5296 98.3834C40.9408 61.7489 72.0951 32.6964 109.994 15.8872C147.893 -0.921951 190.34 -4.51351 230.525 5.68879C270.709 15.8911 306.302 39.2959 331.593 72.148C356.883 105 370.406 145.395 369.991 186.853L351.492 186.668C351.865 149.356 339.695 113 316.933 83.4332C294.172 53.8663 262.138 32.802 225.972 23.6199C189.806 14.4378 151.604 17.6702 117.495 32.7985C83.3856 47.9268 55.3467 74.074 37.8766 107.045L21.5296 98.3834Z" fill="#024DA1"/>
</svg>
