<svg width="15" height="15" viewBox="0 0 15 15" fill="none" xmlns="http://www.w3.org/2000/svg">
<g clip-path="url(#clip0)">
<path d="M8.32843 7.50099L14.8281 1.00126C15.057 0.772427 15.057 0.401412 14.8281 0.172604C14.5993 -0.0562035 14.2283 -0.0562328 13.9995 0.172604L7.49974 6.67233L1.00004 0.172604C0.771206 -0.0562328 0.400192 -0.0562328 0.171384 0.172604C-0.0574242 0.401442 -0.0574534 0.772456 0.171384 1.00126L6.67108 7.50096L0.171384 14.0007C-0.0574534 14.2295 -0.0574534 14.6005 0.171384 14.8293C0.285788 14.9438 0.435758 15.0009 0.585728 15.0009C0.735698 15.0009 0.88564 14.9438 1.00007 14.8293L7.49974 8.32965L13.9994 14.8293C14.1138 14.9438 14.2638 15.0009 14.4138 15.0009C14.5638 15.0009 14.7137 14.9438 14.8281 14.8293C15.057 14.6005 15.057 14.2295 14.8281 14.0007L8.32843 7.50099Z" fill="#7DD2FF"/>
</g>
<defs>
<clipPath id="clip0">
<rect width="15" height="15" fill="white"/>
</clipPath>
</defs>
</svg>
