<svg width="30" height="30" viewBox="0 0 30 30" fill="none" xmlns="http://www.w3.org/2000/svg">
<g clip-path="url(#clip0)">
<path d="M19.3307 0.173264C19.1932 0.0283815 19.0046 -0.0585938 18.8091 -0.0585938H7.10612C4.94662 -0.0585938 3.16409 1.71685 3.16409 3.87612V26.0065C3.16409 28.166 4.94662 29.9415 7.10612 29.9415H22.9901C25.1496 29.9415 26.9321 28.166 26.9321 26.0065V8.43408C26.9321 8.24571 26.8452 8.06467 26.722 7.92688L19.3307 0.173264ZM19.5408 2.49939L24.4902 7.69502H21.2728C20.3163 7.69502 19.5408 6.92689 19.5408 5.97039V2.49939ZM22.9901 28.4922H7.10612C5.75114 28.4922 4.61337 27.3691 4.61337 26.0065V3.87612C4.61337 2.52114 5.74382 1.39069 7.10612 1.39069H18.0916V5.97039C18.0916 7.73118 19.512 9.1443 21.2728 9.1443H25.4829V26.0065C25.4829 27.3691 24.3524 28.4922 22.9901 28.4922Z" fill="white"/>
<path d="M21.0118 23.4922H9.08432C8.68584 23.4922 8.35968 23.8181 8.35968 24.2168C8.35968 24.6153 8.68584 24.9415 9.08432 24.9415H21.0192C21.4176 24.9415 21.7438 24.6153 21.7438 24.2168C21.7438 23.8181 21.4176 23.4922 21.0118 23.4922Z" fill="white"/>
<path d="M14.5191 20.8907C14.6569 21.0356 14.8453 21.1225 15.0481 21.1225C15.2511 21.1225 15.4395 21.0356 15.577 20.8907L19.8235 16.3327C20.0988 16.0427 20.0771 15.579 19.7873 15.311C19.4973 15.0357 19.0336 15.0572 18.7656 15.3472L15.7727 18.5572V10.6443C15.7727 10.2456 15.4465 9.91968 15.0481 9.91968C14.6496 9.91968 14.3234 10.2456 14.3234 10.6443V18.5572L11.3379 15.3472C11.0625 15.0574 10.6059 15.0357 10.3162 15.311C10.0264 15.5863 10.0046 16.043 10.28 16.3327L14.5191 20.8907Z" fill="white"/>
</g>
<defs>
<clipPath id="clip0">
<rect width="30" height="30" fill="white"/>
</clipPath>
</defs>
</svg>
