<svg width="1064" height="837" viewBox="0 0 1064 837" fill="none" xmlns="http://www.w3.org/2000/svg">
<circle cx="333" cy="733" r="568" fill="#00AEEF" fill-opacity="0.5"/>
<circle cx="323" cy="743" r="505" fill="#00AEEF"/>
<g clip-path="url(#clip0)">
<path d="M821.752 583.983L750.99 583.483L814.122 264.755L884.885 265.255L821.752 583.983Z" fill="#2F6CAD"/>
<path d="M822.513 585.656L751.668 584.805L647.918 530.178L718.33 530.761L822.513 585.656Z" fill="#001E38"/>
<path d="M671.256 764.651L600.844 764.069L647.157 528.505L718.002 529.356L671.256 764.651Z" fill="#2F6CAD"/>
<path d="M672.016 766.325L601.171 765.473L489.795 706.704L560.64 707.556L672.016 766.325Z" fill="#001E38"/>
<path d="M508.681 969.616L437.919 969.116L489.117 705.382L559.88 705.882L508.681 969.616Z" fill="#2F6CAD"/>
<path d="M884.884 265.256L822.512 585.657L718.329 530.761L672.016 766.325L560.64 707.556L508.681 969.617L559.879 705.883L671.255 764.652L718.001 529.357L821.751 583.983L884.884 265.256Z" fill="#2F6CAD"/>
<path d="M743.562 296.789L936.709 298.689L865.207 174.697L743.562 296.789Z" fill="#2F6CAD"/>
<path d="M444.214 555.922L373.802 555.34L436.935 236.612L507.346 237.194L444.214 555.922Z" fill="#B73A46"/>
<path d="M444.975 557.595L374.563 557.013L270.731 502.035L341.225 502.969L444.975 557.595Z" fill="#6D262D"/>
<path d="M293.718 736.59L223.307 736.008L270.053 500.713L340.465 501.295L293.718 736.59Z" fill="#B73A46"/>
<path d="M294.478 738.264L224.066 737.682L112.69 678.913L183.102 679.495L294.478 738.264Z" fill="#6D262D"/>
<path d="M131.143 941.555L60.7315 940.973L111.93 677.239L182.342 677.821L131.143 941.555Z" fill="#B73A46"/>
<path d="M507.347 237.194L444.975 557.596L341.225 502.969L294.478 738.264L183.103 679.495L131.143 941.555L182.342 677.821L293.718 736.59L340.464 501.296L444.214 555.922L507.347 237.194Z" fill="#B73A46"/>
<path d="M366.457 268.997L559.171 270.628L487.669 146.636L366.457 268.997Z" fill="#B73A46"/>
<path d="M647.831 518.721L565.539 517.952L639.367 145.26L721.658 146.03L647.831 518.721Z" fill="white"/>
<path d="M648.673 520.746L566.382 519.977L444.866 455.801L527.508 456.488L648.673 520.746Z" fill="#B3B3B3"/>
<path d="M471.964 730.123L389.673 729.354L444.105 454.128L526.396 454.897L471.964 730.123Z" fill="white"/>
<path d="M472.726 731.797L390.434 731.027L260.077 662.253L342.801 663.291L472.726 731.797Z" fill="#B3B3B3"/>
<path d="M281.953 969.637L199.662 968.868L259.315 660.58L341.958 661.267L281.953 969.637Z" fill="white"/>
<path d="M721.658 146.029L648.673 520.746L527.508 456.488L472.726 731.796L342.801 663.291L281.954 969.637L341.958 661.267L471.965 730.123L526.396 454.896L647.83 518.721L721.658 146.029Z" fill="white"/>
<path d="M556.837 183.053L782.22 185.197L698.805 40.2917L556.837 183.053Z" fill="white"/>
</g>
<defs>
<clipPath id="clip0">
<rect width="999.124" height="861.706" fill="white" transform="translate(-105.771 228.254) rotate(-13.1494)"/>
</clipPath>
</defs>
</svg>
