<svg width="80" height="80" viewBox="0 0 80 80" fill="none" xmlns="http://www.w3.org/2000/svg">
<path d="M63.8273 79.0001H7.8963V6.51733H45.1028L63.8273 25.2419V79.0001Z" fill="#00AEEF" stroke="#231F20" stroke-width="2"/>
<path d="M72.103 70.7241H16.172V1H53.3785L72.103 19.7246V70.7241Z" fill="white" stroke="#231F20" stroke-width="2"/>
<path d="M54.7932 2.41421L70.6894 18.3103H54.7932V2.41421Z" fill="white" stroke="#231F20" stroke-width="2"/>
<path d="M26.2069 60.6898H23.4482C22.6865 60.6898 22.0689 60.0722 22.0689 59.3105C22.0689 58.5487 22.6865 57.9312 23.4482 57.9312H26.2069C26.9686 57.9312 27.5862 58.5487 27.5862 59.3105C27.5862 60.0722 26.9686 60.6898 26.2069 60.6898Z" fill="#B73A46"/>
<path d="M64.8278 60.6898H31.7244C30.9626 60.6898 30.345 60.0722 30.345 59.3105C30.345 58.5487 30.9626 57.9312 31.7244 57.9312H64.8278C65.5895 57.9312 66.2071 58.5487 66.2071 59.3105C66.2071 60.0722 65.5895 60.6898 64.8278 60.6898Z" fill="#B73A46"/>
<path d="M26.2069 52.4137H23.4482C22.6865 52.4137 22.0689 51.7961 22.0689 51.0343C22.0689 50.2726 22.6865 49.655 23.4482 49.655H26.2069C26.9686 49.655 27.5862 50.2726 27.5862 51.0343C27.5862 51.7961 26.9686 52.4137 26.2069 52.4137Z" fill="#B73A46"/>
<path d="M64.8278 52.4137H31.7244C30.9626 52.4137 30.345 51.7961 30.345 51.0343C30.345 50.2726 30.9626 49.655 31.7244 49.655H64.8278C65.5895 49.655 66.2071 50.2726 66.2071 51.0343C66.2071 51.7961 65.5895 52.4137 64.8278 52.4137Z" fill="#B73A46"/>
<path d="M26.2069 44.138H23.4482C22.6865 44.138 22.0689 43.5204 22.0689 42.7587C22.0689 41.997 22.6865 41.3794 23.4482 41.3794H26.2069C26.9686 41.3794 27.5862 41.997 27.5862 42.7587C27.5862 43.5204 26.9686 44.138 26.2069 44.138Z" fill="#B73A46"/>
<path d="M64.8278 44.138H31.7244C30.9626 44.138 30.345 43.5204 30.345 42.7587C30.345 41.997 30.9626 41.3794 31.7244 41.3794H64.8278C65.5895 41.3794 66.2071 41.997 66.2071 42.7587C66.2071 43.5204 65.5895 44.138 64.8278 44.138Z" fill="#B73A46"/>
<path d="M26.2069 35.8621H23.4482C22.6865 35.8621 22.0689 35.2445 22.0689 34.4828C22.0689 33.7211 22.6865 33.1035 23.4482 33.1035H26.2069C26.9686 33.1035 27.5862 33.7211 27.5862 34.4828C27.5862 35.2445 26.9686 35.8621 26.2069 35.8621Z" fill="#B73A46"/>
<path d="M64.8278 35.8621H31.7244C30.9626 35.8621 30.345 35.2445 30.345 34.4828C30.345 33.7211 30.9626 33.1035 31.7244 33.1035H64.8278C65.5895 33.1035 66.2071 33.7211 66.2071 34.4828C66.2071 35.2445 65.5895 35.8621 64.8278 35.8621Z" fill="#B73A46"/>
<path d="M26.2069 27.5863H23.4482C22.6865 27.5863 22.0689 26.9687 22.0689 26.2069C22.0689 25.4452 22.6865 24.8276 23.4482 24.8276H26.2069C26.9686 24.8276 27.5862 25.4452 27.5862 26.2069C27.5862 26.9687 26.9686 27.5863 26.2069 27.5863Z" fill="#B73A46"/>
<path d="M64.8278 27.5863H31.7244C30.9626 27.5863 30.345 26.9687 30.345 26.2069C30.345 25.4452 30.9626 24.8276 31.7244 24.8276H64.8278C65.5895 24.8276 66.2071 25.4452 66.2071 26.2069C66.2071 26.9687 65.5895 27.5863 64.8278 27.5863Z" fill="#B73A46"/>
<path d="M23.4479 12.4138H31.7238V20.6897H23.4479V12.4138Z" fill="#B73A46"/>
</svg>
