<svg width="80" height="80" viewBox="0 0 80 80" fill="none" xmlns="http://www.w3.org/2000/svg">
<path d="M59.6157 1.2478H22.1895C21.0345 1.2478 19.9268 1.70655 19.1101 2.52327L7.73635 13.8969C6.91963 14.7136 6.46088 15.8212 6.46088 16.9762V69.9986C6.46088 72.4037 8.41056 74.3534 10.8157 74.3534H59.6157C62.0209 74.3534 63.9706 72.4037 63.9706 69.9986V5.60265C63.9706 3.19749 62.0209 1.2478 59.6157 1.2478Z" fill="white"/>
<path d="M59.6158 1.2478H49.7036C52.1088 1.2478 54.0585 3.19749 54.0585 5.60265V69.9986C54.0585 72.4037 52.1086 74.3534 49.7036 74.3534H59.6158C62.021 74.3534 63.9706 72.4037 63.9706 69.9986V5.60265C63.9706 3.19749 62.021 1.2478 59.6158 1.2478Z" fill="white"/>
<path d="M20.3856 12.4727V1.63892C19.9153 1.85298 19.4825 2.15079 19.1102 2.52329L7.73643 13.8969C7.36408 14.2692 7.06611 14.7022 6.85205 15.1724H17.6856C19.1769 15.1725 20.3856 13.9638 20.3856 12.4727Z" fill="#B73A46"/>
<path d="M21.8807 37.5443H16.8529C15.9023 37.5443 15.1317 36.7737 15.1317 35.823V30.7952C15.1317 29.8446 15.9023 29.074 16.8529 29.074H21.8807C22.8313 29.074 23.602 29.8446 23.602 30.7952V35.823C23.602 36.7737 22.8313 37.5443 21.8807 37.5443Z" fill="#B73A46"/>
<path d="M21.8807 51.596H16.8529C15.9023 51.596 15.1317 50.8254 15.1317 49.8748V44.847C15.1317 43.8964 15.9023 43.1257 16.8529 43.1257H21.8807C22.8313 43.1257 23.602 43.8964 23.602 44.847V49.8748C23.602 50.8254 22.8313 51.596 21.8807 51.596Z" fill="#B73A46"/>
<path d="M21.8807 65.6481H16.8529C15.9023 65.6481 15.1317 64.8774 15.1317 63.9268V58.899C15.1317 57.9484 15.9023 57.1777 16.8529 57.1777H21.8807C22.8313 57.1777 23.602 57.9484 23.602 58.899V63.9268C23.602 64.8774 22.8313 65.6481 21.8807 65.6481Z" fill="#B73A46"/>
<path d="M44.9744 24.8574C49.9702 24.8574 54.0201 20.8075 54.0201 15.8117C54.0201 10.8158 49.9702 6.76587 44.9744 6.76587C39.9785 6.76587 35.9286 10.8158 35.9286 15.8117C35.9286 20.8075 39.9785 24.8574 44.9744 24.8574Z" fill="#BED8FB"/>
<path d="M44.9743 17.9458C42.0914 17.9458 39.6582 19.866 38.8804 22.4967C40.4882 23.9632 42.6267 24.8578 44.9742 24.8578C47.3218 24.8578 49.4603 23.9633 51.0679 22.4967C50.2904 19.866 47.8573 17.9458 44.9743 17.9458Z" fill="#3DC1EC"/>
<path d="M44.9742 18.7495C46.742 18.7495 48.175 17.3164 48.175 15.5487C48.175 13.7809 46.742 12.3479 44.9742 12.3479C43.2065 12.3479 41.7734 13.7809 41.7734 15.5487C41.7734 17.3164 43.2065 18.7495 44.9742 18.7495Z" fill="#3DC1EC"/>
<path d="M53.6074 73.8727L48.3916 78.5357C47.8297 79.0378 46.9409 78.6122 46.98 77.8597L47.3427 70.8728C47.365 70.4422 47.4724 70.0203 47.6586 69.6314L66.4564 30.3753C67.3447 28.5203 69.5686 27.7366 71.4238 28.6249C73.2788 29.5132 74.0625 31.7371 73.1742 33.5922L54.3764 72.8483C54.1902 73.2372 53.9288 73.5853 53.6074 73.8727Z" fill="#3DC1EC"/>
<path d="M53.6074 73.8728L48.3916 78.5358C47.8297 79.038 46.9409 78.6124 46.98 77.8599L47.3427 70.873C47.365 70.4424 47.4724 70.0205 47.6586 69.6316L54.3764 72.8485C54.1902 73.2374 53.9288 73.5855 53.6074 73.8728Z" fill="#F8ECED"/>
<path d="M63.1011 37.4011L64.933 33.5761L71.6514 36.7937L69.8194 40.6188L63.1011 37.4011Z" fill="white"/>
<path d="M55.2997 29.7825H30.2408C29.5518 29.7825 28.9933 30.3411 28.9933 31.0301C28.9933 31.7192 29.5519 32.2776 30.2408 32.2776H55.2996C55.9885 32.2776 56.5472 31.719 56.5472 31.0301C56.5472 30.3412 55.9886 29.7825 55.2997 29.7825Z" fill="#231F20"/>
<path d="M56.5472 35.933C56.5472 35.2441 55.9886 34.6855 55.2996 34.6855H30.2408C29.5518 34.6855 28.9933 35.2441 28.9933 35.933C28.9933 36.622 29.5519 37.1807 30.2408 37.1807H55.2996C55.9886 37.1805 56.5472 36.622 56.5472 35.933Z" fill="#231F20"/>
<path d="M54.5047 44.9096C54.5047 44.2207 53.9461 43.6621 53.2572 43.6621H30.2408C29.5518 43.6621 28.9933 44.2207 28.9933 44.9096C28.9933 45.5985 29.5519 46.1571 30.2408 46.1571H53.2571C53.9461 46.1571 54.5047 45.5985 54.5047 44.9096Z" fill="#231F20"/>
<path d="M52.1571 49.812C52.1571 49.123 51.5985 48.5645 50.9096 48.5645H30.2408C29.5518 48.5645 28.9933 49.123 28.9933 49.812C28.9933 50.5009 29.5519 51.0596 30.2408 51.0596H50.9095C51.5985 51.0596 52.1571 50.501 52.1571 49.812Z" fill="#231F20"/>
<path d="M30.2408 57.541C29.5518 57.541 28.9933 58.0996 28.9933 58.7885C28.9933 59.4774 29.5519 60.0362 30.2408 60.0362H46.611C47.2999 60.0362 47.8585 59.4776 47.8585 58.7885C47.8585 58.0996 47.2999 57.541 46.611 57.541H30.2408Z" fill="#231F20"/>
<path d="M44.2634 62.4436H30.2408C29.5518 62.4436 28.9933 63.0022 28.9933 63.6911C28.9933 64.38 29.5519 64.9386 30.2408 64.9386H44.2634C44.9523 64.9386 45.5109 64.38 45.5109 63.6911C45.511 63.0022 44.9524 62.4436 44.2634 62.4436Z" fill="#231F20"/>
<path d="M71.9625 27.4994C69.4901 26.316 66.5154 27.364 65.331 29.8363L46.5331 69.0927C46.2745 69.6335 46.1274 70.2107 46.0968 70.808L45.734 77.7949C45.6899 78.6422 46.156 79.4268 46.9215 79.7933C47.6837 80.1582 48.587 80.0341 49.2231 79.4657L53.546 75.601H59.6159C62.7051 75.601 65.2184 73.0877 65.2184 69.9985V53.0954C66.2426 50.9564 73.1573 36.5165 74.2996 34.1308C75.4834 31.6585 74.4351 28.6835 71.9625 27.4994ZM69.8192 29.5072C70.1773 29.5072 70.5409 29.5852 70.885 29.7501C71.4817 30.0357 71.9312 30.5366 72.151 31.1605C72.3709 31.7843 72.3345 32.4565 72.0489 33.0532L71.0542 35.1302L66.5868 32.991L67.5815 30.914C68.0067 30.0265 68.895 29.5072 69.8192 29.5072ZM69.2228 38.9551L64.7554 36.8158L65.5093 35.2416L69.9767 37.3808L69.2228 38.9551ZM53.7898 71.1839L49.3226 69.0447L63.6778 39.0663L68.1451 41.2054C67.691 42.1538 54.1181 70.4983 53.7898 71.1839ZM48.2756 76.9657L48.562 71.4472L52.3951 73.2827L48.2756 76.9657ZM62.7231 69.9983C62.7231 71.7118 61.3292 73.1057 59.6157 73.1057H55.6362L62.7231 58.306V69.9983Z" fill="#231F20"/>
<path d="M41.7695 73.1058H10.8156C9.10214 73.1058 7.70823 71.7119 7.70823 69.9984V16.9762C7.70823 16.7877 7.72495 16.6017 7.75761 16.42H17.6854C19.862 16.42 21.6329 14.6492 21.6329 12.4727V2.54453C21.8146 2.51187 22.0006 2.49516 22.1892 2.49516H59.6154C61.3289 2.49516 62.7228 3.88906 62.7228 5.6025V28.5481C62.7228 29.237 63.2814 29.7958 63.9703 29.7958C64.6592 29.7958 65.2178 29.2372 65.2178 28.5481V5.6025C65.2181 2.51328 62.7048 0 59.6156 0H22.1893C20.6928 0 19.2859 0.582812 18.2278 1.64094L6.85401 13.0147C5.79589 14.0728 5.21307 15.4797 5.21307 16.9761V69.9984C5.21307 73.0877 7.72636 75.6009 10.8156 75.6009H41.7695C42.4584 75.6009 43.017 75.0423 43.017 74.3534C43.0171 73.6644 42.4584 73.1058 41.7695 73.1058ZM19.1379 4.25953V12.4725C19.1379 13.2733 18.4864 13.9247 17.6856 13.9247H9.47276L19.1379 4.25953Z" fill="#231F20"/>
<path d="M24.8494 30.7949C24.8494 29.1579 23.5176 27.8262 21.8804 27.8262H16.8526C15.2156 27.8262 13.8837 29.1579 13.8837 30.7949V35.8229C13.8837 37.4599 15.2154 38.7916 16.8526 38.7916H21.8804C23.5175 38.7916 24.8494 37.4599 24.8494 35.8229V30.7949ZM22.3542 35.8229C22.3542 36.0841 22.1417 36.2965 21.8804 36.2965H16.8526C16.5914 36.2965 16.3789 36.084 16.3789 35.8229V30.7949C16.3789 30.5337 16.5914 30.3213 16.8526 30.3213H21.8804C22.1417 30.3213 22.3542 30.5338 22.3542 30.7949V35.8229Z" fill="#231F20"/>
<path d="M24.8494 44.8468C24.8494 43.2096 23.5176 41.8779 21.8804 41.8779H16.8526C15.2156 41.8779 13.8837 43.2096 13.8837 44.8468V49.8746C13.8837 51.5118 15.2154 52.8436 16.8526 52.8436H21.8804C23.5175 52.8436 24.8494 51.5118 24.8494 49.8746V44.8468ZM22.3542 49.8746C22.3542 50.1359 22.1417 50.3484 21.8804 50.3484H16.8526C16.5914 50.3484 16.3789 50.1357 16.3789 49.8746V44.8468C16.3789 44.5856 16.5914 44.3731 16.8526 44.3731H21.8804C22.1417 44.3731 22.3542 44.5857 22.3542 44.8468V49.8746Z" fill="#231F20"/>
<path d="M21.8804 55.9299H16.8526C15.2156 55.9299 13.8837 57.2616 13.8837 58.8987V63.9266C13.8837 65.5637 15.2154 66.8954 16.8526 66.8954H21.8804C23.5175 66.8954 24.8494 65.5637 24.8494 63.9266V58.8987C24.8494 57.2616 23.5176 55.9299 21.8804 55.9299ZM22.3542 63.9266C22.3542 64.1879 22.1417 64.4002 21.8804 64.4002H16.8526C16.5914 64.4002 16.3789 64.1877 16.3789 63.9266V58.8987C16.3789 58.6374 16.5914 58.4251 16.8526 58.4251H21.8804C22.1417 58.4251 22.3542 58.6376 22.3542 58.8987V63.9266Z" fill="#231F20"/>
<path d="M38.1289 23.4927C39.9492 25.1167 42.3484 26.105 44.9742 26.105C47.6003 26.105 49.9998 25.1164 51.8203 23.4921C51.8819 23.4455 51.9386 23.3936 51.99 23.3372C54.0056 21.4569 55.2678 18.7789 55.2678 15.8116C55.2678 10.1358 50.6501 5.51831 44.9744 5.51831C39.2986 5.51831 34.6809 10.1358 34.6809 15.8116C34.6809 18.7786 35.9428 21.4563 37.9579 23.3366C38.0095 23.3935 38.0667 23.4458 38.1289 23.4927ZM40.3667 22.0996C40.9159 20.9592 41.8845 20.0433 43.0594 19.5649C43.654 19.8491 44.3054 19.9972 44.9742 19.9972C45.6431 19.9972 46.2945 19.8491 46.8892 19.5649C48.064 20.0433 49.0326 20.9591 49.5817 22.0994C48.29 23.0486 46.6964 23.6099 44.974 23.6099C43.252 23.6099 41.6584 23.0486 40.3667 22.0996ZM46.0686 17.1669C46.0669 17.1682 46.065 17.1692 46.0633 17.1705C45.7414 17.3875 45.365 17.5021 44.9742 17.5021C44.5823 17.5021 44.2045 17.3866 43.882 17.1683C43.3429 16.8036 43.0211 16.1982 43.0211 15.5486C43.0211 14.4716 43.8972 13.5955 44.9742 13.5955C46.0512 13.5955 46.9275 14.4716 46.9275 15.5486C46.9275 16.1972 46.6065 16.8021 46.0686 17.1669ZM44.9742 8.01347C49.2742 8.01347 52.7725 11.5116 52.7725 15.8116C52.7725 17.4499 52.2647 18.9716 51.3983 20.2278C50.7556 19.2099 49.8801 18.361 48.8405 17.7497C49.2167 17.0889 49.4226 16.333 49.4226 15.5488C49.4226 13.096 47.427 11.1005 44.9742 11.1005C42.5214 11.1005 40.5259 13.096 40.5259 15.5488C40.5259 16.333 40.7319 17.0889 41.1079 17.7497C40.0683 18.3611 39.1928 19.2099 38.5501 20.2278C37.6837 18.9714 37.1759 17.4497 37.1759 15.8116C37.1761 11.5116 40.6742 8.01347 44.9742 8.01347Z" fill="#231F20"/>
</svg>
