<svg width="80" height="80" viewBox="0 0 80 80" fill="none" xmlns="http://www.w3.org/2000/svg">
<path d="M28.25 61.25H31.75C34.25 61.25 36.25 63.25 36.25 65.75V76.25H23.75V65.75C23.75 63.25 25.75 61.25 28.25 61.25Z" fill="white"/>
<path d="M48.25 61.25H51.75C54.25 61.25 56.25 63.25 56.25 65.75V76.25H43.75V65.75C43.75 63.25 45.75 61.25 48.25 61.25Z" fill="white"/>
<path d="M68.25 61.25H71.75C74.25 61.25 76.25 63.25 76.25 65.75V76.25H63.75V65.75C63.75 63.25 65.75 61.25 68.25 61.25Z" fill="#3DC1EC"/>
<path d="M8.25 61.25H11.75C14.25 61.25 16.25 63.25 16.25 65.75V76.25H3.75V65.75C3.75 63.25 5.75 61.25 8.25 61.25Z" fill="#8CE2FF"/>
<path d="M76.25 3.75H3.75V33.75H76.25V3.75Z" fill="white"/>
<path d="M41.1246 13.6248C40.4996 12.3748 38.8746 11.7498 37.4996 12.2498L24.9996 18.7498H16.2496C13.2497 18.7498 10.4997 20.6248 9.49965 23.3748L6.12466 34.9998C5.62466 36.3748 6.24966 37.9998 7.74965 38.4998C9.12465 38.9998 10.7497 38.3748 11.2497 36.8748L14.9997 24.9998V59.9998H27.4996V23.7498L39.7496 17.3748C41.1246 16.7498 41.8746 15.1248 41.2496 13.7498C41.2496 13.7498 41.2496 13.6248 41.1246 13.6248Z" fill="#3DC1EC"/>
<path d="M15 33.7502V29.5002L12.5 33.7502H15Z" fill="white"/>
<path d="M65 56.25C65 59 67.25 61.25 70 61.25C72.75 61.25 75 59 75 56.25C75 53.5 72.75 51.25 70 51.25C67.25 51.25 65 53.5 65 56.25Z" fill="#3DC1EC"/>
<path d="M45 56.25C45 59 47.25 61.25 50 61.25C52.75 61.25 55 59 55 56.25C55 53.5 52.75 51.25 50 51.25C47.25 51.25 45 53.5 45 56.25Z" fill="white"/>
<path d="M25 56.25C25 59 27.25 61.25 30 61.25C32.75 61.25 35 59 35 56.25C35 53.5 32.75 51.25 30 51.25C27.25 51.25 25 53.5 25 56.25Z" fill="white"/>
<path d="M5 56.25C5 59 7.25 61.25 10 61.25C12.75 61.25 15 59 15 56.25C15 53.5 12.75 51.25 10 51.25C7.25 51.25 5 53.5 5 56.25Z" fill="#8CE2FF"/>
<path d="M21.25 17.5C24.0114 17.5 26.25 15.2614 26.25 12.5C26.25 9.73858 24.0114 7.5 21.25 7.5C18.4886 7.5 16.25 9.73858 16.25 12.5C16.25 15.2614 18.4886 17.5 21.25 17.5Z" fill="#3DC1EC"/>
<path d="M76.25 2.5H3.75C3 2.5 2.5 3 2.5 3.75V28.75H5V5H75V32.5H31.25V35H76.25C77 35 77.5 34.5 77.5 33.75V3.75C77.5 3 77 2.5 76.25 2.5Z" fill="#231F20"/>
<path d="M68.75 8.75H43.75V11.25H68.75V8.75Z" fill="#B73A46"/>
<path d="M72.5 16.25H47.5V18.75H72.5V16.25Z" fill="#B73A46"/>
<path d="M67.5 23.75H42.5V26.25H67.5V23.75Z" fill="#B73A46"/>
<path d="M3.75 77.5H16.25C17 77.5 17.5 77 17.5 76.25V65.75C17.5 64 16.625 62.25 15.25 61.25H24.75C23.375 62.375 22.5 64 22.5 65.75V76.25C22.5 77 23 77.5 23.75 77.5H36.25C37 77.5 37.5 77 37.5 76.25V65.75C37.5 63.625 36.25 61.625 34.375 60.625C36.875 58.25 36.875 54.25 34.5 51.75C33 50.25 30.875 49.625 28.75 50V24.5L40.25 18.5C42.25 17.625 43.25 15.25 42.375 13.25C41.5 11.25 39.125 10.25 37.125 11.125H37L26.875 16.375C27.25 15.5 27.5 14.625 27.5 13.75C27.5 10.25 24.75 7.5 21.25 7.5C17.75 7.5 15 10.25 15 13.75C15 15.125 15.5 16.375 16.25 17.5C12.75 17.5 9.5 19.75 8.25 23L4.875 34.5C4.125 36.625 5.125 38.875 7.125 39.625C8.125 40 9.125 40 10 39.625C11.125 39.25 11.875 38.375 12.25 37.25L13.5 33.125V51.25C12.375 50.375 11.125 50 9.75 50C6.25 50 3.5 52.75 3.5 56.25C3.5 58 4.125 59.5 5.375 60.75C3.75 61.625 2.5 63.625 2.5 65.75V76.25C2.5 77 3 77.5 3.75 77.5ZM35 75H25V65.75C25 64 26.5 62.5 28.25 62.5H31.75C33.5 62.5 35 64 35 65.75V75ZM33.75 56.25C33.75 58.375 32.125 60 30 60C27.875 60 26.25 58.375 26.25 56.25C26.25 54.125 27.875 52.5 30 52.5C32.125 52.5 33.75 54.125 33.75 56.25ZM17.5 13.75C17.5 11.625 19.125 10 21.25 10C23.375 10 25 11.625 25 13.75C25 15.875 23.375 17.5 21.25 17.5C19.125 17.5 17.5 15.875 17.5 13.75ZM10.125 36.5C9.875 37.25 9 37.625 8.25 37.375C8.25 37.375 8.125 37.375 8.125 37.25C7.375 36.875 7.125 36 7.375 35.25L10.75 23.75C11.5 21.5 13.75 20 16.25 20H25.125C25.375 20 25.5 20 25.75 19.875L38.125 13.375C38.875 13.125 39.75 13.375 40.125 14.125C40.375 14.5 40.375 15 40.25 15.375C40.125 15.75 39.75 16.125 39.25 16.25L27 22.625C26.5 22.875 26.25 23.25 26.25 23.75V51.25C23.875 53 23.125 56.125 24.25 58.75H22.5V37.5H20V58.75H15.75C16.125 58 16.25 57.125 16.25 56.25V25C16.25 24.25 15.75 23.75 15 23.75C14.5 23.75 14 24.125 13.75 24.625L10.125 36.5ZM10 52.5C12.125 52.5 13.75 54.125 13.75 56.25C13.75 58.375 12.125 60 10 60C7.875 60 6.25 58.375 6.25 56.25C6.25 54.125 7.875 52.5 10 52.5ZM5 65.75C5 64 6.5 62.5 8.25 62.5H11.75C13.5 62.5 15 64 15 65.75V75H5V65.75Z" fill="#231F20"/>
<path d="M42.5 65.7498V76.2498C42.5 76.9998 43 77.4998 43.75 77.4998H56.25C57 77.4998 57.5 76.9998 57.5 76.2498V65.7498C57.5 63.6248 56.25 61.6248 54.375 60.6248C56.875 58.2498 56.875 54.2498 54.375 51.7498C52 49.2498 48 49.2498 45.5 51.7498C43 54.1248 43 58.1248 45.5 60.6248C43.75 61.6248 42.5 63.6248 42.5 65.7498ZM50 52.4998C52.125 52.4998 53.75 54.1248 53.75 56.2498C53.75 58.3748 52.125 59.9998 50 59.9998C47.875 59.9998 46.25 58.3748 46.25 56.2498C46.25 54.1248 47.875 52.4998 50 52.4998ZM45 65.7498C45 63.9998 46.5 62.4998 48.25 62.4998H51.75C53.5 62.4998 55 63.9998 55 65.7498V74.9998H45V65.7498Z" fill="#231F20"/>
<path d="M74.375 60.6251C76.875 58.2501 76.875 54.2501 74.5 51.7501C72.125 49.2501 68.125 49.2501 65.625 51.6251C63.125 54.0001 63.125 58.0001 65.5 60.5001L65.625 60.6251C63.75 61.6251 62.5 63.6251 62.5 65.7501V76.2501C62.5 77.0001 63 77.5001 63.75 77.5001H76.25C77 77.5001 77.5 77.0001 77.5 76.2501V65.7501C77.5 63.6251 76.25 61.6251 74.375 60.6251ZM70 52.5001C72.125 52.5001 73.75 54.1251 73.75 56.2501C73.75 58.3751 72.125 60.0001 70 60.0001C67.875 60.0001 66.25 58.3751 66.25 56.2501C66.25 54.1251 67.875 52.5001 70 52.5001ZM75 75.0001H65V65.7501C65 64.0001 66.5 62.5001 68.25 62.5001H71.75C73.5 62.5001 75 64.0001 75 65.7501V75.0001Z" fill="#231F20"/>
</svg>
