<svg width="127" height="64" viewBox="0 0 127 64" fill="none" xmlns="http://www.w3.org/2000/svg">
<path d="M47.6 37.3999L45.3 51.3999H1.79999V37.3999H47.6Z" fill="#034EA2"/>
<path d="M5.40002 40.3999H7.80002C10.1 40.3999 10.5 41.7999 10.5 42.6999C10.5 43.7999 9.80002 44.9999 7.80002 44.9999H6.20002V48.0999H5.40002V40.3999ZM6.20002 44.2999H7.90002C9.30002 44.2999 9.80002 43.4999 9.80002 42.6999C9.80002 41.8999 9.30002 41.0999 7.90002 41.0999H6.20002V44.2999Z" fill="white"/>
<path d="M13.2 40.3999H14.1L17.4 48.0999H16.6L15.5 45.4999H11.9L10.8 48.0999H9.90002L13.2 40.3999ZM15.1 44.7999L13.6 41.2999L12.1 44.7999H15.1Z" fill="white"/>
<path d="M18.3 40.3999H20.5C23.4 40.3999 23.6 42.2999 23.6 42.8999C23.6 44.1999 22.7 45.0999 21.3 45.1999L23.5 48.0999H22.5L19.9 44.5999H20.5C20.9 44.5999 22.8 44.5999 22.8 42.7999C22.8 41.9999 22.3 40.9999 20.5 40.9999H19.1V47.9999H18.3V40.3999Z" fill="white"/>
<path d="M25.7 41.0999H23.9V40.3999H28.2V41.0999H26.4V48.0999H25.7V41.0999Z" fill="white"/>
<path d="M39.3 44.2002C39.3 46.5002 37.5 48.2002 35.2 48.2002C32.9 48.2002 31.1 46.5002 31.1 44.2002C31.1 41.9002 32.9 40.2002 35.2 40.2002C37.5 40.3002 39.3 41.9002 39.3 44.2002ZM38.5 44.2002C38.5 42.3002 37.1 40.9002 35.2 40.9002C33.3 40.9002 31.9 42.3002 31.9 44.2002C31.9 46.1002 33.4 47.5002 35.2 47.5002C37.1 47.6002 38.5 46.2002 38.5 44.2002Z" fill="white"/>
<path d="M40.5 40.3999H44.4V41.0999H41.3V43.8999H44.3V44.5999H41.3V48.0999H40.5V40.3999Z" fill="white"/>
<path fill-rule="evenodd" clip-rule="evenodd" d="M56.5 39.9999H55.2L54.7 42.9999H56L56.5 39.9999ZM55.6 45.5999H54.3L53.8 48.6999H55.1L55.6 45.5999ZM57.3 44.1999L58.9 45.5999L58.3 49.3999L55.8 51.3999H50.2L52.5 37.3999H58.1L59.7 39.1999L59 42.7999L57.3 44.1999ZM61.3 37.3999H64.5L62.6 48.6999H65.5L64.7 51.2999H59L61.3 37.3999ZM71.4 39.9999L69.9 46.0999H71.3L71.7 39.9999H71.4ZM71.1 48.7999H69.2L68.5 51.3999H65.3L69.6 37.3999H74.3L74.1 51.3999H71L71.1 48.7999ZM79.6 48.6999L81.5 37.3999H84.7L82.7 49.2999L80.2 51.2999H76.7L74.8 49.2999L76.8 37.3999H80L78.1 48.6999H79.6ZM90.4 39.9999H89.1L88.6 42.9999H89.9L90.4 39.9999ZM89.5 45.5999H88.2L87.7 48.6999H89L89.5 45.5999ZM91.2 44.1999L92.7 45.5999L92.1 49.3999L89.6 51.3999H84L86.3 37.3999H91.9L93.5 39.1999L92.9 42.8999L91.2 44.1999ZM95.6 37.3999H101.5L101.1 40.0999H98.4L98 42.6999H100.2L99.8 45.2999H97.6L97 48.6999H99.7L99.3 51.2999H93.4L95.6 37.3999ZM106.9 39.9999H105.6L105.1 42.9999H106.4L106.9 39.9999ZM106 45.5999H104.7L103.8 51.3999H100.6L102.9 37.3999H108.4L110.2 39.3999L109.6 42.9999L107.9 44.0999L109.2 45.4999L108.3 51.2999H105L106 45.5999ZM116 39.9999H114.5L113.1 48.6999H114.6L114.9 46.6999H114.1L114.5 44.1999H118.5L117.7 49.2999L115.2 51.2999H111.6L109.7 49.2999L111.3 39.3999L113.8 37.3999H117.4L119.3 39.3999L118.7 42.9999H115.5L116 39.9999Z" fill="#BBBDBF"/>
<path d="M95.5 59.3002C95.2 59.4002 94.7 59.5002 94.2 59.5002C93.6 59.5002 93.2 59.4002 92.8 59.0002C92.5 58.7002 92.3 58.2002 92.3 57.7002C92.3 56.9002 92.6 56.3002 93.1 55.8002C93.6 55.4002 94.2 55.2002 94.9 55.2002C95.4 55.2002 95.8 55.3002 96 55.4002L95.7 56.2002C95.5 56.1002 95.2 56.0002 94.8 56.0002C94.4 56.0002 94 56.1002 93.7 56.3002C93.3 56.6002 93.1 57.1002 93.1 57.6002C93.1 58.3002 93.5 58.6002 94.2 58.6002C94.4 58.6002 94.6 58.6002 94.6 58.5002L94.8 57.6002H94.2L94.3 56.9002H95.8L95.5 59.3002Z" fill="#BBBDBF"/>
<path d="M98.2 55.3998C98.5 55.2998 98.9 55.2998 99.3 55.2998C99.7 55.2998 100.1 55.3998 100.4 55.4998C100.7 55.6998 100.9 55.8998 100.9 56.2998C100.9 56.8998 100.5 57.2998 100 57.4998C100.2 57.5998 100.4 57.8998 100.4 58.2998C100.5 58.7998 100.5 59.2998 100.6 59.4998H99.7C99.7 59.3998 99.6 58.9998 99.6 58.4998C99.6 57.9998 99.4 57.7998 99 57.7998H98.7L98.4 59.3998H97.5L98.2 55.3998ZM98.7 57.1998H99.1C99.6 57.1998 99.9 56.8998 99.9 56.4998C99.9 56.1998 99.6 55.9998 99.3 55.9998C99.1 55.9998 99 55.9998 99 55.9998L98.7 57.1998Z" fill="#BBBDBF"/>
<path d="M106.4 57C106.4 57.8 106.1 58.5 105.7 59C105.3 59.4 104.8 59.6 104.2 59.6C103.1 59.6 102.5 58.8 102.5 57.9C102.5 57.1 102.8 56.4 103.3 55.9C103.7 55.5 104.2 55.3 104.8 55.3C105.8 55.2 106.4 56 106.4 57ZM103.9 56.3C103.6 56.6 103.4 57.3 103.4 57.8C103.4 58.4 103.7 58.8 104.3 58.8C104.6 58.8 104.8 58.7 105 58.5C105.3 58.2 105.5 57.5 105.5 57C105.5 56.5 105.3 56 104.7 56C104.3 56 104.1 56.1 103.9 56.3Z" fill="#BBBDBF"/>
<path d="M109.5 55.2998L109 57.6998C109 57.7998 109 57.9998 109 58.1998C109 58.4998 109.2 58.7998 109.6 58.7998C110.1 58.7998 110.4 58.4998 110.5 57.6998L111 55.2998H111.9L111.5 57.6998C111.3 58.9998 110.7 59.5998 109.6 59.5998C108.7 59.5998 108.2 59.1998 108.2 58.2998C108.2 58.0998 108.2 57.8998 108.3 57.6998L108.7 55.3998H109.5V55.2998Z" fill="#BBBDBF"/>
<path d="M113.9 55.3998C114.2 55.2998 114.6 55.2998 115 55.2998C115.4 55.2998 115.8 55.3998 116.1 55.5998C116.4 55.7998 116.6 56.0998 116.6 56.4998C116.6 56.9998 116.4 57.3998 116 57.6998C115.7 57.9998 115.2 58.0998 114.7 58.0998C114.6 58.0998 114.4 58.0998 114.3 58.0998L114 59.5998H113.1L113.9 55.3998ZM114.4 57.1998C114.5 57.1998 114.6 57.1998 114.7 57.1998C115.2 57.1998 115.6 56.8998 115.6 56.3998C115.6 55.9998 115.3 55.8998 115 55.8998C114.8 55.8998 114.7 55.8998 114.6 55.8998L114.4 57.1998Z" fill="#BBBDBF"/>
<path d="M120.3 29H1.79999V29.8H120.3V29Z" fill="#BBBDBF"/>
<path fill-rule="evenodd" clip-rule="evenodd" d="M36.6 19.1001H41.4L46.5 6.1001H41.8L36.6 19.1001Z" fill="#231F20"/>
<path fill-rule="evenodd" clip-rule="evenodd" d="M79.6 19.1002H86.3L90 9.6002H106.6L107.9 6.2002H91.4H91.2H86.7L83.5 14.2002L80.5 7.9002L77.7 14.7002L79.6 19.1002ZM92.4 19.1002H97.1L100.3 10.9002H95.6L92.4 19.1002Z" fill="#231F20"/>
<path fill-rule="evenodd" clip-rule="evenodd" d="M69.4 19.1001H72.5H74.1L79.2 6.1001H74.5L70.7 15.9001H58.9L59.6 14.2001H66.4L67.7 10.9001H55.9L52.7 19.1001H69.4ZM71.6 9.6001L73 6.2001H57.8L56.4 9.6001H71.6Z" fill="#231F20"/>
<path fill-rule="evenodd" clip-rule="evenodd" d="M51.4 6.1001L45.8 11.8001L42.9 19.2001H44.3L57 6.2001L51.4 6.1001Z" fill="#231F20"/>
<path fill-rule="evenodd" clip-rule="evenodd" d="M103.8 19H115.9C118.9 19 119.6 17.9 120.6 15.5L121.1 14.2C121.9 12.4 121 11.5 118.9 11.4H112L112.3 10.5H107.6L106.8 12.3C106.4 13.5 106.9 14.1 108.4 14.1H116.2L115.7 15.4H105.1L103.8 19Z" fill="#231F20"/>
<path fill-rule="evenodd" clip-rule="evenodd" d="M124.3 6H114.2C109.6 6 109.3 6.4 108.2 9.2H123L124.3 6Z" fill="#231F20"/>
<path fill-rule="evenodd" clip-rule="evenodd" d="M8.20002 9L2.40002 12.8L4.90002 12.7C5.40002 17.8 11.3 21.2 19.3 21C24.4 20.9 28.1 18.9 30.6 15.7L28.3 17L26 15C24.6 17.9 21.8 19.6 19 19.7C15 19.8 10.6 17 10.6 12.9H12.5L8.20002 9Z" fill="#231F20"/>
<path fill-rule="evenodd" clip-rule="evenodd" d="M28.5 16.1998L34.3 12.3998L31.8 12.4998C31.3 7.39978 25.4 3.99978 17.4 4.19978C12.3 4.19978 8.2 6.09978 6 9.39978L8.3 7.99978L10.6 10.1998C12 7.29978 14.8 5.59978 17.6 5.49978C21.6 5.39978 26 8.19978 26 12.2998H24.1L28.5 16.1998Z" fill="#231F20"/>
<path fill-rule="evenodd" clip-rule="evenodd" d="M18.4 12.9996C18.3 12.9996 18.3 12.9996 18.4 12.9996C16.3 16.0996 14.3 17.7996 13 15.6996C11.3 11.2996 16.6 13.4996 17.9 12.4996C14.1 12.3996 11.6 11.5996 12.7 9.29961C15.5 5.69961 16.4 10.8996 17.8 11.6996C16.3 8.59961 16 6.09961 18.4 6.09961C22.8 6.89961 18.9 9.99961 18.7 11.5996C20.9 8.49961 23 6.79961 24.2 8.99961C25.7 13.4996 20.5 11.0996 19.2 11.9996C23 12.1996 25.6 13.0996 24.4 15.2996C21.4 18.9996 20.7 13.1996 19.2 12.5996C20.8 15.8996 21.2 18.3996 18.7 18.4996C14.1 17.8996 18.2 14.6996 18.4 12.9996Z" fill="#231F20"/>
<path fill-rule="evenodd" clip-rule="evenodd" d="M36 18.5996H40.7L45.8 5.59961H41.1L36 18.5996Z" fill="#BCBEC0"/>
<path fill-rule="evenodd" clip-rule="evenodd" d="M78.9 18.5997H85.6L89.4 9.09971H106L107.3 5.69971H90.7H90.5H86L82.8 13.6997L79.8 7.39971L77 14.1997L78.9 18.5997ZM91.7 18.5997H96.4L99.6 10.3997H95L91.7 18.5997Z" fill="#BCBEC0"/>
<path fill-rule="evenodd" clip-rule="evenodd" d="M68.7 18.5996H71.8H73.4L78.5 5.59961H73.8L70 15.3996H58.2L58.9 13.6996H65.7L67 10.3996H55.2L52 18.5996H68.7ZM70.9 9.09961L72.3 5.69961H57.1L55.7 9.09961H70.9Z" fill="#BCBEC0"/>
<path fill-rule="evenodd" clip-rule="evenodd" d="M50.8 5.59961L45.1 11.2996L42.2 18.6996H43.6L56.4 5.59961H50.8Z" fill="#BCBEC0"/>
<path fill-rule="evenodd" clip-rule="evenodd" d="M103.1 18.5H115.2C118.2 18.5 118.9 17.4 119.9 15L120.4 13.7C121.2 11.9 120.3 11 118.2 10.9H111.4L111.7 10H107L106.2 11.8C105.8 13 106.3 13.6 107.8 13.6H115.6L115.1 14.9H104.5L103.1 18.5Z" fill="#BCBEC0"/>
<path fill-rule="evenodd" clip-rule="evenodd" d="M123.6 5.5H113.5C108.9 5.5 108.6 5.9 107.5 8.7H122.3L123.6 5.5Z" fill="#BCBEC0"/>
<path fill-rule="evenodd" clip-rule="evenodd" d="M7.50001 8.5L1.70001 12.3L4.20001 12.2C4.70001 17.3 10.6 20.7 18.6 20.5C23.7 20.4 27.4 18.4 29.9 15.2L27.6 16.5L25.3 14.4C23.9 17.3 21.1 19 18.3 19.1C14.3 19.2 9.90001 16.4 9.90001 12.3H11.8L7.50001 8.5Z" fill="#6D9DD3"/>
<path fill-rule="evenodd" clip-rule="evenodd" d="M27.8 15.6998L33.6 11.8998L31.1 11.9998C30.6 6.89978 24.7 3.49978 16.7 3.69978C11.6 3.79978 7.49999 5.69978 5.29999 8.99978L7.59999 7.59978L9.99999 9.59978C11.3 6.79978 14.1 4.99978 17 4.99978C21 4.89978 25.4 7.69978 25.4 11.7998H23.5L27.8 15.6998Z" fill="#C9252F"/>
<path fill-rule="evenodd" clip-rule="evenodd" d="M17.7 12.4996C17.7 12.4996 17.6 12.4996 17.7 12.4996C15.6 15.5996 13.6 17.2996 12.3 15.1996C10.6 10.7996 15.9 12.9996 17.2 11.9996C13.4 11.8996 10.9 11.0996 12 8.79961C14.8 5.19961 15.7 10.3996 17.1 11.1996C15.6 8.09961 15.3 5.59961 17.7 5.59961C22.1 6.39961 18.2 9.49961 18 11.0996C20.2 7.99961 22.3 6.29961 23.5 8.49961C25 12.9996 19.8 10.5996 18.5 11.4996C22.3 11.6996 24.9 12.5996 23.7 14.7996C20.7 18.4996 20 12.6996 18.5 12.0996C20.1 15.3996 20.5 17.8996 18 17.9996C13.4 17.3996 17.5 14.1996 17.7 12.4996Z" fill="#BCBEC0"/>
</svg>
