<svg width="14" height="15" viewBox="0 0 14 15" fill="none" xmlns="http://www.w3.org/2000/svg">
<g clip-path="url(#clip0)">
<path d="M10.4606 6.39309C10.3897 6.23647 10.234 6.13672 10.0625 6.13672H8.31249V0.449219C8.31249 0.207719 8.11649 0.0117188 7.87499 0.0117188H6.12499C5.88349 0.0117188 5.68749 0.207719 5.68749 0.449219V6.13672H3.93749C3.76599 6.13672 3.61024 6.23734 3.53937 6.39309C3.46762 6.54972 3.49562 6.73259 3.60849 6.86209L6.67099 10.3621C6.75412 10.4575 6.87399 10.5117 6.99999 10.5117C7.12599 10.5117 7.24587 10.4566 7.32899 10.3621L10.3915 6.86209C10.5052 6.73347 10.5315 6.54972 10.4606 6.39309Z" fill="#00AEEF"/>
<path d="M11.8125 9.63672V12.2617H2.1875V9.63672H0.4375V13.1367C0.4375 13.6206 0.8295 14.0117 1.3125 14.0117H12.6875C13.1714 14.0117 13.5625 13.6206 13.5625 13.1367V9.63672H11.8125Z" fill="#00AEEF"/>
</g>
<defs>
<clipPath id="clip0">
<rect width="14" height="14" fill="white" transform="translate(0 0.0117188)"/>
</clipPath>
</defs>
</svg>
