<svg width="91" height="91" viewBox="0 0 91 91" fill="none" xmlns="http://www.w3.org/2000/svg">
<path d="M82.1037 50.041L89.7441 44.1627C89.4916 38.0316 88.0392 32.2166 85.5766 26.9704L76.105 25.2638C72.8847 21.8506 70.6115 19.4487 67.328 16.0987L66.0652 6.55441C60.9505 3.8365 55.2044 2.06669 49.0794 1.56104L42.8913 8.89308C38.345 9.96761 35.1246 10.7893 30.5783 11.8638L21.675 8.1978C16.6235 11.3582 12.2665 15.5298 8.85675 20.3968L12.1402 29.4354C10.8142 33.9232 9.86706 37.1467 8.54103 41.6345L0.900635 47.5127C1.15321 53.6438 2.60551 59.4589 5.06812 64.7051L14.5397 66.4117C17.76 69.8249 20.0332 72.2268 23.3167 75.5768L24.5796 85.1211C29.6943 87.839 35.4404 89.6088 41.5653 90.1144L47.7534 82.7824C52.2998 81.7079 55.5201 80.8862 60.0665 79.8117L68.9698 83.4777C74.0213 80.3173 78.3782 76.1456 81.788 71.2787L78.5045 62.24C79.8305 57.6891 80.7777 54.5287 82.1037 50.041Z" fill="#B73A46" stroke="#231F20" stroke-width="1.5" stroke-miterlimit="10"/>
<path d="M73.8043 52.7355C77.589 37.0239 67.9331 21.2159 52.2372 17.4273C36.5413 13.6388 20.7491 23.3044 16.9644 39.0161C13.1797 54.7278 22.8356 70.5358 38.5315 74.3243C54.2274 78.1128 70.0196 68.4472 73.8043 52.7355Z" fill="white" stroke="#231F20" stroke-width="1.5" stroke-miterlimit="10"/>
<path d="M44.5962 20.8394C58.4247 20.8394 69.6012 32.027 69.6012 45.8694" stroke="#231F20" stroke-width="1.5" stroke-miterlimit="10" stroke-linecap="round" stroke-linejoin="round"/>
</svg>
