<svg width="78" height="77" viewBox="0 0 78 77" fill="none" xmlns="http://www.w3.org/2000/svg">
<path d="M73.4225 22.0294L63.13 20.2596C61.8671 18.6162 61.1094 17.6049 59.8465 15.9615L60.7305 6.79647C57.0682 4.20497 52.9638 2.30875 48.4806 1.10782L41.9768 6.85967C39.893 6.79647 38.6301 6.79647 36.5464 6.73326L30.4214 0.85498C25.8751 1.8663 21.6444 3.76252 17.8558 6.2276L18.2978 15.0134C16.9718 16.5936 16.1509 17.6049 14.8249 19.1851L5.10074 20.4492C3.20642 24.1153 1.8804 28.1605 1.3121 32.3954L9.96283 38.5897C10.4048 40.6124 10.6574 41.8765 11.0363 43.8992L4.72187 54.3916C6.30047 57.6783 8.38422 60.6491 10.7837 63.3038L23.223 59.7642C25.0542 60.7123 26.1908 61.2812 28.022 62.2293L32.8841 75.25C34.8415 75.566 36.799 75.6924 38.8196 75.6924C40.0825 75.6924 41.4085 75.6292 42.6082 75.5028L47.9754 62.6085C49.8698 61.7236 51.0064 61.2179 52.9007 60.333L65.5926 64.5047C68.0552 62.0396 70.139 59.2585 71.8439 56.2246L65.6557 44.9105C66.1609 42.8878 66.4766 41.6869 66.9818 39.6643L76.4534 33.47C76.2008 29.5511 75.1273 25.6322 73.4225 22.0294Z" fill="#2F6CAD" stroke="#231F20" stroke-width="1.5" stroke-miterlimit="10"/>
<path d="M61.9914 40.241C64.0704 27.5643 55.4895 15.6007 42.8255 13.5196C30.1615 11.4385 18.2099 20.028 16.1309 32.7047C14.0519 45.3814 22.6327 57.345 35.2967 59.4261C47.9608 61.5072 59.9123 52.9178 61.9914 40.241Z" fill="white" stroke="#231F20" stroke-width="1.5" stroke-miterlimit="10"/>
<path d="M39.0721 17.1624C49.4909 17.1624 57.9522 25.6321 57.9522 36.0613" stroke="#231F20" stroke-width="1.5" stroke-miterlimit="10" stroke-linecap="round" stroke-linejoin="round"/>
</svg>
