<svg width="91" height="92" viewBox="0 0 91 92" fill="none" xmlns="http://www.w3.org/2000/svg">
<path d="M84.2237 21.7334L71.9106 21.1646C70.2057 19.3948 69.1323 18.3202 67.4274 16.6136L67.0485 5.74199C62.3759 3.2769 57.1981 1.57031 51.8309 0.938232L45.0113 8.58631C42.5487 8.83914 41.0964 9.02877 38.6338 9.2816L30.5514 3.2769C25.3736 5.17312 20.6378 8.01745 16.5965 11.4939L18.4277 21.7966C17.1017 23.8825 16.2808 25.1466 14.9548 27.2325L3.71519 30.2032C2.0103 34.8173 1.12629 39.7475 1 44.8673L12.1133 50.872C12.9342 53.2107 13.3762 54.6012 14.1971 56.9399L8.32469 70.2766C10.661 73.8794 13.5656 77.103 16.786 79.8841L30.8671 73.8794C33.2034 74.7011 34.5926 75.2068 36.9289 76.0285L44.5693 90.6294C46.9056 90.6926 49.3051 90.5662 51.6414 90.3133C53.1569 90.1237 54.6723 89.8709 56.1246 89.4916L60.5447 73.5002C62.6285 72.1728 63.8913 71.4144 65.9751 70.087L81.5716 73.1209C84.0974 69.8342 86.118 66.2314 87.6966 62.4389L78.8564 49.9871C79.1722 47.522 79.2985 46.0682 79.6142 43.6031L89.8435 34.8805C88.6438 30.14 86.7494 25.7155 84.2237 21.7334Z" fill="#B73A46" stroke="#231F20" stroke-width="1.5" stroke-miterlimit="10"/>
<path d="M69.8063 56.8503C76.9308 43.3649 71.7853 26.6515 58.3134 19.5198C44.8415 12.3881 28.1448 17.5388 21.0203 31.0242C13.8957 44.5096 19.0412 61.223 32.5131 68.3547C45.985 75.4864 62.6817 70.3358 69.8063 56.8503Z" fill="white" stroke="#231F20" stroke-width="1.5" stroke-miterlimit="10"/>
<path d="M45.1377 21.6069C57.4508 21.6069 67.4275 31.5937 67.4275 43.9191" stroke="#231F20" stroke-width="1.5" stroke-miterlimit="10" stroke-linecap="round" stroke-linejoin="round"/>
</svg>
