<svg width="97" height="97" viewBox="0 0 97 97" fill="none" xmlns="http://www.w3.org/2000/svg">
<path d="M95.2516 48.5511C95.2516 46.2124 95.0622 43.9369 94.7465 41.7247L87.2955 39.1332C85.2117 34.2662 84.2014 31.8011 82.1177 26.9342L85.4643 19.7917C82.8123 16.3785 79.7182 13.2814 76.2453 10.6899L69.1732 14.1031C64.3111 12.1437 61.7853 11.1323 56.9233 9.1097L54.2081 1.71445C52.1875 1.46162 50.1669 1.33521 48.0831 1.33521C45.7468 1.33521 43.4736 1.52483 41.2636 1.84087L38.6747 9.29933C33.8126 11.3852 31.35 12.3965 26.4879 14.4823L19.3526 11.1323C15.9429 13.787 12.8488 16.8842 10.2599 20.3606L13.6697 27.4398C11.7122 32.3068 10.7019 34.8351 8.68131 39.702L1.29347 42.4199C1.0409 44.4426 0.914612 46.4652 0.914612 48.5511C0.914612 50.8897 1.10405 53.1652 1.41976 55.3774L8.87074 57.9689C10.9545 62.8359 11.9648 65.301 14.0485 70.1679L10.7019 77.3104C13.354 80.7236 16.448 83.8207 19.9209 86.4122L26.993 82.999C31.8551 84.9585 34.3809 85.9698 39.243 87.9924L41.9582 95.3877C43.9788 95.6405 45.9994 95.7669 48.0831 95.7669C50.4194 95.7669 52.6926 95.5773 54.9027 95.2613L57.4916 87.8028C62.3536 85.717 64.8162 84.7056 69.6783 82.6198L76.8136 85.9698C80.2234 83.3151 83.3174 80.2179 85.9063 76.7415L82.4965 69.6623C84.454 64.7953 85.4643 62.267 87.4849 57.4001L94.8727 54.6822C95.0622 52.6595 95.2516 50.6369 95.2516 48.5511Z" fill="#00AEEF" stroke="#231F20" stroke-width="1.5" stroke-miterlimit="10"/>
<path d="M48.1463 80.5339C65.7923 80.5339 80.0971 66.2147 80.0971 48.551C80.0971 30.8873 65.7923 16.5681 48.1463 16.5681C30.5004 16.5681 16.1955 30.8873 16.1955 48.551C16.1955 66.2147 30.5004 80.5339 48.1463 80.5339Z" fill="white" stroke="#231F20" stroke-width="1.5" stroke-miterlimit="10"/>
<path d="M47.7674 22.8889C61.5959 22.8889 72.7724 34.0766 72.7724 47.919" stroke="#231F20" stroke-width="1.5" stroke-miterlimit="10" stroke-linecap="round" stroke-linejoin="round"/>
</svg>
