<svg width="85" height="85" viewBox="0 0 85 85" fill="none" xmlns="http://www.w3.org/2000/svg">
<path d="M84.0387 42.3211C84.0387 40.2985 83.9124 38.2759 83.5967 36.3164L77.0297 34.041C75.1986 29.7429 74.3146 27.5938 72.4834 23.2957L75.388 16.975C73.0517 13.941 70.3365 11.2231 67.2424 8.94766L60.9912 11.9816C56.6974 10.2118 54.4874 9.32691 50.1936 7.62031L47.7941 1.10996C46.0261 0.857129 44.1949 0.730713 42.3637 0.730713C40.3431 0.730713 38.3225 0.857128 36.3651 1.17316L34.155 7.74672C29.8612 9.57973 27.7143 10.4646 23.4205 12.2977L17.1062 9.39012C14.0752 11.7288 11.3601 14.4467 9.08688 17.5439L12.1178 23.8014C10.3498 28.0995 9.46574 30.3117 7.76086 34.6098L1.25703 37.0117C1.00446 38.7815 0.878174 40.6145 0.878174 42.4475C0.878174 44.4702 1.00446 46.4928 1.32018 48.4522L7.88714 50.7277C9.71832 55.0258 10.6023 57.1748 12.4335 61.4729L9.52889 67.7937C11.8652 70.8276 14.5804 73.5455 17.6744 75.821L23.9257 72.787C28.2195 74.5568 30.4295 75.4417 34.7233 77.1483L37.1228 83.6587C38.8908 83.9115 40.722 84.0379 42.5531 84.0379C44.5738 84.0379 46.5944 83.9115 48.5518 83.5955L50.825 77.0219C55.1188 75.1889 57.2657 74.304 61.5595 72.471L67.8739 75.3785C70.9048 73.0399 73.62 70.322 75.8932 67.2248L72.8622 60.9673C74.6303 56.6692 75.5143 54.4569 77.2192 50.1588L83.723 47.7569C83.9124 45.9871 84.0387 44.1541 84.0387 42.3211Z" fill="#231F20"/>
<path d="M52.2587 68.7604C66.8463 63.3579 74.2968 47.1408 68.8997 32.5385C63.5026 17.9362 47.3018 10.4783 32.7141 15.8808C18.1264 21.2833 10.676 37.5004 16.0731 52.1027C21.4701 66.705 37.671 74.1629 52.2587 68.7604Z" fill="white" stroke="#231F20" stroke-width="1.5" stroke-miterlimit="10"/>
<path d="M42.4897 19.1873C54.8028 19.1873 64.7795 29.174 64.7795 41.4994" stroke="#231F20" stroke-width="1.5" stroke-miterlimit="10" stroke-linecap="round" stroke-linejoin="round"/>
</svg>
