<svg width="814" height="899" viewBox="0 0 814 899" fill="none" xmlns="http://www.w3.org/2000/svg">
<g clip-path="url(#clip0)">
<path d="M436.54 644.296C431.614 644.296 426.689 642.972 422.332 640.702C421.385 640.134 420.816 639.189 420.816 638.243C420.627 627.651 425.931 617.626 435.024 612.141C439.76 609.304 445.064 607.791 450.558 607.791C455.484 607.791 460.409 609.115 464.766 611.385C465.713 611.952 466.282 612.898 466.282 613.844C466.471 624.436 461.167 634.46 452.074 639.945C447.338 642.782 442.033 644.296 436.54 644.296Z" fill="#2F6CAD"/>
<path d="M405.282 644.296C399.788 644.296 394.484 642.782 389.748 639.945C380.655 634.46 375.351 624.436 375.54 613.844C375.54 612.898 376.109 611.763 377.056 611.385C381.413 609.115 386.338 607.791 391.264 607.791C396.757 607.791 402.062 609.304 406.798 612.141C415.891 617.626 421.195 627.651 421.006 638.243C421.006 639.189 420.437 640.324 419.49 640.702C415.133 642.972 410.208 644.296 405.282 644.296Z" fill="#2F6CAD"/>
<path d="M436.54 706.902C431.614 706.902 426.689 705.578 422.332 703.308C421.385 702.741 420.816 701.795 420.816 700.849C420.627 690.257 425.931 680.233 435.024 674.748C439.76 671.911 445.064 670.397 450.558 670.397C455.484 670.397 460.409 671.721 464.766 673.991C465.713 674.559 466.282 675.504 466.282 676.45C466.471 687.042 461.167 697.067 452.074 702.552C447.338 705.389 442.033 706.902 436.54 706.902Z" fill="#2F6CAD"/>
<path d="M405.282 706.902C399.788 706.902 394.484 705.389 389.748 702.552C380.655 697.067 375.351 687.042 375.54 676.45C375.54 675.504 376.109 674.369 377.056 673.991C381.413 671.721 386.338 670.397 391.264 670.397C396.757 670.397 402.062 671.911 406.798 674.748C415.891 680.233 421.195 690.257 421.006 700.849C421.006 701.795 420.437 702.93 419.49 703.308C415.133 705.578 410.208 706.902 405.282 706.902Z" fill="#2F6CAD"/>
<path d="M436.54 766.902C431.614 766.902 426.689 765.578 422.332 763.308C421.385 762.741 420.816 761.795 420.816 760.849C420.627 750.257 425.931 740.233 435.024 734.748C439.76 731.911 445.064 730.397 450.558 730.397C455.484 730.397 460.409 731.721 464.766 733.991C465.713 734.559 466.282 735.504 466.282 736.45C466.471 747.042 461.167 757.067 452.074 762.552C447.338 765.389 442.033 766.902 436.54 766.902Z" fill="#2F6CAD"/>
<path d="M405.282 766.902C399.788 766.902 394.484 765.389 389.748 762.552C380.655 757.067 375.351 747.042 375.54 736.45C375.54 735.504 376.109 734.369 377.056 733.991C381.413 731.721 386.338 730.397 391.264 730.397C396.757 730.397 402.062 731.911 406.798 734.748C415.891 740.233 421.195 750.257 421.006 760.849C421.006 761.795 420.437 762.93 419.49 763.308C415.133 765.578 410.208 766.902 405.282 766.902Z" fill="#2F6CAD"/>
<path d="M436.54 826.902C431.614 826.902 426.689 825.578 422.332 823.308C421.385 822.741 420.816 821.795 420.816 820.849C420.627 810.257 425.931 800.233 435.024 794.748C439.76 791.911 445.064 790.397 450.558 790.397C455.484 790.397 460.409 791.721 464.766 793.991C465.713 794.559 466.282 795.504 466.282 796.45C466.471 807.042 461.167 817.067 452.074 822.552C447.338 825.389 442.033 826.902 436.54 826.902Z" fill="#2F6CAD"/>
<path d="M405.282 826.902C399.788 826.902 394.484 825.389 389.748 822.552C380.655 817.067 375.351 807.042 375.54 796.45C375.54 795.504 376.109 794.369 377.056 793.991C381.413 791.721 386.338 790.397 391.264 790.397C396.757 790.397 402.062 791.911 406.798 794.748C415.891 800.233 421.195 810.257 421.006 820.849C421.006 821.795 420.437 822.93 419.49 823.308C415.133 825.578 410.208 826.902 405.282 826.902Z" fill="#2F6CAD"/>
<path d="M421.006 640.513V896.217" stroke="#2F6CAD" stroke-width="4.027" stroke-miterlimit="10" stroke-linecap="round" stroke-linejoin="round"/>
<path d="M576.336 589.444C571.41 589.444 566.485 588.12 562.128 585.85C561.181 585.282 560.612 584.337 560.612 583.391C560.423 572.799 565.727 562.774 574.82 557.289C579.556 554.452 584.86 552.939 590.354 552.939C595.279 552.939 600.205 554.263 604.562 556.533C605.509 557.1 606.077 558.046 606.077 558.992C606.267 569.584 600.962 579.608 591.869 585.093C587.134 587.93 581.64 589.444 576.336 589.444Z" fill="#2F6CAD"/>
<path d="M545.078 589.444C539.584 589.444 534.28 587.93 529.544 585.093C520.451 579.608 515.147 569.584 515.336 558.992C515.336 558.046 515.905 556.911 516.852 556.533C521.209 554.263 526.134 552.939 531.06 552.939C536.553 552.939 541.858 554.452 546.594 557.289C555.687 562.774 560.991 572.799 560.801 583.391C560.801 584.337 560.233 585.472 559.286 585.85C554.929 588.309 550.003 589.444 545.078 589.444Z" fill="#2F6CAD"/>
<path d="M576.336 515.867C571.41 515.867 566.485 514.543 562.128 512.274C561.181 511.706 560.612 510.761 560.612 509.815C560.423 499.223 565.727 489.198 574.82 483.713C579.556 480.876 584.86 479.363 590.354 479.363C595.279 479.363 600.205 480.687 604.562 482.956C605.509 483.524 606.077 484.47 606.077 485.415C606.267 496.007 600.962 506.032 591.869 511.517C587.134 514.354 581.64 515.867 576.336 515.867Z" fill="#2F6CAD"/>
<path d="M529.733 511.517C520.64 506.032 515.336 496.007 515.525 485.415C515.525 484.47 516.094 483.335 517.041 482.956C521.398 480.687 526.323 479.363 531.249 479.363C536.743 479.363 542.047 480.876 546.783 483.713C555.876 489.198 561.18 499.223 560.991 509.815C560.991 510.761 560.422 511.895 559.475 512.274C555.118 514.543 550.193 515.867 545.267 515.867C539.774 515.867 534.469 514.354 529.733 511.517Z" fill="#2F6CAD"/>
<path d="M576.336 670.397C571.41 670.397 566.485 669.073 562.128 666.803C561.181 666.236 560.612 665.29 560.612 664.345C560.423 653.753 565.727 643.728 574.82 638.243C579.556 635.406 584.86 633.893 590.354 633.893C595.279 633.893 600.205 635.217 604.562 637.486C605.509 638.054 606.077 638.999 606.077 639.945C606.267 650.537 600.962 660.562 591.869 666.047C587.134 668.884 581.64 670.397 576.336 670.397Z" fill="#2F6CAD"/>
<path d="M545.078 670.397C539.584 670.397 534.28 668.884 529.544 666.047C520.451 660.562 515.147 650.537 515.336 639.945C515.336 638.999 515.905 637.865 516.852 637.486C521.209 635.217 526.134 633.893 531.06 633.893C536.553 633.893 541.858 635.406 546.594 638.243C555.687 643.728 560.991 653.753 560.801 664.345C560.801 665.29 560.233 666.425 559.286 666.803C554.929 669.073 550.003 670.397 545.078 670.397Z" fill="#2F6CAD"/>
<path d="M576.336 751.397C571.41 751.397 566.485 750.073 562.128 747.803C561.181 747.236 560.612 746.29 560.612 745.345C560.423 734.753 565.727 724.728 574.82 719.243C579.556 716.406 584.86 714.893 590.354 714.893C595.279 714.893 600.205 716.217 604.562 718.486C605.509 719.054 606.077 719.999 606.077 720.945C606.267 731.537 600.962 741.562 591.869 747.047C587.134 749.884 581.64 751.397 576.336 751.397Z" fill="#2F6CAD"/>
<path d="M545.078 751.397C539.584 751.397 534.28 749.884 529.544 747.047C520.451 741.562 515.147 731.537 515.336 720.945C515.336 719.999 515.905 718.865 516.852 718.486C521.209 716.217 526.134 714.893 531.06 714.893C536.553 714.893 541.858 716.406 546.594 719.243C555.687 724.728 560.991 734.753 560.801 745.345C560.801 746.29 560.233 747.425 559.286 747.803C554.929 750.073 550.003 751.397 545.078 751.397Z" fill="#2F6CAD"/>
<path d="M576.336 832.397C571.41 832.397 566.485 831.073 562.128 828.803C561.181 828.236 560.612 827.29 560.612 826.345C560.423 815.753 565.727 805.728 574.82 800.243C579.556 797.406 584.86 795.893 590.354 795.893C595.279 795.893 600.205 797.217 604.562 799.486C605.509 800.054 606.077 800.999 606.077 801.945C606.267 812.537 600.962 822.562 591.869 828.047C587.134 830.884 581.64 832.397 576.336 832.397Z" fill="#2F6CAD"/>
<path d="M545.078 832.397C539.584 832.397 534.28 830.884 529.544 828.047C520.451 822.562 515.147 812.537 515.336 801.945C515.336 800.999 515.905 799.865 516.852 799.486C521.209 797.217 526.134 795.893 531.06 795.893C536.553 795.893 541.858 797.406 546.594 800.243C555.687 805.728 560.991 815.753 560.801 826.345C560.801 827.29 560.233 828.425 559.286 828.803C554.929 831.073 550.003 832.397 545.078 832.397Z" fill="#2F6CAD"/>
<path d="M560.802 457.233V897.217" stroke="#2F6CAD" stroke-width="4.027" stroke-miterlimit="10" stroke-linecap="round" stroke-linejoin="round"/>
<path d="M560.612 457.233C590.639 457.233 614.981 432.929 614.981 402.949C614.981 372.969 590.639 348.665 560.612 348.665C530.585 348.665 506.243 372.969 506.243 402.949C506.243 432.929 530.585 457.233 560.612 457.233Z" stroke="#E8B137" stroke-width="4.027" stroke-miterlimit="10" stroke-linecap="round" stroke-linejoin="round"/>
<path d="M603.867 413.148C609.493 389.359 594.739 365.521 570.913 359.904C547.087 354.286 523.212 369.017 517.586 392.806C511.96 416.595 526.714 440.433 550.54 446.05C574.366 451.667 598.241 436.936 603.867 413.148Z" fill="#FCC34F" stroke="#E8B137" stroke-width="4.027" stroke-miterlimit="10" stroke-linecap="round" stroke-linejoin="round"/>
<path d="M154.267 566.369C153.699 564.288 154.835 562.207 156.919 561.451C159.003 560.883 161.087 562.018 161.845 564.099C162.413 566.179 161.276 568.26 159.192 569.017C158.814 569.206 158.435 569.206 158.056 569.206C156.351 569.206 154.835 568.071 154.267 566.369ZM139.491 568.449C137.407 567.693 136.46 565.423 137.218 563.342C137.975 561.262 140.249 560.316 142.143 561.073C144.227 561.829 145.174 564.099 144.416 565.99C143.848 567.503 142.332 568.449 140.817 568.449C140.438 568.638 139.87 568.638 139.491 568.449ZM169.801 558.614C168.096 557.29 167.717 554.831 169.043 553.129C170.369 551.426 172.832 551.048 174.537 552.372C176.242 553.696 176.621 556.155 175.295 557.857C174.537 558.803 173.4 559.37 172.264 559.37C171.316 559.37 170.559 559.181 169.801 558.614ZM124.146 555.966C123.01 554.074 123.578 551.805 125.283 550.67C127.177 549.535 129.451 550.102 130.587 551.805C131.724 553.696 131.156 555.966 129.451 557.101C128.882 557.479 128.125 557.668 127.367 557.668C126.041 557.857 124.904 557.29 124.146 555.966ZM173.779 539.132C173.779 537.051 175.484 535.16 177.757 535.16C179.841 535.16 181.736 536.862 181.736 539.132C181.736 541.213 180.031 543.104 177.757 543.104C175.484 543.104 173.779 541.402 173.779 539.132ZM122.82 541.213C120.736 541.023 119.032 539.132 119.221 537.051C119.41 534.971 121.305 533.269 123.389 533.458C125.472 533.647 127.177 535.538 126.988 537.619C126.798 539.699 125.094 541.213 123.01 541.213C123.01 541.213 123.01 541.213 122.82 541.213ZM170.938 527.973C169.99 526.081 170.559 523.811 172.453 522.677C174.347 521.731 176.621 522.298 177.757 524.19C178.704 526.081 178.136 528.351 176.242 529.486C175.673 529.864 174.916 530.053 174.347 530.053C173.021 530.053 171.695 529.297 170.938 527.973ZM127.177 524.19C125.472 522.866 125.283 520.407 126.798 518.705C128.125 517.002 130.587 516.813 132.292 518.326C133.997 519.65 134.187 522.109 132.671 523.811C131.913 524.757 130.777 525.135 129.64 525.135C128.882 525.135 127.935 524.946 127.177 524.19ZM160.14 517.948C158.245 517.002 157.298 514.733 158.245 512.841C159.192 510.95 161.466 510.004 163.36 510.95C165.254 511.895 166.202 514.165 165.254 516.057C164.686 517.57 163.171 518.326 161.655 518.326C161.087 518.326 160.518 518.137 160.14 517.948ZM140.817 513.409C140.438 511.328 141.764 509.247 143.848 508.869C145.932 508.491 148.016 509.815 148.394 511.895C148.773 513.976 147.447 516.057 145.363 516.435C145.174 516.435 144.795 516.435 144.606 516.435C142.711 516.435 141.196 515.111 140.817 513.409Z" fill="white"/>
<path d="M408.66 160.251C407.888 157.422 409.433 154.594 412.265 153.566C415.098 152.794 417.931 154.337 418.961 157.165C419.733 159.993 418.188 162.822 415.356 163.85C414.841 164.107 414.325 164.107 413.81 164.107C411.493 164.107 409.433 162.565 408.66 160.251ZM388.574 163.079C385.741 162.05 384.454 158.965 385.484 156.137C386.514 153.308 389.604 152.023 392.179 153.051C395.012 154.08 396.299 157.165 395.269 159.736C394.497 161.793 392.437 163.079 390.376 163.079C389.861 163.336 389.089 163.336 388.574 163.079ZM429.776 149.709C427.459 147.909 426.944 144.567 428.746 142.252C430.549 139.938 433.897 139.424 436.214 141.224C438.532 143.024 439.047 146.366 437.244 148.68C436.214 149.966 434.669 150.737 433.124 150.737C431.837 150.737 430.807 150.48 429.776 149.709ZM367.715 146.109C366.17 143.538 366.942 140.453 369.26 138.91C371.835 137.367 374.925 138.139 376.471 140.453C378.016 143.024 377.243 146.109 374.925 147.652C374.153 148.166 373.123 148.423 372.093 148.423C370.29 148.68 368.745 147.909 367.715 146.109ZM435.184 123.226C435.184 120.398 437.502 117.827 440.592 117.827C443.425 117.827 446 120.141 446 123.226C446 126.054 443.682 128.625 440.592 128.625C437.502 128.625 435.184 126.311 435.184 123.226ZM365.912 126.054C363.08 125.797 360.762 123.226 361.02 120.398C361.277 117.569 363.852 115.255 366.685 115.513C369.518 115.77 371.835 118.341 371.578 121.169C371.32 123.997 369.003 126.054 366.17 126.054C366.17 126.054 366.17 126.054 365.912 126.054ZM431.322 108.056C430.034 105.485 430.807 102.4 433.382 100.857C435.957 99.5714 439.047 100.343 440.592 102.914C441.88 105.485 441.107 108.57 438.532 110.113C437.759 110.627 436.729 110.884 435.957 110.884C434.154 110.884 432.352 109.856 431.322 108.056ZM371.835 102.914C369.518 101.114 369.26 97.7716 371.32 95.4575C373.123 93.1435 376.471 92.8864 378.788 94.9433C381.106 96.7431 381.363 100.086 379.303 102.4C378.273 103.685 376.728 104.199 375.183 104.199C374.153 104.199 372.865 103.942 371.835 102.914ZM416.643 94.4291C414.068 93.1435 412.78 90.0581 414.068 87.487C415.356 84.9158 418.446 83.6302 421.021 84.9158C423.596 86.2014 424.884 89.2868 423.596 91.8579C422.824 93.9148 420.763 94.9433 418.703 94.9433C417.931 94.9433 417.158 94.6862 416.643 94.4291ZM390.376 88.2583C389.861 85.43 391.664 82.6018 394.497 82.0876C397.329 81.5733 400.162 83.3731 400.677 86.2014C401.192 89.0296 399.39 91.8579 396.557 92.3722C396.299 92.3722 395.784 92.3722 395.527 92.3722C392.952 92.3722 390.891 90.5723 390.376 88.2583Z" fill="white"/>
<path d="M651.922 259.866C650.785 255.705 653.058 251.355 657.226 250.22C661.393 249.085 665.751 251.355 666.887 255.516C668.024 259.677 665.751 264.027 661.583 265.162C660.825 265.351 660.067 265.54 659.31 265.54C656.089 265.54 652.869 263.271 651.922 259.866ZM622.18 263.649C618.201 262.136 616.118 257.596 617.633 253.624C619.149 249.652 623.695 247.572 627.673 249.085C631.652 250.598 633.735 255.138 632.22 259.11C631.083 262.325 628.052 264.216 624.832 264.216C624.074 264.216 623.127 264.027 622.18 263.649ZM682.989 244.167C679.58 241.519 678.822 236.791 681.474 233.197C684.126 229.792 688.862 229.036 692.461 231.684C695.871 234.332 696.629 239.06 693.977 242.654C692.461 244.735 690.188 245.68 687.725 245.68C686.02 245.87 684.505 245.302 682.989 244.167ZM591.491 239.06C589.217 235.467 590.165 230.549 593.764 228.279C597.363 226.01 602.289 226.955 604.562 230.549C606.835 234.143 605.888 239.06 602.289 241.33C600.963 242.087 599.447 242.654 598.121 242.654C595.469 242.654 593.006 241.33 591.491 239.06ZM690.756 205.393C690.756 201.043 694.166 197.638 698.523 197.638C702.88 197.638 706.29 201.043 706.29 205.393C706.29 209.743 702.88 213.148 698.523 213.148C694.356 213.148 690.756 209.743 690.756 205.393ZM589.028 209.176C584.671 208.798 581.45 205.204 581.829 200.854C582.208 196.503 585.808 193.288 590.165 193.666C594.522 194.044 597.742 197.638 597.363 201.988C596.984 206.15 593.575 209.176 589.596 209.176C589.407 209.176 589.217 209.176 589.028 209.176ZM685.073 183.074C682.989 179.291 684.315 174.563 688.104 172.482C691.893 170.402 696.629 171.726 698.713 175.508C700.797 179.291 699.471 184.02 695.682 186.1C694.545 186.668 693.219 187.046 691.893 187.046C689.241 187.046 686.589 185.533 685.073 183.074ZM597.742 175.508C594.522 172.671 594.143 167.754 596.984 164.538C599.826 161.323 604.751 160.944 607.972 163.782C611.192 166.619 611.571 171.536 608.73 174.752C607.214 176.454 604.941 177.4 602.857 177.4C600.963 177.4 599.068 176.832 597.742 175.508ZM663.477 162.836C659.499 161.134 657.794 156.405 659.689 152.433C661.393 148.461 666.129 146.759 670.108 148.65C674.086 150.352 675.791 155.081 673.896 159.053C672.57 161.89 669.729 163.592 666.887 163.592C665.561 163.592 664.424 163.403 663.477 162.836ZM624.832 153.757C623.885 149.596 626.537 145.435 630.894 144.489C635.062 143.543 639.229 146.191 640.176 150.542C641.124 154.703 638.471 158.864 634.114 159.81C633.546 159.999 632.978 159.999 632.409 159.999C628.81 159.999 625.59 157.351 624.832 153.757Z" fill="white"/>
<path d="M118.842 277.188L11.9993 204.558L46.2876 154.813L161.277 200.018L118.842 277.188Z" fill="#F5DBC0"/>
<path d="M447.517 332.986L415.502 275.865C414.176 273.406 410.956 272.46 408.304 273.784C405.841 275.108 404.894 278.324 406.22 280.972L406.409 281.35C396.369 289.294 392.012 302.156 394.854 314.45L302.408 354.17L334.233 252.222C336.885 252.978 339.538 251.844 340.674 249.196C341.811 246.548 340.485 243.521 337.833 242.386L216.592 192.453C213.94 191.318 210.909 192.642 209.772 195.29C208.636 197.749 209.772 200.775 212.235 201.91L211.098 204.18C203.71 195.857 191.207 185.076 174.537 183.752C155.972 182.239 137.407 192.642 119.6 214.393C88.1531 252.978 106.718 281.728 121.684 304.993C133.808 323.718 141.196 336.58 134.376 351.9L129.451 361.357L129.072 361.168C126.42 360.033 123.389 361.357 122.252 364.005C121.115 366.653 122.441 369.68 125.094 370.814L277.402 433.61C280.054 434.745 283.085 433.421 284.222 430.773C285.358 428.125 284.032 425.098 281.38 423.964L281.001 423.774L281.191 422.829L404.704 330.905C413.608 339.228 426.679 341.876 438.235 337.714L438.424 338.093C438.993 339.228 439.94 339.984 441.077 340.362C442.592 340.93 444.108 340.93 445.623 340.173C448.086 338.66 449.033 335.445 447.517 332.986ZM134.944 296.481C120.168 273.784 112.591 258.464 136.839 228.768C151.236 211.178 159.95 198.505 173.021 199.451C187.987 200.586 198.785 213.826 202.953 219.5L149.342 322.772C145.932 313.504 140.249 304.804 134.944 296.481Z" fill="#B73A46"/>
<path d="M125.852 293.077C128.504 294.779 131.535 295.725 134.566 295.725C121.305 275.297 114.296 260.733 131.345 235.956C125.852 235.01 120.358 236.901 117.327 241.441C114.107 246.548 115.054 253.168 119.411 257.896C113.349 256.005 106.718 257.896 103.498 262.814C103.309 263.192 103.119 263.57 102.93 263.949C103.877 270.19 105.771 276.054 108.423 281.728C108.613 281.917 108.992 282.106 109.181 282.296L125.852 293.077Z" fill="#F0F1F1"/>
<path d="M145.174 198.505C141.954 203.612 142.901 210.232 147.258 214.961C141.196 213.069 134.566 214.961 131.345 219.878C128.504 224.418 129.072 230.281 132.103 234.821C133.619 232.74 135.134 230.849 136.839 228.579C150.479 211.934 159.193 199.451 171.317 199.262L165.255 195.29C158.056 190.94 149.152 192.453 145.174 198.505Z" fill="#F0F1F1"/>
<path d="M180.978 200.586L164.308 189.805C157.298 185.265 148.205 186.589 144.227 192.831C141.007 197.938 141.954 204.558 146.311 209.286C140.249 207.395 133.619 209.286 130.398 214.204C127.178 219.311 128.125 225.931 132.482 230.66C126.42 228.768 119.79 230.66 116.569 235.577C113.349 240.684 114.296 247.304 118.653 252.033C112.591 250.141 105.961 252.033 102.74 256.95C98.7619 263.192 101.225 271.893 108.234 276.432L124.904 287.213C131.914 291.753 141.007 290.429 144.985 284.187C148.205 279.08 147.258 272.46 142.901 267.732C148.963 269.623 155.593 267.732 158.814 262.814C162.034 257.707 161.087 251.087 156.73 246.358C162.792 248.25 169.422 246.358 172.643 241.441C175.863 236.334 174.916 229.714 170.559 224.985C176.621 226.877 183.251 224.985 186.472 220.068C190.45 213.826 187.987 205.125 180.978 200.586Z" fill="#F5DBC0"/>
<path d="M51.2125 137.223L70.3458 151.598C79.8177 158.785 91.5629 162.19 103.497 161.622L133.618 159.92C137.596 159.163 141.764 160.487 144.606 163.514L173.779 194.155C176.431 196.803 177.568 200.586 176.999 204.368L172.642 231.983C172.264 234.631 169.611 236.523 166.959 235.955C158.056 234.253 151.236 226.876 150.099 217.798L148.394 205.314L134.376 194.344C134.376 194.344 96.8671 225.742 44.9611 200.775L45.9083 154.624L51.2125 137.223Z" fill="#F5DBC0"/>
<path d="M22.6074 218.744L30.5638 224.04L77.5445 149.896L69.0198 144.032L22.6074 218.744Z" fill="white"/>
<path d="M-48.8106 179.591L18.8189 224.796L71.8616 139.871L-49 54L-48.8106 179.591Z" fill="#2F6CAD"/>
<path d="M14.4621 194.344C10.105 192.831 5.17964 195.101 3.66413 199.451C2.14862 203.801 4.42188 208.719 8.77897 210.232C13.136 211.745 18.0614 209.475 19.577 205.125C21.2819 200.775 18.8192 196.046 14.4621 194.344Z" fill="#EDEDED"/>
<path d="M-6.37615 180.159C-10.7332 178.645 -15.6586 180.915 -17.1741 185.265C-18.6896 189.616 -16.4164 194.533 -12.0593 196.047C-7.70222 197.56 -2.77682 195.29 -1.26132 190.94C0.443624 186.589 -2.01907 181.672 -6.37615 180.159Z" fill="#EDEDED"/>
<path d="M801.512 445.506L719.485 311.026L637.648 445.506H675.157V899.272H764.003V445.506H801.512Z" fill="white"/>
<path d="M343.516 572.421L289.147 483.146L234.968 572.421H259.785V897.271H318.7V572.421H343.516Z" stroke="#2F6CAD" stroke-width="4.027" stroke-miterlimit="10" stroke-linecap="round" stroke-linejoin="round"/>
<path d="M264.52 649.402L212.993 564.667L161.276 649.402H184.956V899.65H240.84V649.402H264.52Z" fill="#E8B137"/>
<path d="M805.49 631.245L753.016 544.996L700.352 631.245H724.411V899.217H781.432V631.245H805.49Z" fill="#B73A46"/>
<path d="M421.005 661.129V598.145" stroke="#2F6CAD" stroke-width="4.027" stroke-miterlimit="10" stroke-linecap="round" stroke-linejoin="round"/>
<path d="M420.816 598.145C450.843 598.145 475.185 573.841 475.185 543.861C475.185 513.88 450.843 489.577 420.816 489.577C390.789 489.577 366.447 513.88 366.447 543.861C366.447 573.841 390.789 598.145 420.816 598.145Z" stroke="#E8B137" stroke-width="4.027" stroke-miterlimit="10" stroke-linecap="round" stroke-linejoin="round"/>
<path d="M452.095 575.192C469.407 557.908 469.407 529.885 452.095 512.601C434.784 495.316 406.717 495.316 389.406 512.601C372.095 529.885 372.095 557.908 389.406 575.192C406.717 592.477 434.784 592.477 452.095 575.192Z" fill="#FCC34F" stroke="#E8B137" stroke-width="4.027" stroke-miterlimit="10" stroke-linecap="round" stroke-linejoin="round"/>
</g>
<defs>
<clipPath id="clip0">
<rect width="814" height="899" fill="white"/>
</clipPath>
</defs>
</svg>
