<svg width="406" height="406" viewBox="0 0 406 406" fill="none" xmlns="http://www.w3.org/2000/svg">
<circle cx="203" cy="203" r="203" fill="#CBEFFA"/>
<path d="M257.039 178.321C257.039 176.298 256.912 174.276 256.597 172.316L250.03 170.041C248.199 165.743 247.315 163.594 245.483 159.296L248.388 152.975C246.052 149.941 243.336 147.223 240.242 144.948L233.991 147.982C229.697 146.212 227.487 145.327 223.194 143.62L220.794 137.11C219.026 136.857 217.195 136.731 215.364 136.731C213.343 136.731 211.323 136.857 209.365 137.173L207.155 143.747C202.861 145.58 200.714 146.465 196.421 148.298L190.106 145.39C187.075 147.729 184.36 150.447 182.087 153.544L185.118 159.801C183.35 164.099 182.466 166.312 180.761 170.61L174.257 173.012C174.004 174.782 173.878 176.615 173.878 178.448C173.878 180.47 174.004 182.493 174.32 184.452L180.887 186.728C182.718 191.026 183.602 193.175 185.434 197.473L182.529 203.794C184.865 206.828 187.58 209.546 190.674 211.821L196.926 208.787C201.219 210.557 203.43 211.442 207.723 213.148L210.123 219.659C211.891 219.912 213.722 220.038 215.553 220.038C217.574 220.038 219.594 219.912 221.552 219.595L223.825 213.022C228.119 211.189 230.266 210.304 234.559 208.471L240.874 211.379C243.905 209.04 246.62 206.322 248.893 203.225L245.862 196.967C247.63 192.669 248.514 190.457 250.219 186.159L256.723 183.757C256.912 181.987 257.039 180.154 257.039 178.321Z" fill="#231F20"/>
<path d="M348.104 176.041L355.744 170.163C355.492 164.032 354.039 158.217 351.577 152.97L342.105 151.264C338.885 147.851 336.612 145.449 333.328 142.099L332.065 132.554C326.95 129.836 321.204 128.067 315.079 127.561L308.891 134.893C304.345 135.968 301.125 136.789 296.578 137.864L287.675 134.198C282.623 137.358 278.267 141.53 274.857 146.397L278.14 155.435C276.814 159.923 275.867 163.147 274.541 167.634L266.901 173.513C267.153 179.644 268.606 185.459 271.068 190.705L280.54 192.412C283.76 195.825 286.033 198.227 289.317 201.577L290.58 211.121C295.694 213.839 301.44 215.609 307.565 216.114L313.753 208.782C318.3 207.708 321.52 206.886 326.066 205.812L334.97 209.478C340.021 206.317 344.378 202.146 347.788 197.279L344.505 188.24C345.831 183.689 346.778 180.529 348.104 176.041Z" fill="#B73A46" stroke="#231F20" stroke-width="1.5" stroke-miterlimit="10"/>
<path d="M282.422 244.029L272.13 242.26C270.867 240.616 270.109 239.605 268.847 237.962L269.731 228.796C266.068 226.205 261.964 224.309 257.481 223.108L250.977 228.86C248.893 228.796 247.63 228.796 245.546 228.733L239.421 222.855C234.875 223.866 230.644 225.763 226.856 228.228L227.298 237.013C225.972 238.594 225.151 239.605 223.825 241.185L214.101 242.449C212.206 246.115 210.88 250.161 210.312 254.395L218.963 260.59C219.405 262.612 219.657 263.877 220.036 265.899L213.722 276.392C215.3 279.678 217.384 282.649 219.784 285.304L232.223 281.764C234.054 282.712 235.191 283.281 237.022 284.229L241.884 297.25C243.842 297.566 245.799 297.692 247.82 297.692C249.082 297.692 250.408 297.629 251.608 297.503L256.975 284.609C258.87 283.724 260.006 283.218 261.901 282.333L274.593 286.505C277.055 284.04 279.139 281.259 280.844 278.225L274.656 266.91C275.161 264.888 275.477 263.687 275.982 261.664L285.453 255.47C285.201 251.551 284.127 247.632 282.422 244.029Z" fill="#2F6CAD" stroke="#231F20" stroke-width="1.5" stroke-miterlimit="10"/>
<path d="M339.804 178.736C343.589 163.024 333.933 147.216 318.237 143.427C302.541 139.639 286.749 149.304 282.964 165.016C279.18 180.728 288.836 196.536 304.532 200.324C320.227 204.113 336.02 194.447 339.804 178.736Z" fill="white" stroke="#231F20" stroke-width="1.5" stroke-miterlimit="10"/>
<path d="M310.596 146.839C324.425 146.839 335.601 158.027 335.601 171.869" stroke="#231F20" stroke-width="1.5" stroke-miterlimit="10" stroke-linecap="round" stroke-linejoin="round"/>
<path d="M225.259 204.76C239.846 199.358 247.297 183.141 241.9 168.538C236.503 153.936 220.302 146.478 205.714 151.881C191.126 157.283 183.676 173.5 189.073 188.103C194.47 202.705 210.671 210.163 225.259 204.76Z" fill="white" stroke="#231F20" stroke-width="1.5" stroke-miterlimit="10"/>
<path d="M198.252 251.551C198.252 249.212 198.062 246.937 197.746 244.725L190.295 242.133C188.212 237.266 187.201 234.801 185.118 229.934L188.464 222.792C185.812 219.379 182.718 216.281 179.245 213.69L172.173 217.103C167.311 215.144 164.785 214.132 159.923 212.11L157.208 204.714C155.187 204.462 153.167 204.335 151.083 204.335C148.747 204.335 146.474 204.525 144.264 204.841L141.675 212.299C136.813 214.385 134.35 215.396 129.488 217.482L122.353 214.132C118.943 216.787 115.849 219.884 113.26 223.361L116.67 230.44C114.712 235.307 113.702 237.835 111.681 242.702L104.293 245.42C104.041 247.443 103.915 249.465 103.915 251.551C103.915 253.89 104.104 256.165 104.42 258.377L111.871 260.969C113.954 265.836 114.965 268.301 117.049 273.168L113.702 280.31C116.354 283.724 119.448 286.821 122.921 289.412L129.993 285.999C134.855 287.958 137.381 288.97 142.243 290.992L144.958 298.388C146.979 298.641 148.999 298.767 151.083 298.767C153.419 298.767 155.693 298.577 157.903 298.261L160.492 290.803C165.354 288.717 167.816 287.706 172.678 285.62L179.814 288.97C183.223 286.315 186.317 283.218 188.906 279.742L185.497 272.662C187.454 267.795 188.464 265.267 190.485 260.4L197.873 257.682C198.062 255.66 198.252 253.637 198.252 251.551Z" fill="#00AEEF" stroke="#231F20" stroke-width="1.5" stroke-miterlimit="10"/>
<path d="M151.146 283.534C168.792 283.534 183.097 269.215 183.097 251.551C183.097 233.887 168.792 219.568 151.146 219.568C133.5 219.568 119.195 233.887 119.195 251.551C119.195 269.215 133.5 283.534 151.146 283.534Z" fill="white" stroke="#231F20" stroke-width="1.5" stroke-miterlimit="10"/>
<path d="M151.146 283.534C168.792 283.534 183.097 269.215 183.097 251.551C183.097 233.887 168.792 219.568 151.146 219.568C133.5 219.568 119.195 233.887 119.195 251.551C119.195 269.215 133.5 283.534 151.146 283.534Z" fill="white" stroke="#231F20" stroke-width="1.5" stroke-miterlimit="10"/>
<path d="M270.991 262.241C273.07 249.564 264.49 237.601 251.826 235.52C239.161 233.439 227.21 242.028 225.131 254.705C223.052 267.381 231.633 279.345 244.297 281.426C256.961 283.507 268.912 274.918 270.991 262.241Z" fill="white" stroke="#231F20" stroke-width="1.5" stroke-miterlimit="10"/>
<path d="M270.991 262.241C273.07 249.564 264.49 237.601 251.826 235.52C239.161 233.439 227.21 242.028 225.131 254.705C223.052 267.381 231.633 279.345 244.297 281.426C256.961 283.507 268.912 274.918 270.991 262.241Z" fill="white" stroke="#231F20" stroke-width="1.5" stroke-miterlimit="10"/>
<path d="M132.224 155.733L119.911 155.165C118.206 153.395 117.132 152.32 115.427 150.614L115.049 139.742C110.376 137.277 105.198 135.57 99.8309 134.938L93.0113 142.586C90.5487 142.839 89.0964 143.029 86.6338 143.282L78.5514 137.277C73.3736 139.173 68.6378 142.017 64.5965 145.494L66.4277 155.797C65.1017 157.882 64.2808 159.147 62.9548 161.232L51.7152 164.203C50.0103 168.817 49.1263 173.748 49 178.867L60.1133 184.872C60.9342 187.211 61.3762 188.601 62.1971 190.94L56.3247 204.277C58.661 207.879 61.5656 211.103 64.786 213.884L78.8671 207.879C81.2034 208.701 82.5926 209.207 84.9289 210.028L92.5693 224.629C94.9056 224.693 97.3051 224.566 99.6414 224.313C101.157 224.124 102.672 223.871 104.125 223.492L108.545 207.5C110.628 206.173 111.891 205.414 113.975 204.087L129.572 207.121C132.097 203.834 134.118 200.231 135.697 196.439L126.856 183.987C127.172 181.522 127.298 180.068 127.614 177.603L137.843 168.881C136.644 164.14 134.749 159.715 132.224 155.733Z" fill="#B73A46" stroke="#231F20" stroke-width="1.5" stroke-miterlimit="10"/>
<path d="M117.806 190.85C124.931 177.365 119.785 160.651 106.313 153.52C92.8415 146.388 76.1448 151.539 69.0203 165.024C61.8957 178.51 67.0412 195.223 80.5131 202.355C93.985 209.486 110.682 204.336 117.806 190.85Z" fill="white" stroke="#231F20" stroke-width="1.5" stroke-miterlimit="10"/>
<path d="M320.384 224.862C320.384 224.862 320.447 225.43 320.573 226.442" stroke="#231F20" stroke-width="1.5" stroke-linecap="round" stroke-linejoin="round"/>
<path d="M320.636 228.338C320.889 236.302 319.247 255.896 298.22 264.682" stroke="#231F20" stroke-width="1.5" stroke-linecap="round" stroke-linejoin="round" stroke-dasharray="5.12 5.12"/>
<path d="M297.336 265.062C296.831 265.251 296.389 265.441 295.884 265.63" stroke="#231F20" stroke-width="1.5" stroke-linecap="round" stroke-linejoin="round"/>
<path d="M297.463 260.826L298.283 261.269L296.2 265.441L300.557 267.21L300.178 268.095L294.937 265.946L297.463 260.826Z" fill="#231F20"/>
<path d="M333.995 256.945L344.792 246.01L355.59 256.945" stroke="#231F20" stroke-width="1.5" stroke-miterlimit="10" stroke-linecap="round" stroke-linejoin="round"/>
<path d="M333.995 241.522L344.792 251.003L355.59 241.522" fill="white"/>
<path d="M333.995 241.522L344.792 251.003L355.59 241.522" stroke="#231F20" stroke-width="1.5" stroke-miterlimit="10" stroke-linecap="round" stroke-linejoin="round"/>
<path d="M355.59 241.522H333.995V256.945H355.59V241.522Z" stroke="#231F20" stroke-width="1.5" stroke-miterlimit="10" stroke-linecap="round" stroke-linejoin="round"/>
<path d="M356.663 229.323V234.632" stroke="#231F20" stroke-width="1.5" stroke-miterlimit="10" stroke-linecap="round" stroke-linejoin="round"/>
<path d="M359.252 231.978H354.011" stroke="#231F20" stroke-width="1.5" stroke-miterlimit="10" stroke-linecap="round" stroke-linejoin="round"/>
<path d="M57.8596 262.486V267.732" stroke="#231F20" stroke-width="1.5" stroke-miterlimit="10" stroke-linecap="round" stroke-linejoin="round"/>
<path d="M60.4485 265.141H55.2075" stroke="#231F20" stroke-width="1.5" stroke-miterlimit="10" stroke-linecap="round" stroke-linejoin="round"/>
<path d="M200.652 368V373.246" stroke="#231F20" stroke-width="1.5" stroke-miterlimit="10" stroke-linecap="round" stroke-linejoin="round"/>
<path d="M203.241 370.655H198" stroke="#231F20" stroke-width="1.5" stroke-miterlimit="10" stroke-linecap="round" stroke-linejoin="round"/>
<path d="M263.606 208.444V213.69" stroke="#231F20" stroke-width="1.5" stroke-miterlimit="10" stroke-linecap="round" stroke-linejoin="round"/>
<path d="M266.258 211.035H261.017" stroke="#231F20" stroke-width="1.5" stroke-miterlimit="10" stroke-linecap="round" stroke-linejoin="round"/>
<path d="M338.252 114.626V119.872" stroke="#231F20" stroke-width="1.5" stroke-miterlimit="10" stroke-linecap="round" stroke-linejoin="round"/>
<path d="M340.904 117.218H335.663" stroke="#231F20" stroke-width="1.5" stroke-miterlimit="10" stroke-linecap="round" stroke-linejoin="round"/>
<path d="M184.044 97.3618V102.671" stroke="#231F20" stroke-width="1.5" stroke-miterlimit="10" stroke-linecap="round" stroke-linejoin="round"/>
<path d="M186.633 100.017H181.392" stroke="#231F20" stroke-width="1.5" stroke-miterlimit="10" stroke-linecap="round" stroke-linejoin="round"/>
<path d="M155.124 187.08V192.389" stroke="#231F20" stroke-width="1.5" stroke-miterlimit="10" stroke-linecap="round" stroke-linejoin="round"/>
<path d="M157.776 189.734H152.535" stroke="#231F20" stroke-width="1.5" stroke-miterlimit="10" stroke-linecap="round" stroke-linejoin="round"/>
<path d="M67.8595 123.177V128.423" stroke="#231F20" stroke-width="1.5" stroke-miterlimit="10" stroke-linecap="round" stroke-linejoin="round"/>
<path d="M70.4484 125.769H65.2075" stroke="#231F20" stroke-width="1.5" stroke-miterlimit="10" stroke-linecap="round" stroke-linejoin="round"/>
<path d="M246.652 57V62.2462" stroke="#231F20" stroke-width="1.5" stroke-miterlimit="10" stroke-linecap="round" stroke-linejoin="round"/>
<path d="M249.241 59.5916H244" stroke="#231F20" stroke-width="1.5" stroke-miterlimit="10" stroke-linecap="round" stroke-linejoin="round"/>
<path d="M274.652 77V82.2462" stroke="#231F20" stroke-width="1.5" stroke-miterlimit="10" stroke-linecap="round" stroke-linejoin="round"/>
<path d="M277.241 79.5916H272" stroke="#231F20" stroke-width="1.5" stroke-miterlimit="10" stroke-linecap="round" stroke-linejoin="round"/>
<path d="M161.881 161.616H157.271V163.007H161.881V161.616Z" fill="#231F20" stroke="#231F20" stroke-width="1.5" stroke-miterlimit="10" stroke-linecap="round" stroke-linejoin="round"/>
<path d="M169.9 145.499C169.9 149.544 167.564 153.02 164.154 154.727V159.467L161.881 161.616H157.271L154.998 159.467V154.727C151.588 153.02 149.252 149.544 149.252 145.499C149.252 139.81 153.861 135.196 159.544 135.196C165.227 135.196 169.9 139.81 169.9 145.499Z" stroke="#231F20" stroke-width="1.5" stroke-miterlimit="10" stroke-linecap="round" stroke-linejoin="round"/>
<path d="M155.061 159.468H164.217" stroke="#231F20" stroke-width="1.5" stroke-miterlimit="10" stroke-linecap="round" stroke-linejoin="round"/>
<path d="M155.061 154.727H164.217" stroke="#231F20" stroke-width="1.5" stroke-miterlimit="10" stroke-linecap="round" stroke-linejoin="round"/>
<path d="M155.061 156.876H164.217" stroke="#231F20" stroke-width="1.5" stroke-miterlimit="10" stroke-linecap="round" stroke-linejoin="round"/>
<path d="M154.303 143.097L159.607 148.406L165.038 142.97" stroke="#231F20" stroke-width="1.5" stroke-miterlimit="10" stroke-linecap="round" stroke-linejoin="round"/>
<path d="M159.608 148.406V154.727" stroke="#231F20" stroke-width="1.5" stroke-miterlimit="10" stroke-linecap="round" stroke-linejoin="round"/>
<path d="M78.2033 226.584C78.2033 226.584 77.9507 227.09 77.5087 228.038" stroke="#231F20" stroke-width="1.5" stroke-linecap="round" stroke-linejoin="round"/>
<path d="M76.8142 229.808C73.7202 237.898 68.4792 259.452 91.7793 273.99" stroke="#231F20" stroke-width="1.5" stroke-linecap="round" stroke-linejoin="round" stroke-dasharray="5.15 5.15"/>
<path d="M92.6633 274.495C93.1053 274.748 93.5473 275.001 94.0524 275.254" stroke="#231F20" stroke-width="1.5" stroke-linecap="round" stroke-linejoin="round"/>
<path d="M73.3413 227.532L73.657 228.417L78.0771 226.9L79.2768 231.388L80.1609 231.198L78.7085 225.636L73.3413 227.532Z" fill="#231F20"/>
<path d="M193.011 122.898C192.632 122.708 192.19 122.392 191.685 122.076" stroke="#231F20" stroke-width="1.5" stroke-linecap="round" stroke-linejoin="round"/>
<path d="M190.043 121.128C180.129 115.692 152.977 103.935 129.046 121.823" stroke="#231F20" stroke-width="1.5" stroke-linecap="round" stroke-linejoin="round" stroke-dasharray="4.99 4.99"/>
<path d="M128.288 122.392C127.846 122.708 127.467 123.024 127.025 123.403" stroke="#231F20" stroke-width="1.5" stroke-linecap="round" stroke-linejoin="round"/>
<path d="M192.253 117.968L191.369 118.22L192.695 122.708L188.086 123.719L188.338 124.668L193.895 123.403L192.253 117.968Z" fill="#231F20"/>
<path d="M88.2342 286.915L85.8347 288.179C85.3296 288.053 85.0139 287.926 84.4456 287.8L83.1827 285.777C82.0461 285.841 80.8464 286.093 79.7729 286.536L79.3309 288.748C78.8889 289.064 78.6363 289.254 78.1943 289.57L75.9843 289.317C75.2266 290.265 74.5951 291.34 74.2163 292.414L75.7317 294.184C75.7317 294.753 75.6686 295.069 75.6686 295.574L73.8374 297.407C74.0268 298.482 74.4057 299.493 74.9108 300.505L77.6892 300.441C78.068 300.821 78.3206 301.01 78.7626 301.39L79.1415 304.55C79.9624 304.992 80.9095 305.245 81.7935 305.435L83.8141 302.717C84.3193 302.59 84.6982 302.527 85.2033 302.464L88.2974 304.424C88.7394 304.171 89.1814 303.918 89.6234 303.602C89.876 303.412 90.1285 303.159 90.3811 302.97L89.4339 299.43C89.6865 298.924 89.8128 298.672 90.0654 298.166L93.3489 297.028C93.4752 296.143 93.4752 295.195 93.3489 294.31L90.2548 292.983C90.0654 292.477 89.9391 292.161 89.6865 291.719L90.6337 288.938C90.0022 288.053 89.1182 287.421 88.2342 286.915Z" stroke="#231F20" stroke-width="1.5" stroke-miterlimit="10"/>
<path d="M87.3404 296.764C87.8969 294.636 86.625 292.46 84.4996 291.903C82.3742 291.346 80.2001 292.619 79.6436 294.747C79.0871 296.874 80.3589 299.05 82.4843 299.608C84.6097 300.165 86.7839 298.891 87.3404 296.764Z" stroke="#231F20" stroke-width="1.5" stroke-miterlimit="10"/>
<path d="M105.978 298.798C105.788 298.482 105.599 298.229 105.409 297.976L104.273 298.229C103.641 297.787 103.326 297.534 102.694 297.028L102.568 295.89C102 295.638 101.368 295.511 100.737 295.385L100.105 296.333C99.3476 296.459 98.9687 296.523 98.1478 296.586L97.2638 295.827C97.0112 295.954 96.6955 296.08 96.4429 296.206C96.1272 296.396 95.8746 296.586 95.6221 296.775L95.8746 297.913C95.4326 298.545 95.1801 298.861 94.6749 299.493L93.5383 299.62C93.2858 300.189 93.1595 300.821 93.0332 301.453L93.9803 302.085C94.1066 302.843 94.1698 303.222 94.2329 304.044L93.4752 304.929C93.6015 305.182 93.7278 305.498 93.854 305.751C94.0435 306.067 94.2329 306.32 94.4223 306.572L95.5589 306.32C96.1904 306.762 96.5061 307.015 97.1375 307.521L97.2638 308.658C97.8321 308.911 98.4635 309.038 99.095 309.164L99.7264 308.216C100.484 308.089 100.863 308.026 101.684 307.963L102.568 308.722C102.82 308.595 103.136 308.469 103.389 308.342C103.704 308.153 103.957 307.963 104.21 307.773L103.957 306.636C104.399 306.004 104.652 305.688 105.157 305.055L106.293 304.929C106.546 304.36 106.672 303.728 106.799 303.096L105.851 302.464C105.725 301.706 105.662 301.326 105.599 300.505L106.357 299.62C106.23 299.367 106.104 299.114 105.978 298.798Z" stroke="#231F20" stroke-width="1.5" stroke-miterlimit="10"/>
<path d="M103.389 300.315C104.525 302.211 103.831 304.676 101.936 305.751C100.042 306.888 97.5795 306.193 96.5061 304.297C95.3695 302.401 96.0641 299.936 97.9584 298.861C99.8527 297.786 102.315 298.419 103.389 300.315Z" stroke="#231F20" stroke-width="1.5" stroke-miterlimit="10"/>
<path d="M230.392 328.704C230.392 328.704 230.013 329.146 229.318 329.842" stroke="#231F20" stroke-width="1.5" stroke-linecap="round" stroke-linejoin="round"/>
<path d="M227.866 331.106C221.678 336.415 204.187 347.35 176.151 332.496" stroke="#231F20" stroke-width="1.5" stroke-linecap="round" stroke-linejoin="round" stroke-dasharray="5.04 5.04"/>
<path d="M175.33 332.054C174.888 331.801 174.383 331.548 173.941 331.295" stroke="#231F20" stroke-width="1.5" stroke-linecap="round" stroke-linejoin="round"/>
<path d="M178.551 329.399L178.803 330.347L174.257 331.485L175.709 335.91L174.825 336.226L173.057 330.79L178.551 329.399Z" fill="#231F20"/>
<path d="M229.066 116.577C229.066 116.577 229.508 116.198 230.265 115.566" stroke="#231F20" stroke-width="1.5" stroke-linecap="round" stroke-linejoin="round"/>
<path d="M231.718 114.428C239.169 108.866 261.332 95.4026 288.295 107.222" stroke="#231F20" stroke-width="1.5" stroke-linecap="round" stroke-linejoin="round" stroke-dasharray="5.01 5.01"/>
<path d="M289.179 107.602C289.684 107.791 290.126 108.044 290.631 108.297" stroke="#231F20" stroke-width="1.5" stroke-linecap="round" stroke-linejoin="round"/>
<path d="M286.085 110.446L285.832 109.561L290.252 108.17L288.547 103.809L289.368 103.43L291.515 108.739L286.085 110.446Z" fill="#231F20"/>
<path d="M112.565 115.085C112.502 113.378 111.113 112.051 109.408 112.051C108.84 112.051 108.335 112.177 107.893 112.43C107.514 109.902 105.304 108.005 102.715 108.005C101.578 108.005 100.505 108.385 99.6208 109.017C98.6105 106.046 95.8322 103.96 92.4855 103.96C88.5706 103.96 85.3503 106.931 84.9714 110.723C77.7099 112.114 81.6248 119.572 85.7923 119.067H108.65C110.797 119.067 112.565 117.297 112.565 115.085Z" stroke="#231F20" stroke-width="1.5" stroke-miterlimit="10" stroke-linecap="round" stroke-linejoin="round"/>
<path d="M102.462 110.218C104.609 110.218 106.314 111.925 106.314 114.074" stroke="#231F20" stroke-width="1.5" stroke-miterlimit="10" stroke-linecap="round" stroke-linejoin="round"/>
<path d="M92.2962 106.678C95.0114 106.552 97.3477 108.637 97.474 111.355" stroke="#231F20" stroke-width="1.5" stroke-miterlimit="10" stroke-linecap="round" stroke-linejoin="round"/>
<path d="M292.083 227.975C293.13 227.975 293.978 227.126 293.978 226.078C293.978 225.031 293.13 224.182 292.083 224.182C291.037 224.182 290.189 225.031 290.189 226.078C290.189 227.126 291.037 227.975 292.083 227.975Z" stroke="#231F20" stroke-width="1.5" stroke-miterlimit="10" stroke-linecap="round" stroke-linejoin="round"/>
<path d="M348.345 294.279C348.345 295.354 347.461 296.175 346.45 296.175C345.44 296.175 344.556 295.29 344.556 294.279C344.556 293.205 345.44 292.383 346.45 292.383C347.461 292.383 348.345 293.205 348.345 294.279Z" stroke="#231F20" stroke-width="1.5" stroke-miterlimit="10" stroke-linecap="round" stroke-linejoin="round"/>
<path d="M315.699 103.574C316.745 103.574 317.594 102.725 317.594 101.678C317.594 100.631 316.745 99.7817 315.699 99.7817C314.653 99.7817 313.805 100.631 313.805 101.678C313.805 102.725 314.653 103.574 315.699 103.574Z" stroke="#231F20" stroke-width="1.5" stroke-miterlimit="10" stroke-linecap="round" stroke-linejoin="round"/>
<path d="M219.887 82.5742C219.887 83.6487 219.003 84.4704 217.992 84.4704C216.982 84.4704 216.098 83.5855 216.098 82.5742C216.098 81.4997 216.982 80.678 217.992 80.678C219.003 80.678 219.887 81.5629 219.887 82.5742Z" stroke="#231F20" stroke-width="1.5" stroke-miterlimit="10" stroke-linecap="round" stroke-linejoin="round"/>
<path d="M49.2088 245.167C50.255 245.167 51.1031 244.318 51.1031 243.271C51.1031 242.224 50.255 241.375 49.2088 241.375C48.1626 241.375 47.3145 242.224 47.3145 243.271C47.3145 244.318 48.1626 245.167 49.2088 245.167Z" fill="#231F20"/>
<path d="M249.894 356.792C250.941 356.792 251.789 355.943 251.789 354.896C251.789 353.849 250.941 353 249.894 353C248.848 353 248 353.849 248 354.896C248 355.943 248.848 356.792 249.894 356.792Z" fill="#231F20"/>
<path d="M210.06 110.728C210.06 111.803 209.176 112.624 208.165 112.624C207.092 112.624 206.271 111.739 206.271 110.728C206.271 109.717 207.155 108.832 208.165 108.832C209.176 108.769 210.06 109.653 210.06 110.728Z" fill="#231F20"/>
<path d="M363.798 211.751C364.845 211.751 365.693 210.902 365.693 209.855C365.693 208.808 364.845 207.959 363.798 207.959C362.752 207.959 361.904 208.808 361.904 209.855C361.904 210.902 362.752 211.751 363.798 211.751Z" fill="#231F20"/>
<path d="M271.309 306.415C272.355 306.415 273.204 305.566 273.204 304.519C273.204 303.472 272.355 302.623 271.309 302.623C270.263 302.623 269.415 303.472 269.415 304.519C269.415 305.566 270.263 306.415 271.309 306.415Z" fill="#231F20"/>
<path d="M67.1016 304.329C67.1016 305.404 66.2176 306.225 65.2073 306.225C64.1339 306.225 63.313 305.34 63.313 304.329C63.313 303.318 64.197 302.433 65.2073 302.433C66.2808 302.433 67.1016 303.318 67.1016 304.329Z" fill="#231F20"/>
<path d="M201.725 269.628C202.771 269.628 203.619 268.779 203.619 267.732C203.619 266.685 202.771 265.836 201.725 265.836C200.678 265.836 199.83 266.685 199.83 267.732C199.83 268.779 200.678 269.628 201.725 269.628Z" fill="#231F20"/>
<path d="M67.1016 107.375C67.1016 108.45 66.2176 109.271 65.2073 109.271C64.1339 109.271 63.313 108.387 63.313 107.375C63.313 106.364 64.197 105.479 65.2073 105.479C66.2808 105.479 67.1016 106.364 67.1016 107.375Z" fill="#231F20"/>
<path d="M115.722 323.329C115.722 324.404 114.838 325.225 113.828 325.225C112.755 325.225 111.934 324.34 111.934 323.329C111.934 322.318 112.818 321.433 113.828 321.433C114.838 321.433 115.722 322.318 115.722 323.329Z" stroke="#231F20" stroke-width="1.5" stroke-miterlimit="10" stroke-linecap="round" stroke-linejoin="round"/>
<path d="M137.675 138.627C138.721 138.627 139.569 137.778 139.569 136.731C139.569 135.683 138.721 134.834 137.675 134.834C136.629 134.834 135.781 135.683 135.781 136.731C135.781 137.778 136.629 138.627 137.675 138.627Z" stroke="#231F20" stroke-width="1.5" stroke-miterlimit="10" stroke-linecap="round" stroke-linejoin="round"/>
<path d="M53.7151 142.708C54.7613 142.708 55.6094 141.859 55.6094 140.812C55.6094 139.765 54.7613 138.916 53.7151 138.916C52.6689 138.916 51.8208 139.765 51.8208 140.812C51.8208 141.859 52.6689 142.708 53.7151 142.708Z" stroke="#231F20" stroke-width="1.5" stroke-miterlimit="10" stroke-linecap="round" stroke-linejoin="round"/>
<path d="M186.894 66.7924C187.941 66.7924 188.789 65.9435 188.789 64.8962C188.789 63.849 187.941 63 186.894 63C185.848 63 185 63.849 185 64.8962C185 65.9435 185.848 66.7924 186.894 66.7924Z" stroke="#231F20" stroke-width="1.5" stroke-miterlimit="10" stroke-linecap="round" stroke-linejoin="round"/>
<path d="M321.635 303.76C321.382 302.117 319.93 300.916 318.288 301.042C318.351 300.663 318.415 300.284 318.415 299.905C318.415 296.934 316.015 294.469 312.984 294.469C311.406 294.469 309.953 295.164 309.006 296.239C308.438 291.941 304.775 288.654 300.355 288.654C295.683 288.654 291.957 292.257 291.642 296.871C291.136 296.681 290.568 296.618 290 296.618C287.032 296.618 284.569 299.02 284.569 302.054C284.569 304.772 286.527 306.984 289.116 307.363L289.053 307.426H318.92C320.625 307.174 321.887 305.53 321.635 303.76Z" stroke="#231F20" stroke-width="1.5" stroke-miterlimit="10" stroke-linecap="round" stroke-linejoin="round"/>
<path d="M312.605 296.934C314.5 296.934 316.078 298.514 316.078 300.41" stroke="#231F20" stroke-width="1.5" stroke-miterlimit="10" stroke-linecap="round" stroke-linejoin="round"/>
<path d="M299.661 291.372C303.45 291.372 306.544 294.469 306.544 298.261" stroke="#231F20" stroke-width="1.5" stroke-miterlimit="10" stroke-linecap="round" stroke-linejoin="round"/>
<path d="M196.61 316.279H192V323.422H196.61V316.279Z" stroke="#231F20" stroke-width="1.5" stroke-miterlimit="10" stroke-linecap="round" stroke-linejoin="round"/>
<path d="M204.061 313.877H199.451V323.422H204.061V313.877Z" stroke="#231F20" stroke-width="1.5" stroke-miterlimit="10" stroke-linecap="round" stroke-linejoin="round"/>
<path d="M211.512 311.918H206.902V323.485H211.512V311.918Z" stroke="#231F20" stroke-width="1.5" stroke-miterlimit="10" stroke-linecap="round" stroke-linejoin="round"/>
<path d="M193.895 310.907L208.291 304.902" stroke="#231F20" stroke-width="1.5" stroke-linecap="round" stroke-linejoin="round"/>
<path d="M207.344 307.999L206.776 307.746L208.039 304.965L205.197 303.891L205.45 303.322L208.923 304.649L207.344 307.999Z" fill="#231F20"/>
<path d="M265.121 116.762H251.671V136.799H265.121V116.762Z" stroke="#231F20" stroke-width="1.5" stroke-miterlimit="10" stroke-linecap="round" stroke-linejoin="round"/>
<path d="M263.29 118.721H253.503V130.794H263.29V118.721Z" stroke="#231F20" stroke-width="1.5" stroke-miterlimit="10" stroke-linecap="round" stroke-linejoin="round"/>
<path d="M258.365 134.65C258.783 134.65 259.122 134.31 259.122 133.891C259.122 133.472 258.783 133.133 258.365 133.133C257.946 133.133 257.607 133.472 257.607 133.891C257.607 134.31 257.946 134.65 258.365 134.65Z" stroke="#231F20" stroke-width="1.5" stroke-miterlimit="10" stroke-linecap="round" stroke-linejoin="round"/>
<path d="M137.065 84.5742H152.535" stroke="#231F20" stroke-width="1.5" stroke-miterlimit="10" stroke-linecap="round" stroke-linejoin="round"/>
<path d="M338.747 281.322H354.154" stroke="#231F20" stroke-width="1.5" stroke-miterlimit="10" stroke-linecap="round" stroke-linejoin="round"/>
<path d="M127.215 331.799H142.685" stroke="#231F20" stroke-width="1.5" stroke-miterlimit="10" stroke-linecap="round" stroke-linejoin="round"/>
<path d="M354.154 130.13V145.616" stroke="#231F20" stroke-width="1.5" stroke-miterlimit="10" stroke-linecap="round" stroke-linejoin="round"/>
<path d="M83.8979 317.514V333" stroke="#231F20" stroke-width="1.5" stroke-miterlimit="10" stroke-linecap="round" stroke-linejoin="round"/>
<path d="M206 47V62.4858" stroke="#231F20" stroke-width="1.5" stroke-miterlimit="10" stroke-linecap="round" stroke-linejoin="round"/>
<path d="M334.011 294.848V310.334" stroke="#231F20" stroke-width="1.5" stroke-miterlimit="10" stroke-linecap="round" stroke-linejoin="round"/>
<path d="M150.767 225.889C164.596 225.889 175.772 237.077 175.772 250.919" stroke="#231F20" stroke-width="1.5" stroke-miterlimit="10" stroke-linecap="round" stroke-linejoin="round"/>
<path d="M93.1377 155.607C105.451 155.607 115.427 165.594 115.427 177.919" stroke="#231F20" stroke-width="1.5" stroke-miterlimit="10" stroke-linecap="round" stroke-linejoin="round"/>
<path d="M215.49 155.187C227.803 155.187 237.78 165.174 237.78 177.499" stroke="#231F20" stroke-width="1.5" stroke-miterlimit="10" stroke-linecap="round" stroke-linejoin="round"/>
<path d="M248.072 239.162C258.491 239.162 266.952 247.632 266.952 258.061" stroke="#231F20" stroke-width="1.5" stroke-miterlimit="10" stroke-linecap="round" stroke-linejoin="round"/>
</svg>
