<svg width="60" height="60" viewBox="0 0 60 60" fill="none" xmlns="http://www.w3.org/2000/svg">
<path d="M55.8328 13.1729C55.8672 15.2976 55.1617 17.3681 53.837 19.0296C52.5124 20.6912 50.6511 21.8403 48.5722 22.2801C46.4933 22.7199 44.3261 22.423 42.442 21.4403C40.558 20.4575 39.0744 18.8502 38.2454 16.8936C37.4165 14.937 37.2938 12.753 37.8984 10.7159C38.503 8.67878 39.7973 6.91535 41.5594 5.7278C43.3215 4.54024 45.4418 4.00249 47.5569 4.2067C49.672 4.41091 51.6503 5.34437 53.1527 6.8471C53.3531 7.04749 53.5417 7.25257 53.7175 7.46585L47.1914 10.678L49.8667 16.1108L55.8328 13.1729Z" fill="#B73A46"/>
<path d="M50.4797 41.9451C51.047 42.504 51.498 43.1696 51.8068 43.9036C52.1156 44.6376 52.2761 45.4254 52.2791 46.2217C52.282 47.018 52.1274 47.807 51.824 48.5433C51.5206 49.2796 51.0745 49.9485 50.5115 50.5116C49.9484 51.0747 49.2794 51.5207 48.5432 51.8241C47.8069 52.1275 47.0179 52.2821 46.2216 52.2792C45.4253 52.2762 44.6374 52.1157 43.9034 51.8069C43.1695 51.4981 42.5038 51.0471 41.9449 50.4798L40.7086 49.2423L43.2692 46.683L46.6828 43.2693L49.2422 40.7087L50.4797 41.9451Z" fill="white"/>
<path d="M49.2422 40.7086L46.6828 43.2692L46.6652 43.2516L12.9105 9.55903L15.4781 6.99146L30.3715 21.8637L38.141 29.6227L49.2422 40.7086Z" fill="#00AEEF"/>
<path d="M46.6828 43.269L43.2692 46.6827L43.2516 46.6651L9.55902 12.9104L12.9106 9.55884L46.6653 43.2514L46.6828 43.269Z" fill="#B73A46"/>
<path d="M45.3504 22.3852L45.3445 22.4192L38.1691 29.5946L38.141 29.6227L30.3715 21.8637L37.5808 14.6555L37.6148 14.6497C37.9006 16.5996 38.8076 18.4054 40.2011 19.7989C41.5947 21.1924 43.4004 22.0994 45.3504 22.3852Z" fill="white"/>
<path d="M43.2691 46.6829L40.7085 49.2423L29.6226 38.1411L21.8636 30.3716L6.99133 15.4782L9.55891 12.9106L43.2515 46.6653L43.2691 46.6829Z" fill="#00AEEF"/>
<path d="M21.8637 30.3716L29.6227 38.1411L29.6145 38.1493L22.4122 45.3517L22.3864 45.3563C22.1013 43.4042 21.1939 41.5963 19.7989 40.2013C18.4039 38.8063 16.5959 37.8988 14.6438 37.6138L14.6485 37.588L21.8637 30.3716Z" fill="white"/>
<path d="M22.3864 45.3564C22.6636 47.2606 22.334 49.2038 21.4444 50.9101C20.5548 52.6165 19.1503 53.9993 17.4304 54.8622C15.7104 55.7252 13.7623 56.0245 11.8626 55.7177C9.96293 55.4108 8.20814 54.5134 6.84731 53.1529C6.64692 52.9525 6.45825 52.7474 6.28247 52.5341L12.8086 49.322L10.1333 43.8892L4.16724 46.8271C4.12926 44.5003 4.97851 42.2463 6.54243 40.523C8.10636 38.7997 10.2677 37.7365 12.5872 37.5492C14.9068 37.362 17.2107 38.0648 19.0308 39.5149C20.8508 40.965 22.0506 43.0536 22.3864 45.3564Z" fill="#B73A46"/>
<path d="M15.4781 6.99136L12.9105 9.55893L9.55893 12.9105L6.99136 15.4781L5.24878 5.24878L15.4781 6.99136Z" fill="white"/>
<path d="M56.1992 12.5729C56.0981 12.5112 55.983 12.476 55.8647 12.4706C55.7463 12.4653 55.6286 12.4899 55.5223 12.5422L50.1871 15.1695L48.1329 10.9984L54.028 8.0968C54.1232 8.04996 54.2066 7.98219 54.2719 7.89857C54.3371 7.81494 54.3826 7.71763 54.405 7.61391C54.4273 7.5102 54.4259 7.40278 54.4008 7.2997C54.3757 7.19661 54.3277 7.10054 54.2602 7.01868C54.0754 6.7945 53.8758 6.60289 53.6499 6.37707C52.735 5.4622 51.6475 4.73814 50.4505 4.24693C49.2535 3.75572 47.9709 3.50713 46.6771 3.51559H46.6764C45.2948 3.5093 43.9274 3.79472 42.6637 4.35319C41.4001 4.91166 40.2685 5.7306 39.343 6.75644C38.4176 7.78229 37.7191 8.99193 37.2933 10.3063C36.8674 11.6206 36.7239 13.01 36.8719 14.3837L30.371 20.8767L15.9749 6.49731C15.8721 6.39397 15.7398 6.32503 15.5963 6.29996L5.3672 4.55657C5.25649 4.53767 5.14287 4.54558 5.03583 4.57961C4.9288 4.61365 4.83149 4.67283 4.75202 4.7522C4.67256 4.83157 4.61327 4.92882 4.57911 5.03581C4.54495 5.1428 4.53691 5.25642 4.55568 5.36715L6.29826 15.5963C6.32271 15.7397 6.39105 15.872 6.49384 15.975L20.8701 30.3709L14.37 36.8718C12.9069 36.7196 11.4282 36.8947 10.041 37.3845C8.65393 37.8744 7.39315 38.6666 6.35005 39.7039C5.41109 40.6359 4.67116 41.7489 4.1751 42.9753C3.67904 44.2018 3.43719 45.5162 3.4642 46.8389C3.46621 46.9573 3.49812 47.0733 3.55697 47.1762C3.61582 47.279 3.69969 47.3653 3.8008 47.427C3.90191 47.4887 4.01698 47.5239 4.13533 47.5293C4.25368 47.5347 4.37146 47.5101 4.47775 47.4577L9.81294 44.8304L11.8671 49.0016L5.97201 51.9031C5.87682 51.95 5.79346 52.0177 5.72817 52.1014C5.66289 52.185 5.61738 52.2823 5.59505 52.386C5.57272 52.4897 5.57414 52.5971 5.59922 52.7002C5.6243 52.8033 5.67238 52.8994 5.73986 52.9812C5.92466 53.2054 6.12423 53.397 6.35017 53.6229C7.26507 54.5377 8.35256 55.2618 9.54954 55.753C10.7465 56.2442 12.0291 56.4928 13.3229 56.4843H13.3236C14.6175 56.4929 15.9001 56.2443 17.0971 55.7531C18.2941 55.2619 19.3815 54.5377 20.2963 53.6227C21.3335 52.5824 22.1258 51.324 22.6157 49.939C23.1056 48.5541 23.2808 47.0774 23.1285 45.6162L29.6226 39.1289L41.4475 50.9731C42.0726 51.603 42.8159 52.1032 43.6347 52.445C44.4536 52.7869 45.332 52.9637 46.2193 52.9652C47.1067 52.9668 47.9856 52.7931 48.8057 52.4542C49.6258 52.1152 50.3709 51.6177 50.9982 50.99C51.6255 50.3624 52.1227 49.6171 52.4613 48.7969C52.7998 47.9766 52.9731 47.0976 52.9711 46.2102C52.969 45.3228 52.7918 44.4446 52.4496 43.6259C52.1073 42.8072 51.6067 42.0641 50.9766 41.4393L49.7392 40.1953L39.1358 29.6145L45.6295 23.1248C45.9869 23.164 46.346 23.1841 46.7054 23.1849C48.0117 23.1809 49.3041 22.9174 50.5077 22.4097C51.7112 21.9021 52.802 21.1604 53.7165 20.2278C54.6311 19.2951 55.3513 18.1901 55.8353 16.9768C56.3192 15.7635 56.5574 14.4662 56.5358 13.1601C56.5338 13.0418 56.5018 12.9259 56.4429 12.8233C56.3841 12.7206 56.3002 12.6345 56.1992 12.5729ZM9.55853 13.9053L42.2747 46.6817L40.7092 48.2472L7.98552 15.4784L9.55853 13.9053ZM43.269 45.6874L10.5529 12.911L12.911 10.5528L45.6874 43.269L43.269 45.6874ZM46.6819 42.2746L13.9054 9.55848L15.4785 7.98536L48.2473 40.7091L46.6819 42.2746ZM6.10853 6.10848L14.0187 7.45614L7.45619 14.0186L6.10853 6.10848ZM19.3016 52.6289C18.5172 53.4127 17.5848 54.0328 16.5587 54.4532C15.5326 54.8737 14.4331 55.0861 13.3242 55.0781C11.1298 55.094 9.01675 54.2477 7.44002 52.7213L13.1202 49.9391C13.203 49.8996 13.277 49.844 13.3381 49.7756C13.3991 49.7072 13.4459 49.6273 13.4757 49.5406C13.5056 49.4539 13.5178 49.3621 13.5118 49.2707C13.5058 49.1792 13.4816 49.0898 13.4406 49.0078L10.7652 43.5767C10.6827 43.4096 10.5371 43.282 10.3606 43.2221C10.184 43.1622 9.99093 43.1749 9.82373 43.2574L4.92669 45.6686C5.11574 44.0934 5.74417 42.6031 6.74014 41.3682C7.7361 40.1332 9.05943 39.2034 10.5589 38.6849C12.0583 38.1665 13.6734 38.0804 15.2194 38.4364C16.7655 38.7925 18.1802 39.5763 19.3019 40.6984C20.5946 41.9824 21.4332 43.6531 21.6905 45.457V45.4434C21.8855 46.7446 21.7709 48.0734 21.3558 49.322C20.9407 50.5705 20.2369 51.7035 19.3016 52.6289ZM22.8055 43.9643C22.3438 42.3545 21.4802 40.8886 20.296 39.7044C19.1118 38.5202 17.6459 37.6567 16.0361 37.1949L21.8637 31.3664L28.6289 38.1409L22.8055 43.9643ZM51.5465 46.2137C51.5467 47.2686 51.2339 48.2998 50.6479 49.1769C50.0619 50.054 49.2288 50.7376 48.2542 51.1411C47.2795 51.5446 46.2071 51.65 45.1725 51.4439C44.138 51.2378 43.1878 50.7294 42.4423 49.9831L41.7028 49.2427L49.2422 41.7029L49.9827 42.4423C50.4798 42.9362 50.874 43.5238 51.1424 44.1711C51.4109 44.8184 51.5482 45.5125 51.5465 46.2132V46.2137ZM31.3661 21.8635L37.195 16.0357C37.6564 17.6456 38.5199 19.1116 39.7041 20.2958C40.8883 21.4799 42.3544 22.3433 43.9643 22.8047L38.1407 28.6289L31.3661 21.8635ZM52.6556 19.3017C51.5471 20.4102 50.1522 21.1886 48.6267 21.5501C47.1013 21.9116 45.5054 21.8419 44.0173 21.3488C42.5292 20.8557 41.2075 19.9586 40.1997 18.7577C39.192 17.5568 38.538 16.0994 38.3107 14.5483C38.1354 13.3501 38.221 12.1281 38.5616 10.966C38.9021 9.80387 39.4897 8.72902 40.284 7.81495C41.0784 6.90088 42.0608 6.16916 43.164 5.66984C44.2673 5.17051 45.4654 4.91536 46.6764 4.92184C48.8709 4.9059 50.9839 5.75221 52.5606 7.2786L46.881 10.0609C46.7982 10.1003 46.7242 10.1559 46.6631 10.2243C46.6021 10.2927 46.5553 10.3726 46.5255 10.4593C46.4956 10.546 46.4834 10.6378 46.4894 10.7293C46.4954 10.8208 46.5196 10.9101 46.5606 10.9922L49.236 16.4232C49.3185 16.5904 49.4641 16.7179 49.6406 16.7778C49.8172 16.8377 50.0103 16.825 50.1775 16.7425L55.0733 14.3313C54.8536 16.2141 54.0012 17.9665 52.6556 19.3017Z" fill="#231F20"/>
</svg>
