<svg width="300" height="75" viewBox="0 0 300 75" fill="none" xmlns="http://www.w3.org/2000/svg">
<path d="M21.6748 53.9542C20.848 53.4581 19.9881 53.0116 19.1116 52.6312C18.3675 52.3005 17.5241 51.9863 16.5981 51.7052C15.672 51.4075 14.7625 51.2752 13.886 51.2752C13.175 51.2752 12.5962 51.391 12.1662 51.6059C11.7363 51.8209 11.5213 52.2013 11.5213 52.7305C11.5213 53.1108 11.6536 53.4415 11.9016 53.6896C12.1497 53.9376 12.5135 54.1691 12.9765 54.3676C13.4395 54.566 14.0183 54.781 14.6963 54.9629C15.3743 55.1613 16.135 55.3929 16.9949 55.674C18.351 56.0874 19.5747 56.5504 20.6661 57.0465C21.7575 57.5426 22.6836 58.138 23.4608 58.7994C24.238 59.4774 24.8334 60.3043 25.2468 61.2634C25.6602 62.2226 25.8752 63.3966 25.8752 64.7857C25.8752 66.5552 25.5444 68.0435 24.8995 69.2341C24.2546 70.4413 23.3947 71.4004 22.3363 72.1115C21.278 72.8226 20.0708 73.3518 18.7313 73.666C17.3918 73.9802 16.0524 74.1455 14.6963 74.1455C13.6215 74.1455 12.5135 74.0629 11.389 73.8975C10.2645 73.7321 9.12346 73.5006 8.0155 73.1864C6.891 72.8887 5.81612 72.5249 4.79084 72.1115C3.74903 71.6981 2.7899 71.2351 1.91345 70.7059L5.38616 63.6282C6.34529 64.24 7.35404 64.7692 8.41239 65.2488C9.28883 65.6622 10.2976 66.0425 11.4221 66.3733C12.5466 66.704 13.6876 66.8694 14.8452 66.8694C15.7216 66.8694 16.35 66.7536 16.6807 66.5221C17.028 66.2906 17.1934 65.9764 17.1934 65.596C17.1934 65.1826 17.028 64.8354 16.6807 64.5377C16.3335 64.24 15.8539 63.992 15.2586 63.777C14.6467 63.562 13.9522 63.3305 13.1584 63.1155C12.3647 62.9006 11.5378 62.636 10.6448 62.3218C9.35498 61.8753 8.23048 61.3957 7.28789 60.8996C6.34529 60.387 5.56807 59.8082 4.97274 59.1632C4.36089 58.5183 3.9144 57.7742 3.63327 56.9473C3.35215 56.1205 3.20331 55.1613 3.20331 54.0865C3.20331 52.4493 3.50098 51.0272 4.0963 49.7704C4.69162 48.5301 5.50192 47.4883 6.5272 46.6615C7.55248 45.8346 8.71005 45.2062 10.033 44.7763C11.3394 44.3463 12.7285 44.1313 14.2002 44.1313C15.2751 44.1313 16.3335 44.2305 17.3422 44.4455C18.3675 44.6605 19.3432 44.9086 20.3023 45.2393C21.2614 45.5535 22.1379 45.9008 22.9812 46.2811C23.8081 46.6615 24.5522 47.0087 25.2137 47.3395L21.6748 53.9542Z" fill="white"/>
<path d="M55.4101 51.3909H46.9598V73.7485H38.8899V51.3909H30.39V44.3462H55.4101V51.3909Z" fill="white"/>
<path d="M72.6246 62.6193L70.0118 53.5076L67.2833 62.6193H72.6246ZM66.3241 44.3462H73.6995L83.8861 73.7651H75.7005L73.9145 68.0103H66.0926L64.3563 73.7651H56.1044L66.3241 44.3462Z" fill="white"/>
<path d="M97.4794 57.6747H102.573C103.069 57.6747 103.532 57.3936 103.962 56.8479C104.392 56.3022 104.607 55.5249 104.607 54.5327C104.607 53.5075 104.359 52.7302 103.863 52.1845C103.366 51.6388 102.87 51.3742 102.374 51.3742H97.4794V57.6747ZM89.4095 73.7484V44.3296H102.92C104.359 44.3296 105.682 44.6272 106.905 45.2226C108.113 45.8179 109.171 46.5951 110.031 47.5377C110.907 48.4968 111.585 49.5883 112.081 50.812C112.577 52.0357 112.825 53.276 112.825 54.5162C112.825 56.236 112.445 57.8236 111.701 59.2953C110.957 60.7671 109.915 61.9743 108.592 62.9169L114.81 73.7319H105.698L100.522 64.7028H97.496V73.7319H89.4095V73.7484Z" fill="white"/>
<path d="M142.178 51.3909H133.728V73.7485H125.642V51.3909H117.158V44.3462H142.178V51.3909Z" fill="white"/>
<path d="M3.36888 0.837891L13.8862 26.6517L24.3705 0.837891H27.3967L15.1265 30.2567H12.6129L0.342651 0.837891H3.36888Z" fill="white"/>
<path d="M53.4421 27.6935V30.2567H33.6807V0.837891H53.0783V3.41763H36.5911V14.0177H50.9615V16.4651H36.5911V27.6935H53.4421Z" fill="white"/>
<path d="M63.877 6.22887V30.2567H60.983V0.837891H63.2155L82.6957 25.3288V0.887499H85.5897V30.2567H83.0596L63.877 6.22887Z" fill="white"/>
<path d="M115.289 3.41763H104.805V30.2567H101.911V3.41763H91.4266V0.837891H115.289V3.41763Z" fill="white"/>
<path d="M138.126 6.34475C137.3 5.40216 136.192 4.64148 134.819 4.06269C133.447 3.4839 131.859 3.18624 130.09 3.18624C127.493 3.18624 125.608 3.68235 124.417 4.65801C123.227 5.63368 122.632 6.97315 122.632 8.6599C122.632 9.53634 122.797 10.264 123.111 10.8427C123.425 11.405 123.921 11.9011 124.583 12.3145C125.244 12.7279 126.088 13.0917 127.129 13.3894C128.171 13.6871 129.395 14.0013 130.801 14.2989C132.372 14.6297 133.794 15.01 135.051 15.4234C136.307 15.8368 137.382 16.3495 138.259 16.9779C139.135 17.6063 139.813 18.3504 140.293 19.2434C140.756 20.1199 141.004 21.2278 141.004 22.5508C141.004 23.9068 140.739 25.0809 140.21 26.0731C139.681 27.0653 138.953 27.8921 138.011 28.5536C137.068 29.2151 135.96 29.7112 134.654 30.0254C133.364 30.3396 131.925 30.5049 130.387 30.5049C125.823 30.5049 121.887 29.0828 118.58 26.2384L120.035 23.8737C120.564 24.4194 121.193 24.9486 121.92 25.4447C122.648 25.9408 123.475 26.3707 124.368 26.7511C125.261 27.1314 126.22 27.4125 127.245 27.6275C128.271 27.8425 129.345 27.9417 130.47 27.9417C132.818 27.9417 134.654 27.5283 135.96 26.6849C137.267 25.8416 137.928 24.5682 137.928 22.8484C137.928 21.9389 137.746 21.1782 137.366 20.5498C136.985 19.9214 136.44 19.3922 135.696 18.9292C134.951 18.4662 134.025 18.0858 132.917 17.7551C131.809 17.4244 130.52 17.0936 129.064 16.7629C127.526 16.3991 126.17 16.0353 125.013 15.6384C123.855 15.258 122.88 14.7619 122.069 14.1832C121.275 13.6044 120.664 12.9098 120.267 12.083C119.87 11.2727 119.671 10.264 119.671 9.07332C119.671 7.7173 119.919 6.51012 120.432 5.45177C120.945 4.39342 121.672 3.50044 122.615 2.80589C123.558 2.09482 124.666 1.56563 125.922 1.18529C127.196 0.804945 128.601 0.623047 130.139 0.623047C132.107 0.623047 133.843 0.920709 135.381 1.51603C136.919 2.11135 138.308 2.93818 139.549 4.02961L138.126 6.34475Z" fill="white"/>
<path d="M263.69 33.8785H274.273C275.514 33.8785 276.655 33.3162 277.713 32.1752C278.771 31.0507 279.301 29.0002 279.301 26.0566C279.301 23.0469 278.689 20.9799 277.448 19.8884C276.208 18.797 274.984 18.2513 273.744 18.2513H263.673V33.8785H263.69ZM243.647 73.7485V18.2513H253.586L235.66 0.771973H275.1C278.656 0.771973 281.946 1.51613 284.973 2.9879C287.982 4.45967 290.579 6.37792 292.728 8.74267C294.895 11.1074 296.581 13.8195 297.822 16.8622C299.062 19.905 299.674 22.9808 299.674 26.0566C299.674 29.2813 299.095 32.4067 297.921 35.466C296.747 38.5088 295.126 41.2208 293.043 43.5856C290.959 45.9503 288.412 47.8355 285.436 49.2411C282.459 50.6467 279.185 51.3413 275.613 51.3413H263.69V73.7485H243.647ZM190.598 56.5834C192.929 56.5834 194.914 56.0708 196.567 55.0455C198.204 54.0202 199.544 52.6642 200.569 50.9775C201.594 49.3073 202.355 47.3559 202.835 45.1731C203.314 42.9737 203.546 40.6916 203.546 38.2938V0.771973H231.576L213.65 18.2513H223.588V38.2938C223.588 43.3706 222.943 48.1166 221.637 52.5319C220.331 56.9472 218.313 60.7672 215.568 63.9919C212.823 67.2165 209.383 69.7467 205.233 71.5988C201.082 73.4509 196.203 74.3769 190.581 74.3769C184.76 74.3769 179.766 73.4013 175.632 71.4499C171.481 69.4986 168.075 66.8693 165.412 63.595C162.733 60.3042 160.782 56.4842 159.558 52.135C158.318 47.7859 157.706 43.1721 157.706 38.3103V0.788513H177.748V38.3103C177.748 40.7082 177.997 43.0233 178.476 45.2558C178.956 47.4882 179.716 49.4396 180.742 51.1098C181.767 52.7965 183.09 54.1195 184.694 55.1117C186.315 56.0873 188.282 56.5834 190.598 56.5834Z" fill="white"/>
</svg>
