<svg width="58" height="81" viewBox="0 0 58 81" fill="none" xmlns="http://www.w3.org/2000/svg">
<path d="M21.7244 78.9546L15.371 66.0682L2.66431 72.6137L15.576 32.9319L34.636 39.0682L21.7244 78.9546Z" fill="#B73A46"/>
<path d="M36.2756 78.9546L42.629 66.0682L55.3357 72.6137L42.424 32.9319L23.364 39.0682L36.2756 78.9546Z" fill="#B73A46"/>
<path d="M55.9506 27.8182C55.9506 30.4773 51.4417 32.5227 50.8269 34.7727C50.0071 37.2273 52.4665 41.5227 50.8269 43.5682C49.3923 45.6136 44.4735 44.5909 42.4241 46.2273C40.3746 47.6591 39.7597 52.5682 37.3004 53.3864C34.841 54.2045 31.5619 50.5227 28.8976 50.5227C26.2332 50.5227 22.9541 54 20.4947 53.3864C18.0354 52.5682 17.4205 47.8636 15.3711 46.2273C13.3216 44.7954 8.6078 45.6136 6.96823 43.5682C5.5336 41.5227 7.78802 37.2273 6.96823 34.7727C6.55833 32.3182 2.0495 30.4773 2.0495 27.8182C2.0495 25.1591 6.55833 23.1136 7.17317 20.8636C7.99296 18.4091 5.5336 14.1136 7.17317 12.0682C8.6078 10.0227 13.5265 11.0454 15.576 9.40908C17.6255 7.97726 18.2403 3.06817 20.6997 2.24998C23.159 1.4318 26.4382 5.11362 29.1025 5.11362C31.7668 5.11362 35.046 1.63635 37.5053 2.24998C39.9647 3.06817 40.5795 7.77271 42.629 9.40908C44.6785 10.8409 49.3923 10.0227 51.0318 12.0682C52.4665 14.1136 50.212 18.4091 51.0318 20.8636C51.4417 23.1136 55.9506 24.9545 55.9506 27.8182Z" fill="#00AEEF" stroke="#231F20" stroke-width="2" stroke-miterlimit="10" stroke-linecap="round" stroke-linejoin="round"/>
<path d="M11.887 27.8183C11.887 18.4092 19.47 10.8411 28.8976 10.8411C38.3251 10.8411 45.9082 18.4092 45.9082 27.8183C45.9082 37.2274 38.3251 44.7956 28.8976 44.7956C19.47 44.7956 11.887 37.0229 11.887 27.8183Z" fill="white" stroke="#231F20" stroke-width="2" stroke-miterlimit="10" stroke-linecap="round" stroke-linejoin="round"/>
</svg>
