<svg width="60" height="45" viewBox="0 0 60 45" fill="none" xmlns="http://www.w3.org/2000/svg">
<g clip-path="url(#clip0)">
<path d="M60 0.983607V43.6837C60 44.2044 59.5371 44.6673 59.0164 44.6673H0.983607C0.462874 44.6673 0 44.2044 0 43.6837V0.983607C0 0.462874 0.462874 0 0.983607 0H59.0743C59.595 0 60 0.462874 60 0.983607ZM58.0906 42.7001V11.0511H1.96721V42.7001H58.0906ZM58.0906 9.0839V1.96721H1.96721V9.14176H58.0906V9.0839Z" fill="#231F20"/>
<path d="M58.0906 1.96729V9.14183H1.96721V1.96729H58.0906ZM56.0656 7.34819V3.70306C56.0656 3.18233 55.6027 2.71945 55.082 2.71945H13.7705C13.2498 2.71945 12.7869 3.18233 12.7869 3.70306V7.34819C12.7869 7.86892 13.2498 8.3318 13.7705 8.3318H55.1398C55.6606 8.3318 56.0656 7.86892 56.0656 7.34819ZM11.4561 5.4967C11.4561 5.26526 11.3404 4.97596 11.1668 4.80239C10.9932 4.62881 10.7618 4.57095 10.4725 4.57095C10.2411 4.57095 9.95178 4.68667 9.7782 4.86025C9.60462 5.03382 9.48891 5.26526 9.48891 5.55456C9.48891 5.78599 9.60462 6.07529 9.7782 6.24887C9.95178 6.42244 10.1832 6.53816 10.4725 6.53816C10.7039 6.53816 10.9932 6.42244 11.1668 6.24887C11.3404 6.01743 11.4561 5.78599 11.4561 5.4967ZM8.33172 5.4967C8.33172 5.26526 8.216 4.97596 8.04243 4.80239C7.86885 4.62881 7.63741 4.51309 7.34811 4.51309C7.11668 4.51309 6.82738 4.62881 6.65381 4.80239C6.48023 5.03382 6.36451 5.26526 6.36451 5.4967C6.36451 5.72813 6.48023 6.01743 6.65381 6.19101C6.82738 6.36458 7.05882 6.4803 7.34811 6.4803C7.57955 6.4803 7.86885 6.36458 8.04243 6.19101C8.216 6.01743 8.33172 5.78599 8.33172 5.4967ZM5.14947 5.4967C5.14947 5.26526 5.03375 4.97596 4.86017 4.80239C4.68659 4.62881 4.45515 4.57095 4.16586 4.57095C3.93442 4.57095 3.70299 4.62881 3.52941 4.86025C3.29797 5.03382 3.24011 5.26526 3.24011 5.4967C3.24011 5.72813 3.35583 6.01743 3.52941 6.19101C3.70299 6.36458 3.93442 6.4803 4.22372 6.4803C4.45516 6.4803 4.74445 6.36458 4.91803 6.19101C5.03375 6.01743 5.14947 5.78599 5.14947 5.4967Z" fill="white"/>
<path d="M56.0656 3.70297V7.3481C56.0656 7.86883 55.6027 8.3317 55.082 8.3317H13.7705C13.2498 8.3317 12.7869 7.86883 12.7869 7.3481V3.70297C12.7869 3.18223 13.2498 2.71936 13.7705 2.71936H55.1398C55.6606 2.71936 56.0656 3.18223 56.0656 3.70297ZM54.1562 6.36449V4.68657H14.7541V6.36449H54.1562Z" fill="#231F20"/>
<path d="M53.2883 29.161V38.4185C53.2883 38.9392 52.8255 39.4021 52.3047 39.4021H40.9065C40.3857 39.4021 39.9229 38.9392 39.9229 38.4185V29.161C39.9229 28.6402 40.3857 28.1774 40.9065 28.1774H52.3047C52.8833 28.2352 53.2883 28.6402 53.2883 29.161ZM51.3211 37.4348V30.1446H41.8901V37.4348H51.3211Z" fill="white"/>
<path d="M52.3047 14.3491C52.8255 14.3491 53.2883 14.812 53.2883 15.3327C53.2883 15.8535 52.8255 16.3163 52.3047 16.3163H40.9065C40.3857 16.3163 39.9229 15.8535 39.9229 15.3327C39.9229 14.812 40.3857 14.3491 40.9065 14.3491H52.3047Z" fill="white"/>
<path d="M52.3047 18.9779C52.8255 18.9779 53.2883 19.4408 53.2883 19.9615C53.2883 20.4822 52.8255 20.9451 52.3047 20.9451H40.9065C40.3857 20.9451 39.9229 20.4822 39.9229 19.9615C39.9229 19.4408 40.3857 18.9779 40.9065 18.9779H52.3047Z" fill="white"/>
<path d="M52.3047 23.6067C52.8255 23.6067 53.2883 24.0696 53.2883 24.5903C53.2883 25.111 52.8255 25.5739 52.3047 25.5739H40.9065C40.3857 25.5739 39.9229 25.111 39.9229 24.5903C39.9229 24.0696 40.3857 23.6067 40.9065 23.6067H52.3047Z" fill="white"/>
<path d="M51.379 30.1447H41.8901V37.4349H51.379V30.1447Z" fill="#B73A46"/>
<path d="M36.6827 15.3327V24.5902C36.6827 25.1109 36.2199 25.5738 35.6991 25.5738H24.3009C23.7801 25.5738 23.3173 25.1109 23.3173 24.5902V15.3327C23.3173 14.812 23.7801 14.3491 24.3009 14.3491H35.6991C36.2777 14.3491 36.6827 14.7541 36.6827 15.3327ZM34.7155 23.6066V16.2585H25.2845V23.5487H34.7155V23.6066Z" fill="white"/>
<path d="M35.6991 28.2354C36.2199 28.2354 36.6827 28.6982 36.6827 29.219C36.6827 29.7397 36.2199 30.2026 35.6991 30.2026H24.3009C23.7801 30.2026 23.3173 29.7397 23.3173 29.219C23.3173 28.6982 23.7801 28.2354 24.3009 28.2354H35.6991Z" fill="white"/>
<path d="M35.6991 32.8641C36.2199 32.8641 36.6827 33.327 36.6827 33.8477C36.6827 34.3685 36.2199 34.8313 35.6991 34.8313H24.3009C23.7801 34.8313 23.3173 34.3685 23.3173 33.8477C23.3173 33.327 23.7801 32.8641 24.3009 32.8641H35.6991Z" fill="white"/>
<path d="M35.6991 37.4348C36.2199 37.4348 36.6827 37.8977 36.6827 38.4184C36.6827 38.9392 36.2199 39.402 35.6991 39.402H24.3009C23.7801 39.402 23.3173 38.9392 23.3173 38.4184C23.3173 37.8977 23.7801 37.4348 24.3009 37.4348H35.6991Z" fill="white"/>
<path d="M34.7734 16.2584H25.2845V23.5487H34.7734V16.2584Z" fill="#B73A46"/>
<path d="M19.0935 14.3491C19.6143 14.3491 20.0771 14.812 20.0771 15.3327C20.0771 15.8535 19.6143 16.3163 19.0935 16.3163H7.69528C7.17454 16.3163 6.71167 15.8535 6.71167 15.3327C6.71167 14.812 7.17454 14.3491 7.69528 14.3491H19.0935Z" fill="white"/>
<path d="M19.0935 18.9779C19.6143 18.9779 20.0771 19.4408 20.0771 19.9615C20.0771 20.4822 19.6143 20.9451 19.0935 20.9451H7.69528C7.17454 20.9451 6.71167 20.4822 6.71167 19.9615C6.71167 19.4408 7.17454 18.9779 7.69528 18.9779H19.0935Z" fill="white"/>
<path d="M19.0935 23.6067C19.6143 23.6067 20.0771 24.0696 20.0771 24.5903C20.0771 25.111 19.6143 25.5739 19.0935 25.5739H7.69528C7.17454 25.5739 6.71167 25.111 6.71167 24.5903C6.71167 24.0696 7.17454 23.6067 7.69528 23.6067H19.0935Z" fill="white"/>
<path d="M19.0935 28.2354C19.6143 28.2354 20.0771 28.6982 20.0771 29.219C20.0771 29.7397 19.6143 30.2026 19.0935 30.2026H7.69528C7.17454 30.2026 6.71167 29.7397 6.71167 29.219C6.71167 28.6982 7.17454 28.2354 7.69528 28.2354H19.0935Z" fill="white"/>
<path d="M19.0935 32.8641C19.6143 32.8641 20.0771 33.327 20.0771 33.8477C20.0771 34.3685 19.6143 34.8313 19.0935 34.8313H7.69528C7.17454 34.8313 6.71167 34.3685 6.71167 33.8477C6.71167 33.327 7.17454 32.8641 7.69528 32.8641H19.0935Z" fill="white"/>
<path d="M19.0935 37.4348C19.6143 37.4348 20.0771 37.8977 20.0771 38.4184C20.0771 38.9392 19.6143 39.402 19.0935 39.402H7.69528C7.17454 39.402 6.71167 38.9392 6.71167 38.4184C6.71167 37.8977 7.17454 37.4348 7.69528 37.4348H19.0935Z" fill="white"/>
<path d="M11.1668 4.86022C11.3404 5.0338 11.4561 5.26523 11.4561 5.55453C11.4561 5.78597 11.3404 6.07526 11.1668 6.24884C10.9932 6.42242 10.7618 6.53814 10.4725 6.53814C10.2411 6.53814 9.95178 6.42242 9.7782 6.24884C9.60463 6.07526 9.48891 5.84383 9.48891 5.55453C9.48891 5.32309 9.60463 5.0338 9.7782 4.86022C9.95178 4.68664 10.1832 4.57092 10.4725 4.57092C10.7618 4.57092 10.9932 4.62878 11.1668 4.86022Z" fill="#231F20"/>
<path d="M8.04243 4.86022C8.21601 5.03379 8.33173 5.26523 8.33173 5.55453C8.33173 5.78596 8.21601 6.07526 8.04243 6.24884C7.86886 6.42242 7.63742 6.53813 7.34812 6.53813C7.11669 6.53813 6.82739 6.42242 6.65381 6.24884C6.48024 6.0174 6.36452 5.78596 6.36452 5.49667C6.36452 5.26523 6.48024 4.97594 6.65381 4.80236C6.82739 4.62878 7.05883 4.51306 7.34812 4.51306C7.57956 4.57092 7.86886 4.62878 8.04243 4.86022Z" fill="#231F20"/>
<path d="M4.86018 4.86022C5.03375 5.0338 5.14947 5.26523 5.14947 5.55453C5.14947 5.78597 5.03375 6.07526 4.86018 6.24884C4.6866 6.42242 4.45516 6.53814 4.16587 6.53814C3.93443 6.53814 3.64513 6.42242 3.47156 6.24884C3.29798 6.0174 3.24012 5.78597 3.24012 5.49667C3.24012 5.26523 3.35584 4.97594 3.52942 4.80236C3.70299 4.62878 3.93443 4.57092 4.16587 4.57092C4.45516 4.57092 4.6866 4.62878 4.86018 4.86022Z" fill="#231F20"/>
</g>
<defs>
<clipPath id="clip0">
<rect width="60" height="44.6673" fill="white"/>
</clipPath>
</defs>
</svg>
