<svg width="100" height="40" viewBox="0 0 100 40" fill="none" xmlns="http://www.w3.org/2000/svg">
<g clip-path="url(#clip0)">
<path d="M60.3814 12.6447C60.3814 18.7564 55.5085 23.6036 49.3644 23.6036C43.0085 23.6036 38.1356 18.7564 38.1356 12.6447C38.1356 6.53301 43.0085 1.6858 49.1526 1.6858C55.2966 1.47505 60.3814 6.53301 60.3814 12.6447Z" fill="white"/>
<path d="M49.1526 25.2898C42.161 25.2898 36.4407 19.5996 36.4407 12.6449C36.4407 5.6902 42.161 0 49.1526 0C56.1441 0 61.8644 5.6902 61.8644 12.6449C61.8644 19.5996 56.1441 25.2898 49.1526 25.2898ZM49.1526 3.16122C43.8559 3.16122 39.6187 7.37619 39.6187 12.6449C39.6187 17.9136 43.8559 22.1286 49.1526 22.1286C54.4492 22.1286 58.6865 17.9136 58.6865 12.6449C58.6865 7.37619 54.4492 3.16122 49.1526 3.16122Z" fill="#231F20"/>
<path d="M60.5932 38.3564H37.9237V34.9844C37.9237 28.662 43.0085 23.604 49.3644 23.604C55.7203 23.604 60.8051 28.662 60.8051 34.9844V38.3564H60.5932Z" fill="#27AFE6"/>
<path d="M60.5932 40.0422H37.9237C37.0763 40.0422 36.4407 39.41 36.4407 38.567V35.195C36.4407 28.0296 42.161 22.3394 49.3644 22.3394C56.5678 22.3394 62.2881 28.0296 62.2881 35.195V38.567C62.0763 39.1992 61.4407 40.0422 60.5932 40.0422ZM39.4068 36.881H58.8983V35.195C58.8983 29.9263 54.4492 25.5006 49.1526 25.5006C43.8559 25.5006 39.4068 29.9263 39.4068 35.195V36.881Z" fill="#231F20"/>
<path d="M83.5956 17.955C83.5956 22.8136 79.7218 26.667 74.8375 26.667C69.9531 26.667 66.0794 22.8136 66.0794 17.955C66.0794 13.0963 69.9531 9.24297 74.8375 9.24297C79.5534 9.07543 83.5956 13.0963 83.5956 17.955Z" fill="white"/>
<path d="M74.8375 28.0076C69.2795 28.0076 64.732 23.484 64.732 17.9553C64.732 12.4265 69.2795 7.90295 74.8375 7.90295C80.3955 7.90295 84.943 12.4265 84.943 17.9553C84.943 23.484 80.3955 28.0076 74.8375 28.0076ZM74.8375 10.416C70.6269 10.416 67.2583 13.7668 67.2583 17.9553C67.2583 22.1437 70.6269 25.4945 74.8375 25.4945C79.0481 25.4945 82.4167 22.1437 82.4167 17.9553C82.4167 13.7668 78.8797 10.416 74.8375 10.416Z" fill="#231F20"/>
<path d="M83.764 38.3954H65.7425V35.7148C65.7425 30.6886 69.7847 26.6677 74.8375 26.6677C79.8902 26.6677 83.9325 30.6886 83.9325 35.7148V38.3954H83.764Z" fill="#B73A46"/>
<path d="M83.764 39.7351H65.7425C65.0688 39.7351 64.5635 39.2325 64.5635 38.5623V35.8817C64.5635 30.1854 69.111 25.6619 74.8375 25.6619C80.5639 25.6619 85.1114 30.1854 85.1114 35.8817V38.3948C85.1114 39.0649 84.4377 39.7351 83.764 39.7351ZM66.9215 37.222H82.4166V35.8817C82.4166 31.6932 78.8797 28.1749 74.669 28.1749C70.4584 28.1749 66.9215 31.6932 66.9215 35.8817V37.222Z" fill="#231F20"/>
<path d="M32.7307 17.955C32.7307 22.8136 28.8569 26.667 23.9726 26.667C19.0882 26.667 15.2144 22.8136 15.2144 17.955C15.2144 13.0963 19.0882 9.24297 23.9726 9.24297C28.8569 9.07543 32.7307 13.0963 32.7307 17.955Z" fill="white"/>
<path d="M23.9726 28.0076C18.4145 28.0076 13.8671 23.484 13.8671 17.9553C13.8671 12.4265 18.4145 7.90295 23.9726 7.90295C29.5306 7.90295 34.0781 12.4265 34.0781 17.9553C34.0781 23.484 29.5306 28.0076 23.9726 28.0076ZM23.9726 10.416C19.762 10.416 16.3934 13.7668 16.3934 17.9553C16.3934 22.1437 19.762 25.4945 23.9726 25.4945C28.1832 25.4945 31.5518 22.1437 31.5518 17.9553C31.5518 13.7668 28.1832 10.416 23.9726 10.416Z" fill="#231F20"/>
<path d="M33.0676 38.3952H14.8776V35.7146C14.8776 30.6884 18.9198 26.6675 23.9726 26.6675C29.0254 26.6675 33.0676 30.6884 33.0676 35.7146V38.3952Z" fill="#B73A46"/>
<path d="M33.0676 39.7352H14.8776C14.2039 39.7352 13.6986 39.065 13.6986 38.3948V35.7142C13.6986 30.0179 18.2461 25.4944 23.9726 25.4944C29.6991 25.4944 34.2466 30.0179 34.2466 35.7142V38.3948C34.2466 39.065 33.7413 39.7352 33.0676 39.7352ZM16.225 37.2221H31.7202V35.8818C31.7202 31.6933 28.1832 28.175 23.9726 28.175C19.762 28.175 16.225 31.6933 16.225 35.8818V37.2221Z" fill="#231F20"/>
</g>
<defs>
<clipPath id="clip0">
<rect width="100" height="39.726" fill="white"/>
</clipPath>
</defs>
</svg>
