<svg width="60" height="62" viewBox="0 0 60 62" fill="none" xmlns="http://www.w3.org/2000/svg">
<g clip-path="url(#clip0)">
<path d="M23.9161 46.7131C36.5066 46.7131 46.7133 36.5064 46.7133 23.9159C46.7133 11.3253 36.5066 1.11865 23.9161 1.11865C11.3256 1.11865 1.1189 11.3253 1.1189 23.9159C1.1189 36.5064 11.3256 46.7131 23.9161 46.7131Z" fill="white"/>
<path d="M23.9161 47.8322C17.4825 47.8322 11.6084 45.3147 6.99301 40.8392C2.51748 36.3636 0 30.3497 0 23.9161C0 17.4825 2.51748 11.4685 6.99301 6.99301C11.4685 2.51748 17.4825 0 23.9161 0C30.3496 0 36.2238 2.51748 40.8392 6.99301C45.4545 11.4685 47.8322 17.4825 47.8322 23.9161C47.8322 30.3497 45.3147 36.2238 40.8392 40.8392C36.2238 45.3147 30.2098 47.8322 23.9161 47.8322ZM23.9161 2.0979C11.8881 2.0979 2.0979 11.8881 2.0979 23.9161C2.0979 35.9441 11.8881 45.7343 23.9161 45.7343C35.9441 45.7343 45.7343 35.9441 45.7343 23.9161C45.7343 11.8881 35.9441 2.0979 23.9161 2.0979Z" fill="#231F20"/>
<path d="M24.8951 0.979248H22.7972V46.7135H24.8951V0.979248Z" fill="#231F20"/>
<path d="M46.7133 22.7969H0.979004V24.8948H46.7133V22.7969Z" fill="#231F20"/>
<path d="M19.4405 47.1332C14.5454 41.3989 11.6084 35.3849 10.4895 29.2311C9.65034 24.336 9.93006 19.301 11.4685 14.266C14.1259 5.87444 19.3007 0.55975 19.4405 0.280029L20.979 1.81849L20.2797 1.11919L20.979 1.81849C20.979 1.81849 15.944 6.99332 13.4266 14.9653C12.028 19.5807 11.7482 24.336 12.5874 28.9514C13.7063 34.6856 16.5035 40.4199 21.1189 45.8744L19.4405 47.1332Z" fill="#231F20"/>
<path d="M28.5314 47.1332L26.993 45.7346C31.6084 40.28 34.4056 34.5458 35.5245 28.8115C36.3636 24.1961 36.0839 19.5807 34.6853 14.8255C32.1678 6.99332 27.1328 1.81849 26.993 1.81849L28.5314 0.280029C28.8112 0.55975 33.986 5.73458 36.5035 14.266C38.0419 19.301 38.4615 24.336 37.4825 29.2311C36.5035 35.3849 33.4266 41.3989 28.5314 47.1332Z" fill="#231F20"/>
<path d="M24.6154 13.8461C22.2378 13.8461 19.8601 13.5664 17.3427 13.1468C10.9091 12.0279 6.57342 9.65027 6.2937 9.51041L7.27272 7.69223L6.85314 8.53139L7.41258 7.55237C7.41258 7.55237 11.7482 9.92999 17.9021 11.0489C21.5385 11.7482 25.035 11.888 28.5315 11.4685C32.7273 11.0489 36.7832 9.65027 40.5594 7.55237L41.5385 9.37055C37.6224 11.6083 33.2867 13.0069 28.6713 13.5664C27.2727 13.8461 26.014 13.8461 24.6154 13.8461Z" fill="#231F20"/>
<path d="M40.4196 40.2795C40.4196 40.2795 36.0839 37.9019 29.9301 36.783C26.2937 36.0837 22.7972 35.9439 19.3007 36.3635C15.1049 36.783 11.0489 38.1816 7.27272 40.2795L6.2937 38.4614C10.2098 36.2236 14.5454 34.825 19.1608 34.2656C22.7972 33.846 26.5734 33.9858 30.3496 34.6851C36.9231 35.9439 41.2587 38.3215 41.3986 38.4614L40.4196 40.2795L40.979 39.3005L40.4196 40.2795Z" fill="#231F20"/>
<path d="M56.7832 42.6574C57.9418 42.6574 58.8811 40.9668 58.8811 38.8812C58.8811 36.7957 57.9418 35.105 56.7832 35.105C55.6246 35.105 54.6853 36.7957 54.6853 38.8812C54.6853 40.9668 55.6246 42.6574 56.7832 42.6574Z" fill="#2888B8"/>
<path d="M56.7832 43.6362C54.965 43.6362 53.5664 41.5383 53.5664 38.881C53.5664 36.2236 54.965 34.1257 56.7832 34.1257C58.6014 34.1257 60 36.2236 60 38.881C60 41.5383 58.6014 43.6362 56.7832 43.6362ZM56.7832 36.2236C56.3636 36.2236 55.6643 37.2027 55.6643 38.881C55.6643 40.5593 56.3636 41.5383 56.7832 41.5383C57.2028 41.5383 57.9021 40.5593 57.9021 38.881C57.9021 37.2027 57.2028 36.2236 56.7832 36.2236Z" fill="#231F20"/>
<path d="M36.7832 35.3846L34.8251 38.8811H33.986L34.4055 39.7203L33.986 40.5594H34.8251L36.7832 44.0559C43.6363 44.0559 47.2727 46.5734 52.4475 51.0489L56.3636 54.4056V40.5594V39.021V25.1748L52.4475 28.5314C47.4125 32.8671 43.6363 35.3846 36.7832 35.3846Z" fill="#B73A46"/>
<path d="M56.3636 55.3847C56.0839 55.3847 55.8042 55.2448 55.6643 55.105L51.8881 51.7483C46.5734 47.1329 43.0769 45.035 36.923 45.035C36.5035 45.035 36.2237 44.8952 35.944 44.4756L34.2657 41.5385H33.986C33.5664 41.5385 33.2867 41.3987 33.1468 40.9791C33.007 40.6994 33.007 40.2798 33.1468 40.0001L33.2867 39.7203L33.1468 39.4406C33.007 39.1609 33.007 38.7413 33.1468 38.4616C33.2867 38.1819 33.7063 37.9022 33.986 37.9022H34.2657L35.944 34.9651C36.0839 34.6854 36.5035 34.4057 36.923 34.4057C43.2168 34.4057 46.5734 32.3078 51.8881 27.6924L55.8042 24.3357C56.0839 24.056 56.5035 24.056 56.923 24.1959C57.3426 24.3357 57.4825 24.7553 57.4825 25.1749V54.5455C57.4825 54.9651 57.2028 55.3847 56.923 55.5245C56.6433 55.3847 56.5035 55.3847 56.3636 55.3847ZM37.4825 42.7973C44.6154 42.9371 48.5314 45.8742 53.2867 50.07L55.3846 52.028V27.2728L53.1468 29.091C48.3916 33.2868 44.4755 36.2238 37.3426 36.3637L35.6643 39.3008C35.6643 39.4406 35.5244 39.4406 35.3846 39.5805C35.5244 39.7203 35.5244 39.7203 35.6643 39.8602L37.4825 42.7973Z" fill="#231F20"/>
<path d="M37.7622 33.1472H21.1188V46.0143H37.7622V33.1472Z" fill="#27AFE6"/>
<path d="M37.7622 47.133H21.1189C20.5594 47.133 20.1398 46.7135 20.1398 46.154V33.2869C20.1398 32.7274 20.5594 32.3079 21.1189 32.3079H37.7622C38.3217 32.3079 38.7412 32.7274 38.7412 33.2869V46.154C38.8811 46.7135 38.3217 47.133 37.7622 47.133ZM22.0979 45.0351H36.6433V34.2659H22.0979V45.0351Z" fill="#231F20"/>
<path d="M25.3147 46.0144V60.42H36.0839L32.1678 46.0144H25.3147Z" fill="#B73A46"/>
<path d="M36.0839 61.5386H25.1748C24.6154 61.5386 24.1958 61.1191 24.1958 60.5596V46.0142C24.1958 45.4547 24.6154 45.0352 25.1748 45.0352H32.1678C32.5874 45.0352 33.007 45.3149 33.1469 45.7345L37.2028 60.14C37.3427 60.4198 37.2028 60.8393 37.0629 60.9792C36.7832 61.2589 36.5035 61.5386 36.0839 61.5386ZM26.2937 59.4407H34.8252L31.4685 47.1331H26.4336V59.4407H26.2937Z" fill="#231F20"/>
</g>
<defs>
<clipPath id="clip0">
<rect width="60" height="61.5385" fill="white"/>
</clipPath>
</defs>
</svg>
