<svg width="40" height="40" viewBox="0 0 40 40" fill="none" xmlns="http://www.w3.org/2000/svg">
<circle r="20" transform="matrix(-1 0 0 1 20 20)" fill="white" fill-opacity="0.3"/>
<circle r="15" transform="matrix(-1 0 0 1 20 20)" fill="white"/>
<g clip-path="url(#clip0)">
<path d="M14.1375 19.5744C14.1376 19.5743 14.1377 19.5741 14.1379 19.574L16.5872 17.1365C16.7707 16.9539 17.0675 16.9546 17.2501 17.1381C17.4328 17.3216 17.4321 17.6184 17.2486 17.801L15.6041 19.4375H25.5312C25.7901 19.4375 26 19.6474 26 19.9062C26 20.1651 25.7901 20.375 25.5312 20.375H15.6041L17.2486 22.0115C17.432 22.1941 17.4327 22.4909 17.2501 22.6744C17.0675 22.8579 16.7707 22.8586 16.5872 22.676L14.1379 20.2385C14.1377 20.2384 14.1376 20.2382 14.1375 20.2381C13.9539 20.0548 13.9545 19.7571 14.1375 19.5744Z" fill="#B73A46" fill-opacity="0.6"/>
</g>
<defs>
<clipPath id="clip0">
<rect width="12" height="12" fill="white" transform="matrix(-1 0 0 1 25.6 13.6001)"/>
</clipPath>
</defs>
</svg>
