<svg width="72" height="72" viewBox="0 0 72 72" fill="none" xmlns="http://www.w3.org/2000/svg">
<path d="M46.9162 41.8065C48.1549 43.0452 48.1549 44.9032 46.9162 46.1419L46.2968 46.7613C45.0581 48 43.2 48 41.9613 46.7613L32.8258 37.6258C31.5871 36.3871 31.5871 34.529 32.8258 33.2903L33.4452 32.671C34.6839 31.4323 36.542 31.4323 37.7807 32.671L46.9162 41.8065Z" fill="#231F20" stroke="#231F20" stroke-width="2" stroke-miterlimit="10" stroke-linecap="round" stroke-linejoin="round"/>
<path d="M69.5226 59.458C70.7613 60.6967 70.7613 62.5548 69.5226 63.7935L63.9484 69.3677C62.7097 70.6064 60.8516 70.6064 59.6129 69.3677L40.4129 50.4774C39.1742 49.2387 39.1742 47.3806 40.4129 46.1419L45.9871 40.5677C47.2258 39.329 49.0839 39.329 50.3226 40.5677L69.5226 59.458Z" fill="#B73A46"/>
<path d="M36.3871 7.58705C44.2839 15.4838 44.2839 28.4903 36.3871 36.3871C28.4903 44.2838 15.4839 44.2838 7.5871 36.3871C-0.30967 28.4903 -0.30967 15.4838 7.5871 7.58705C15.4839 -0.464563 28.3355 -0.464563 36.3871 7.58705Z" fill="#00AEEF" stroke="#231F20" stroke-width="2" stroke-miterlimit="10" stroke-linecap="round" stroke-linejoin="round"/>
<path d="M11.1484 32.6711C5.10969 26.6323 5.10969 17.0323 11.1484 10.9936C17.1871 4.95492 26.7871 4.95492 32.8258 10.9936C38.8645 17.0323 38.8645 26.6323 32.8258 32.6711C26.7871 38.7098 17.0323 38.7098 11.1484 32.6711Z" fill="white" stroke="#231F20" stroke-width="2" stroke-miterlimit="10" stroke-linecap="round" stroke-linejoin="round"/>
<path d="M28.4903 15.4839C32.2065 19.2 32.2065 25.3936 28.4903 29.1097" stroke="#00AEEF" stroke-width="2" stroke-miterlimit="10" stroke-linecap="round" stroke-linejoin="round"/>
</svg>
