<svg width="80" height="80" viewBox="0 0 80 80" fill="none" xmlns="http://www.w3.org/2000/svg">
<g clip-path="url(#clip0)">
<path d="M12.7697 2.39233L22.3936 12.0161C23.4611 13.0836 23.4611 14.8142 22.3936 15.8817L16.1436 22.1317C15.0761 23.1992 13.3455 23.1992 12.278 22.1317L2.65426 12.508C0.242228 18.7973 1.56676 26.1912 6.63738 31.2619C11.6674 36.2919 18.9835 37.6353 25.24 35.302L61.6266 75.0917C65.3627 79.1773 71.7522 79.3198 75.6671 75.4051C79.6003 71.4719 79.4349 65.0456 75.3043 61.32L35.4236 25.3492C37.9519 19.0131 36.6533 11.505 31.5236 6.3753C26.453 1.30468 19.0593 -0.0196964 12.7697 2.39233ZM71.5004 68.4675C71.5004 70.0751 70.1972 71.3783 68.5896 71.3783C66.9819 71.3783 65.6788 70.075 65.6788 68.4675C65.6788 66.86 66.9821 65.5567 68.5896 65.5567C70.1972 65.5567 71.5004 66.8598 71.5004 68.4675Z" fill="white"/>
<path d="M32.1103 21.6829L35.6147 24.8437C37.8789 18.6173 36.5175 11.3695 31.5234 6.37557C31.1486 6.00072 30.7597 5.64885 30.3607 5.31494C33.6548 10.1907 34.2376 16.3515 32.1103 21.6829Z" fill="white"/>
<path d="M58.2859 71.4393L61.6261 75.0918C65.3622 79.1774 71.7517 79.3199 75.6665 75.4052C79.5998 71.4719 79.4344 65.0457 75.3037 61.3201L73.9481 60.0974C76.0283 63.7862 75.5214 68.5707 72.3533 71.7387C68.4386 75.6534 62.022 75.5249 58.2859 71.4393Z" fill="white"/>
<path d="M25.2396 35.302L21.9264 31.6354C16.1368 33.7947 9.44136 32.8029 4.48824 28.6575C5.1087 29.5758 5.82417 30.449 6.63699 31.262C11.6671 36.292 18.9832 37.6354 25.2396 35.302Z" fill="white"/>
<path d="M47.5488 36.2861L44.4556 39.3794L42.3835 37.3074C41.0996 36.0235 39.0179 36.0235 37.734 37.3074L34.9027 40.1386C35.6157 41.9749 35.6127 44.025 34.8935 45.8591L41.7388 53.3446C43.2356 52.6469 44.9068 52.4464 46.5038 52.7438C47.454 52.9207 48.4301 52.6197 49.1135 51.9364L50.7382 50.3117C52.0221 49.0278 52.0221 46.9461 50.7382 45.6622C49.5938 44.5178 49.5938 42.6625 50.7382 41.5182L51.9765 40.2799L47.5488 36.2861Z" fill="white"/>
<path d="M78.1001 10.871L72.7796 5.55054C72.2679 5.03883 71.4068 5.16883 71.069 5.80883L68.2048 11.2354L42.032 37.408L46.2426 41.6185L72.4152 15.4459L77.8418 12.5816C78.4818 12.2438 78.6118 11.3827 78.1001 10.871Z" fill="#E9EBF2"/>
<path d="M78.1001 10.8709L76.7568 9.52759C76.8509 9.97603 76.6535 10.4656 76.2073 10.701L70.7807 13.5652L44.6081 39.7379L42.1549 37.2848L42.0318 37.4079L46.2424 41.6184L72.4152 15.4457L77.8418 12.5815C78.4818 12.2437 78.6118 11.3826 78.1001 10.8709Z" fill="#C7CAD3"/>
<path d="M37.3493 52.6706C39.6207 50.3992 42.9366 49.8117 45.7505 50.9042L48.5818 48.0729C49.8657 46.789 49.8657 44.7073 48.5818 43.4234L40.2272 35.0689C38.9433 33.785 36.8616 33.785 35.5777 35.0689L32.7465 37.9001C33.839 40.7139 33.2515 44.0298 30.9801 46.3014C28.7087 48.5728 25.3927 49.1603 22.5788 48.0678L7.56974 63.0769C3.97881 66.6678 3.97881 72.49 7.56974 76.0809C11.1608 79.672 16.9829 79.672 20.574 76.0809L35.583 61.0719C34.4902 58.2579 35.0777 54.942 37.3493 52.6706Z" fill="#B73A46"/>
<path d="M48.5817 43.4235L46.6062 41.448C46.8829 42.5352 46.5997 43.7355 45.7487 44.5863L42.9175 47.4175C40.1037 46.325 36.7878 46.9125 34.5164 49.1839C32.245 51.4553 31.6575 54.7713 32.75 57.5852L17.7408 72.5942C14.4645 75.8705 9.33201 76.156 5.73013 73.4541C6.17185 74.4052 6.78498 75.2964 7.56966 76.081C11.1606 79.6719 16.9828 79.6719 20.5739 76.081L35.5829 61.0717C34.4904 58.258 35.0779 54.9421 37.3494 52.6705C39.6208 50.3991 42.9367 49.8116 45.7506 50.9041L48.5819 48.0728C49.8656 46.7891 49.8656 44.7074 48.5817 43.4235Z" fill="#B73A46"/>
<path d="M12.8846 67.8062C12.571 67.8062 12.2571 67.6865 12.0177 67.4473C11.539 66.9684 11.539 66.1925 12.0177 65.7136L23.6299 54.1014C24.1088 53.6228 24.8847 53.6228 25.3637 54.1014C25.8424 54.5803 25.8424 55.3562 25.3637 55.8351L13.7515 67.4473C13.5121 67.6865 13.1982 67.8062 12.8846 67.8062Z" fill="#FF6B5C"/>
<path d="M17.1751 72.097C16.8615 72.097 16.5476 71.9773 16.3082 71.7381C15.8295 71.2592 15.8295 70.4832 16.3082 70.0043L27.9204 58.3921C28.3993 57.9136 29.1752 57.9136 29.6541 58.3921C30.1329 58.8711 30.1329 59.647 29.6541 60.1259L18.042 71.7381C17.8026 71.9772 17.4888 72.097 17.1751 72.097Z" fill="#FF6B5C"/>
<path d="M72.7261 68.4678C72.7261 66.1868 70.8704 64.3311 68.5895 64.3311C66.3086 64.3311 64.4528 66.1867 64.4528 68.4678C64.4528 70.7487 66.3084 72.6043 68.5895 72.6043C70.8704 72.6043 72.7261 70.7487 72.7261 68.4678ZM66.9044 68.4678C66.9044 67.5387 67.6603 66.7828 68.5894 66.7828C69.5184 66.7828 70.2744 67.5387 70.2744 68.4678C70.2744 69.3968 69.5184 70.1528 68.5894 70.1528C67.6603 70.1528 66.9044 69.3968 66.9044 68.4678Z" fill="#231F20"/>
<path d="M79.7347 68.2531C79.6566 65.2245 78.3747 62.4389 76.125 60.4097L51.445 38.1495L73.2666 16.328C73.41 16.2851 73.5517 16.2319 73.6885 16.1597L78.4139 13.6656C79.0667 13.3209 79.5046 12.7044 79.6147 11.9745C79.725 11.2445 79.4889 10.5264 78.9669 10.0039L73.6463 4.68342C73.1241 4.16139 72.4064 3.9253 71.6758 4.03561C70.946 4.14576 70.3296 4.58358 69.9847 5.23655L67.4905 9.9617C67.4177 10.0997 67.3617 10.2423 67.3188 10.3872L57.0188 20.6872C56.54 21.1661 56.54 21.942 57.0188 22.4209C57.4977 22.8994 58.2736 22.8994 58.7525 22.4209L68.2044 12.9689L70.6814 15.4459L46.5096 39.6178L44.0325 37.1408L54.5833 26.5901C55.0621 26.1112 55.0621 25.3353 54.5833 24.8564C54.1044 24.378 53.3285 24.378 52.8496 24.8564L45.1942 32.5117L36.8627 24.997C39.2249 18.1976 37.5142 10.6328 32.39 5.50873C27.1414 0.26014 19.2677 -1.41252 12.3305 1.24795C11.9428 1.3967 11.6567 1.73139 11.5705 2.13748C11.4842 2.54358 11.6091 2.96577 11.9027 3.25936L21.5264 12.8833C21.8111 13.168 21.9681 13.5465 21.9681 13.9492C21.9681 14.3519 21.8113 14.7305 21.5264 15.0153L15.2766 21.2651C14.9919 21.55 14.6133 21.7069 14.2106 21.7069C13.808 21.7069 13.4294 21.5501 13.1446 21.2651L3.52065 11.6412C3.2269 11.3476 2.80502 11.2228 2.39877 11.309C1.99268 11.3955 1.65799 11.6814 1.50924 12.069C-1.15123 19.0059 0.521427 26.8797 5.77018 32.1286C10.7688 37.127 18.1871 38.8869 24.8794 36.7245L31.3211 43.7687C31.0116 44.3736 30.6091 44.9376 30.1127 45.4341C28.2558 47.2909 25.4728 47.8759 23.022 46.9247C22.5691 46.7484 22.0552 46.8569 21.7114 47.2005L6.70221 62.2097C2.63908 66.273 2.63908 72.8842 6.70221 76.9472C8.6708 78.9161 11.2878 80 14.0714 80C16.8549 80 19.472 78.9161 21.4403 76.9478L36.4496 61.9387C36.793 61.5951 36.9013 61.0811 36.7253 60.6281C35.7739 58.1775 36.3589 55.3942 38.2156 53.5373C40.0728 51.6805 42.856 51.0955 45.3066 52.0467C45.7599 52.223 46.2735 52.1142 46.6172 51.7709L49.4485 48.9397C50.301 48.0872 50.7703 46.9536 50.7703 45.7481C50.7703 44.5426 50.301 43.409 49.4485 42.5565L48.2433 41.3514L49.7094 39.8853L74.4831 62.2301C76.2288 63.8047 77.2236 65.9662 77.2841 68.3162C77.3446 70.6662 76.4624 72.8761 74.8 74.5383C73.1456 76.193 70.9414 77.0736 68.6069 77.0231C66.2677 76.9709 64.1099 75.9912 62.531 74.2645L44.1108 54.1215C43.6535 53.6217 42.8785 53.5873 42.3789 54.0442C41.8794 54.5012 41.8447 55.2766 42.3016 55.7761L60.7216 75.919C62.7566 78.1442 65.5375 79.4067 68.5521 79.474C68.6364 79.4759 68.7206 79.4769 68.8049 79.4769C71.7249 79.4769 74.461 78.3442 76.5336 76.2719C78.6758 74.1295 79.8125 71.2817 79.7347 68.2531ZM26.1442 34.4748C25.8067 34.1061 25.2796 33.9789 24.8111 34.1536C18.8169 36.3895 12.0228 34.9142 7.50361 30.3955C3.40018 26.2919 1.81018 20.3428 3.21127 14.7994L11.4108 22.9989C12.1588 23.7467 13.153 24.1584 14.2105 24.1584C15.268 24.1584 16.2622 23.7467 17.01 22.9989L23.2599 16.749C24.0077 16.0011 24.4194 15.0069 24.4194 13.9494C24.4194 12.8919 24.0077 11.8976 23.2599 11.1498L15.0605 2.94998C20.6035 1.54827 26.5531 3.13873 30.6564 7.24233C35.2906 11.8762 36.7147 18.8053 34.2849 24.8951C34.0947 25.3715 34.2213 25.9161 34.6024 26.2597L43.4585 34.2475L42.2988 35.4072L41.0936 34.202C40.2411 33.3495 39.1075 32.8801 37.9021 32.8801C36.6966 32.8801 35.563 33.3495 34.7105 34.202L31.8792 37.0333C31.5358 37.3769 31.4275 37.8909 31.6035 38.3439C31.9296 39.1837 32.071 40.0622 32.0467 40.9295L26.1442 34.4748ZM47.7146 47.2061L45.4205 49.5003C42.2655 48.5908 38.8324 49.4536 36.4822 51.8036H36.482C34.132 54.1537 33.2691 57.5864 34.1789 60.742L19.7067 75.2139C18.2014 76.7192 16.2002 77.5483 14.0716 77.5483C11.943 77.5483 9.94143 76.7192 8.43643 75.2139C5.32908 72.1067 5.32908 67.0508 8.43643 63.9434L22.9085 49.4714C26.0638 50.3814 29.4964 49.518 31.8467 47.168C34.1967 44.8178 35.0599 41.3851 34.15 38.2297L36.4442 35.9356C37.248 35.1315 38.5563 35.1315 39.36 35.9356L41.4321 38.0076L45.6425 42.2181L47.7146 44.2901C48.5186 45.0942 48.5186 46.4023 47.7146 47.2061ZM72.0574 6.56186L77.0885 11.593L72.6425 13.9397L69.7106 11.0078L72.0574 6.56186Z" fill="#231F20"/>
<path d="M25.3637 54.1014C24.8848 53.6228 24.1088 53.6228 23.6299 54.1014L12.0177 65.7136C11.539 66.1925 11.539 66.9684 12.0177 67.4473C12.2571 67.6865 12.571 67.8062 12.8846 67.8062C13.1982 67.8062 13.5121 67.6865 13.7515 67.4473L25.3637 55.8351C25.8423 55.3562 25.8423 54.5801 25.3637 54.1014Z" fill="#231F20"/>
<path d="M27.92 58.3919L16.3078 70.0039C15.829 70.4828 15.829 71.2588 16.3078 71.7377C16.5472 71.9769 16.8609 72.0966 17.1747 72.0966C17.4883 72.0966 17.8022 71.9769 18.0415 71.7377L29.6537 60.1257C30.1325 59.6467 30.1325 58.8708 29.6537 58.3919C29.175 57.9133 28.3989 57.9133 27.92 58.3919Z" fill="#231F20"/>
</g>
<defs>
<clipPath id="clip0">
<rect width="80" height="80" fill="white"/>
</clipPath>
</defs>
</svg>
