<svg width="15" height="9" viewBox="0 0 15 9" fill="none" xmlns="http://www.w3.org/2000/svg">
<path d="M14.8281 4.08524C14.828 4.08507 14.8278 4.08486 14.8276 4.08469L11.766 1.03781C11.5366 0.809559 11.1656 0.810408 10.9373 1.0398C10.709 1.26917 10.7099 1.64015 10.9393 1.86844L12.9949 3.91406L0.585938 3.91406C0.262324 3.91406 0 4.17638 0 4.5C0 4.82361 0.262324 5.08594 0.585938 5.08594L12.9948 5.08594L10.9393 7.13156C10.7099 7.35984 10.7091 7.73083 10.9373 7.96019C11.1657 8.18962 11.5367 8.19041 11.766 7.96218L14.8276 4.91531C14.8278 4.91513 14.828 4.91493 14.8282 4.91475C15.0577 4.68571 15.0569 4.31352 14.8281 4.08524Z" fill="#B73A46"/>
</svg>
