<svg width="70" height="70" viewBox="0 0 70 70" fill="none" xmlns="http://www.w3.org/2000/svg">
<path d="M3.2678 35.602C3.2678 53.489 17.715 67.9361 35.602 67.9361C53.4889 67.9361 67.9361 53.489 67.9361 35.602C67.9361 17.715 53.4889 3.26782 35.602 3.26782C17.715 3.26782 3.2678 17.715 3.2678 35.602Z" fill="white"/>
<path d="M13.5721 56.9326L13.5721 56.9326L13.5777 56.9383L13.6108 56.9715C13.9106 57.2714 14.2763 57.6375 14.6668 57.8535C20.0877 63.0736 27.5858 66.2002 35.602 66.2002C52.3873 66.2002 66.2003 52.5629 66.2003 35.6019C66.2003 18.8166 52.563 5.00361 35.602 5.00361C18.6428 5.00361 5.0037 18.6427 5.0037 35.6019C5.0037 43.816 8.15053 51.3361 13.5721 56.9326ZM11.3634 59.1574C5.42974 53.053 1.70395 44.7493 1.70395 35.6019C1.70395 16.9591 16.9592 1.70386 35.602 1.70386C54.2448 1.70386 69.5 16.9591 69.5 35.6019C69.5 54.2447 54.2448 69.4999 35.602 69.4999C26.6248 69.4999 18.4921 65.9447 12.3878 60.1819L11.3659 59.16C11.3651 59.1591 11.3642 59.1583 11.3634 59.1574Z" fill="#B73A46" stroke="#231F20"/>
<path d="M11.1794 35.6019C11.1794 22.1867 22.0148 11.3513 35.43 11.3513C48.8452 11.3513 59.6806 22.1867 59.6806 35.6019C59.6806 49.0172 48.8452 59.8525 35.43 59.8525C22.1867 59.8525 11.1794 49.0172 11.1794 35.6019ZM12.7273 35.6019C12.7273 48.1572 23.0467 58.4766 35.602 58.4766C48.1573 58.4766 58.4767 48.1572 58.4767 35.6019C58.4767 23.0467 48.1573 12.7272 35.602 12.7272C22.8747 12.7272 12.7273 22.8747 12.7273 35.6019Z" fill="#231F20"/>
<path d="M19.9509 35.602C19.9509 27.0025 27.0025 19.9509 35.602 19.9509C44.2015 19.9509 51.2531 27.0025 51.2531 35.602C51.2531 44.2015 44.2015 51.2531 35.602 51.2531C27.0025 51.2531 19.9509 44.2015 19.9509 35.602ZM21.3268 35.602C21.3268 43.5136 27.6904 49.8772 35.602 49.8772C43.5135 49.8772 49.8772 43.5136 49.8772 35.602C49.8772 27.6905 43.5135 21.3268 35.602 21.3268C27.6904 21.3268 21.3268 27.6905 21.3268 35.602Z" fill="#231F20"/>
<path d="M29.2384 35.6019C29.2384 39.0417 32.1622 41.9656 35.602 41.9656C39.0418 41.9656 41.9656 39.2137 41.9656 35.6019C41.9656 32.1621 39.0418 29.2383 35.602 29.2383C32.1622 29.2383 29.2384 32.1621 29.2384 35.6019Z" fill="#B73A46"/>
<path opacity="0.2" d="M11.0073 59.5085C11.3513 59.8525 11.6953 60.1965 12.0392 60.5405L13.5871 58.9926L15.1351 57.4447L36.4618 36.1179L35.4299 35.0859L13.9311 56.5847L12.3832 58.1326L11.0073 59.5085Z" fill="black"/>
<path d="M10.8354 19.435L19.0909 19.091L8.25553 8.25562L0 8.5996L10.8354 19.435Z" fill="#DFDFDF"/>
<path d="M19.4349 10.8354L19.0909 19.0909L8.2555 8.25553L8.59948 0L19.4349 10.8354Z" fill="#A9ADAE"/>
<path d="M5.67574 6.8795L35.0861 36.2898L35.602 35.6019L6.3637 6.36353L5.67574 6.8795Z" fill="#EFEFEF"/>
<path d="M6.87954 5.67578L6.36357 6.36374L35.6019 35.6021L36.2899 35.0861L6.87954 5.67578Z" fill="#DCDCDC"/>
<path d="M34.742 35.7741C34.742 36.29 35.086 36.634 35.6019 36.634C36.1179 36.634 36.4619 36.29 36.4619 35.7741C36.4619 35.2581 36.1179 34.9141 35.6019 34.9141C35.258 34.7421 34.742 35.2581 34.742 35.7741Z" fill="#E6E6E6"/>
<path d="M4.98765 6.01949C4.98765 6.53546 5.50362 7.05143 6.01959 7.05143C6.53556 7.05143 7.05153 6.53546 7.05153 6.01949C7.05153 5.50352 6.53556 4.98755 6.01959 4.98755C5.33163 4.98755 4.98765 5.33153 4.98765 6.01949Z" fill="#E6E6E6"/>
</svg>
