<svg width="70" height="74" viewBox="0 0 70 74" fill="none" xmlns="http://www.w3.org/2000/svg">
<g clip-path="url(#clip0)">
<path d="M43.3124 41.353C43.317 41.9288 43.2641 42.5031 43.1554 43.0689C42.5078 46.4483 40.0629 49.2092 36.7751 50.2754C35.8466 50.5641 34.879 50.7111 33.9061 50.7118C29.337 50.6974 25.4384 47.4178 24.6652 42.9364C23.8921 38.4558 26.4679 34.0704 30.7707 32.5403C31.7758 32.1762 32.8367 31.9911 33.9061 31.9942C39.0969 32.0033 43.3032 36.1884 43.3124 41.353Z" fill="#B73A46"/>
<path d="M37.0416 41.353C37.0416 43.0758 35.6378 44.4726 33.9062 44.4726C32.1747 44.4726 30.7708 43.0758 30.7708 41.353C30.7708 39.6302 32.1747 38.2334 33.9062 38.2334C35.6378 38.2334 37.0416 39.6302 37.0416 41.353Z" fill="#27AFE6"/>
<path d="M40.2398 34.4426C42.2767 30.8393 43.3362 26.77 43.3124 22.6351C43.3124 12.2938 36.838 3.91748 30.7708 3.91748V32.54C31.7758 32.176 32.8368 31.9909 33.9062 31.9939C36.2524 31.9848 38.5151 32.8599 40.2398 34.4426Z" fill="white"/>
<path d="M24.5 41.3527C24.5007 40.6809 24.5742 40.0114 24.7197 39.3564C20.5677 39.3991 16.4991 40.5172 12.9144 42.6002C12.1053 43.0724 11.3237 43.5895 10.5743 44.1493C7.97779 46.0366 5.7977 48.4327 4.16798 51.1905C1.73222 55.4016 1.17571 59.8113 2.89728 62.7687L8.48301 59.56L15.3103 55.6377L27.7923 48.4624C25.7056 46.6833 24.503 44.0869 24.5 41.3527Z" fill="white"/>
<path d="M36.7752 50.2753C38.8887 53.826 41.8917 56.7712 45.4918 58.8231C54.49 63.9853 65.0253 62.5977 68.0505 57.3722L43.1555 43.0688C42.5079 46.4482 40.063 49.2091 36.7752 50.2753Z" fill="white"/>
<path d="M38.6093 41.3528C38.6093 38.7686 36.5035 36.6733 33.9062 36.6733C31.3089 36.6733 29.2031 38.7686 29.2031 41.3528C29.2031 43.9369 31.3089 46.0322 33.9062 46.0322C36.5035 46.0322 38.6093 43.9369 38.6093 41.3528ZM33.9062 42.9126C33.0404 42.9126 32.3385 42.2142 32.3385 41.3528C32.3385 40.4914 33.0404 39.793 33.9062 39.793C34.772 39.793 35.4739 40.4914 35.4739 41.3528C35.4739 42.2142 34.772 42.9126 33.9062 42.9126Z" fill="#231F20"/>
<path d="M68.8345 56.015L44.8489 42.2296C44.8711 41.9425 44.8879 41.6523 44.8879 41.3484C44.8795 38.7087 43.9112 36.161 42.1605 34.1778C43.9555 30.5928 44.8871 26.6407 44.8802 22.6354C44.8802 12.029 38.1547 2.35791 30.7709 2.35791C29.9051 2.35791 29.2032 3.05632 29.2032 3.91771V31.5121C26.5339 32.7771 24.4886 35.0567 23.5279 37.8389C19.5137 38.0803 15.6113 39.2486 12.1291 41.2517C12.0709 41.2845 12.0166 41.3233 11.9584 41.3576C11.9568 33.3445 16.366 25.9736 23.4467 22.1548L21.9495 19.4145C13.8606 23.7786 8.82296 32.1983 8.82296 41.353C8.82296 42.0484 8.87119 42.7331 8.92783 43.4147C7.39151 44.6234 5.99986 46.0042 4.78121 47.5298C1.69785 33.225 9.57773 18.8242 23.3273 13.6383L22.2143 10.7228C5.95929 16.8744 -2.6899 34.5388 2.46104 51.066C2.29493 51.3775 2.11963 51.6898 1.96883 52.002C-0.0612297 56.3197 -0.218154 60.5276 1.53786 63.5444C1.97036 64.2901 2.92951 64.546 3.67968 64.1149L8.06896 61.5901C18.1672 74.3998 36.1981 77.8675 50.3672 69.7258L48.7995 67.0273C36.127 74.3001 20.0212 71.3328 10.8063 60.0272L14.9514 57.6464C21.6524 65.3914 32.4266 68.2817 42.1322 64.9374L41.1049 61.9877C32.8216 64.8483 23.6213 62.5162 17.7225 56.0607L27.7089 50.3219C29.5285 51.5816 31.6895 52.2617 33.9063 52.2716C34.6228 52.2633 35.337 52.1856 36.0382 52.0409C38.2565 55.3836 41.2251 58.1674 44.7095 60.1735C48.5239 62.3921 52.8543 63.5817 57.2727 63.6252C57.9003 63.6252 58.5273 63.6008 59.1542 63.5475C63.9278 63.137 67.6687 61.1704 69.4178 58.1506C69.6268 57.7904 69.6827 57.3631 69.5732 56.9625C69.4637 56.5611 69.1981 56.2207 68.8345 56.015ZM32.3386 5.70524C36.9851 7.02514 41.7448 13.9567 41.7448 22.6354C41.7517 25.8928 41.0567 29.1137 39.7071 32.0818C39.3228 31.8487 38.9256 31.6408 38.5153 31.4572C38.415 31.4108 38.3147 31.3674 38.2144 31.3232C37.8057 31.1473 37.3869 30.9957 36.9606 30.8693H36.9445C36.5089 30.7489 36.0657 30.6553 35.6179 30.5905C35.5077 30.573 35.3959 30.557 35.2842 30.5433C34.8279 30.4786 34.3671 30.442 33.9063 30.4344C33.3819 30.4344 32.8576 30.4717 32.3386 30.5463V5.70524ZM3.67279 60.5231C3.31991 58.7294 3.46458 56.8734 4.09151 55.1559C4.71921 56.4994 5.438 57.7987 6.24252 59.0455L3.67279 60.5231ZM8.95462 57.488C7.70459 55.5718 6.68191 53.5177 5.90724 51.3668C6.91538 49.7773 8.12714 48.3257 9.51266 47.0477C10.1893 49.9357 11.3797 52.6799 13.0278 55.1513L8.95462 57.488ZM15.7399 53.5885C13.9548 50.9639 12.769 47.9822 12.2669 44.8534C12.7323 44.5412 13.2092 44.2426 13.6968 43.9578C16.5275 42.3256 19.6767 41.3157 22.9323 40.9958V41.353C22.9369 41.8983 22.9836 42.4421 23.0701 42.9798C23.0893 43.1063 23.1076 43.2297 23.1314 43.3546C23.227 43.8763 23.3602 44.3911 23.5294 44.8938C23.5501 44.9532 23.5784 45.0096 23.5998 45.0682C23.7675 45.5229 23.965 45.9646 24.1916 46.3927C24.2474 46.5001 24.301 46.6082 24.3607 46.7141C24.6202 47.1718 24.9119 47.6105 25.2334 48.0271C25.2525 48.0522 25.2648 48.0804 25.2839 48.1056L15.7399 53.5885ZM28.8128 47.28C27.0728 45.7971 26.0708 43.6325 26.0678 41.353C26.0678 40.7925 26.1298 40.2327 26.253 39.6858C26.8355 37.0491 28.7477 34.9005 31.3067 34.0049C31.6757 33.8762 32.0531 33.7756 32.4373 33.7056C32.6126 33.6728 32.7902 33.6553 32.967 33.6347C33.1676 33.6104 33.3705 33.5913 33.5756 33.5822C33.7808 33.573 34.0096 33.5822 34.2263 33.5822C34.4421 33.5822 34.6121 33.6134 34.805 33.6347C35.2482 33.6865 35.6868 33.7756 36.1155 33.9005C36.2471 33.9379 36.3803 33.966 36.5089 34.011C36.7217 34.0841 36.9254 34.1793 37.1359 34.2699C37.3456 34.3605 37.5416 34.4603 37.7375 34.5708C37.8945 34.6538 38.0407 34.7391 38.1861 34.8328C38.5421 35.0597 38.8781 35.3156 39.1912 35.5974C40.8178 37.0735 41.7448 39.1626 41.7448 41.353C41.7487 41.8321 41.705 42.3096 41.6147 42.7803C41.1026 45.5199 39.1606 47.7796 36.5196 48.7072C33.8787 49.6357 30.9408 49.0919 28.8128 47.28ZM58.8771 60.437C54.4748 60.7234 50.0871 59.6906 46.2803 57.4735C43.4465 55.8429 40.9954 53.6289 39.0909 50.9799C39.1912 50.9259 39.2754 50.8505 39.3741 50.7949C39.7385 50.5854 40.0906 50.3562 40.4282 50.1063C40.5706 50.002 40.713 49.8992 40.85 49.7948C41.2526 49.4673 41.6315 49.1124 41.9844 48.7324C42.0219 48.692 42.0663 48.6577 42.1023 48.6151C42.4858 48.1817 42.8341 47.7187 43.1449 47.2305C43.2245 47.1056 43.2903 46.9761 43.3661 46.8496C43.5904 46.4673 43.7917 46.072 43.9678 45.6661C44.0053 45.5785 44.0604 45.5023 44.0964 45.4147L65.7075 57.8307C63.7816 59.4256 61.3802 60.3426 58.8771 60.4385V60.437Z" fill="#231F20"/>
<path d="M63.6928 41.3527C63.6928 43.3596 63.4899 45.3604 63.0873 47.3269L66.1607 47.9507C68.9999 34.128 62.6403 20.0463 50.3673 12.98L48.7996 15.6784C57.9999 20.9915 63.6714 30.7684 63.6928 41.3527Z" fill="#231F20"/>
<path d="M55.854 41.3529H58.9894C58.9856 34.2522 55.9459 27.4875 50.6288 22.751L48.5375 25.0747C53.1901 29.2202 55.8502 35.1388 55.854 41.3529Z" fill="#231F20"/>
</g>
<defs>
<clipPath id="clip0">
<rect width="70" height="74" fill="white"/>
</clipPath>
</defs>
</svg>
