<svg width="303" height="241" viewBox="0 0 303 241" fill="none" xmlns="http://www.w3.org/2000/svg">
<g clip-path="url(#clip0)">
<path fill-rule="evenodd" clip-rule="evenodd" d="M0.944336 232.778H17.4029L34.9408 188.163H18.4822L0.944336 232.778Z" fill="white"/>
<path fill-rule="evenodd" clip-rule="evenodd" d="M149.207 232.778H172.276L185.227 200.025H242.562L247.149 188.298H173.355L162.427 216.064L152.444 194.229L142.731 217.817L149.207 232.778ZM193.591 232.778L204.653 204.608H220.842L209.78 232.778H193.591Z" fill="white"/>
<path fill-rule="evenodd" clip-rule="evenodd" d="M113.726 232.778H130.185L147.723 187.894H131.264L118.043 221.591H77.5712L79.8646 215.795H103.203L107.79 204.473H67.3183L56.256 232.643C56.3909 232.778 113.726 232.778 113.726 232.778ZM121.416 199.89H69.3419L73.9288 188.164H126.003L121.416 199.89Z" fill="white"/>
<path fill-rule="evenodd" clip-rule="evenodd" d="M52.0739 188.163L32.6473 207.573L22.3944 233.048H27.2511L71.5004 188.163H52.0739Z" fill="white"/>
<path fill-rule="evenodd" clip-rule="evenodd" d="M232.714 232.509H274.4C284.518 232.509 287.351 228.6 290.319 220.512L291.938 216.065C294.501 209.864 291.533 206.629 284.248 206.629H260.909L262.123 203.664H245.935L243.371 210.134C242.022 214.312 243.776 216.334 248.633 216.334H275.479L273.59 220.917H237.031L232.714 232.509Z" fill="white"/>
<path fill-rule="evenodd" clip-rule="evenodd" d="M303.405 187.759H268.464C252.545 187.759 251.331 189.107 247.688 198.812H298.818L303.405 187.759Z" fill="white"/>
<path fill-rule="evenodd" clip-rule="evenodd" d="M55.5815 47.1757L0.944336 83.9726L24.2832 83.5683C28.7351 131.822 85.6656 164.576 161.483 162.689C209.78 161.61 245.125 143.01 269.273 112.548L247.688 125.218L226.103 105.539C213.827 131.553 187.79 148.94 159.19 150.153C120.876 151.232 79.5948 124.544 79.5948 85.1857L97.4025 84.377L55.5815 47.1757Z" fill="white"/>
<path fill-rule="evenodd" clip-rule="evenodd" d="M248.093 115.917L302.73 79.5247L279.256 80.1987C274.805 31.136 218.683 -1.07819 142.866 0.674049C94.5694 1.75235 55.1767 19.6791 34.671 51.4889L56.9305 38.145L78.5156 58.6327C90.7921 32.6187 116.829 15.2311 145.429 14.018C183.743 12.9397 225.024 39.6276 225.024 78.9856L207.216 79.7943L248.093 115.917Z" fill="white"/>
<path fill-rule="evenodd" clip-rule="evenodd" d="M151.77 86.1293H151.095C132.073 115.109 113.187 131.822 100.101 111.469C84.1816 69.5504 134.637 89.9033 146.508 81.4117C146.508 81.4117 146.508 81.4117 146.508 80.603C110.758 79.7943 86.6099 71.707 97.4024 50.5454C124.114 16.0398 132.343 64.9677 145.699 73.5941C131.264 43.9408 128.296 21.2965 151.635 20.4878C193.591 28.3055 156.896 57.2848 154.198 73.1897C174.704 43.806 195.075 27.9011 206.542 49.0627C220.707 91.7904 171.601 68.7417 158.65 76.9637C195.075 78.8508 219.223 86.938 207.756 108.908C179.156 143.818 172.815 88.4207 158.65 83.2987C173.894 114.435 177.672 138.696 154.198 139.37C111.703 131.822 150.691 101.36 151.77 86.1293Z" fill="white"/>
</g>
<defs>
<clipPath id="clip0">
<rect width="303" height="241" fill="white"/>
</clipPath>
</defs>
</svg>
